<?xml version="1.0" encoding="UTF-8"?> <svg xmlns="http://www.w3.org/2000/svg" width="108" height="55" viewBox="0 0 108 55" fill="none"><path fill-rule="evenodd" clip-rule="evenodd" d="M24.6354 17.6622C25.5292 17.1598 26.4231 16.6574 27.3169 16.1549C26.2437 16.3202 25.3751 16.8525 24.6354 17.6622M73.7207 8.81323C73.0195 9.384 72.4694 9.83258 71.9177 10.2787C71.8286 10.3512 71.4645 10.113 71.6617 10.4899C71.7118 10.586 72.0063 10.6751 72.025 10.6494C72.4806 10.0157 73.5815 10.0322 73.7207 8.81323M69.8744 8.95323C70.6022 8.66619 71.7433 9.17856 71.4119 7.65637C70.8345 7.96577 70.1424 8.05276 69.8744 8.95323M69.2192 8.96193C68.2404 9.22122 67.5371 9.65364 66.7203 9.68015C66.4738 9.68802 66.1114 9.7369 66.164 10.0695C66.2058 10.3362 66.5393 10.3499 66.8106 10.3681C67.8262 10.4369 68.554 9.98708 69.2192 8.96193M26.8849 11.4074C26.8534 11.3109 26.8228 11.2144 26.7917 11.1174C25.1954 11.088 23.8132 11.7276 22.547 12.7307C23.9929 12.2892 25.4385 11.8485 26.8849 11.4074M76.3625 6.75506C76.7535 6.17808 76.937 5.83761 76.2138 5.39027C75.8315 5.15376 75.0818 5.09785 75.1016 4.32702C75.105 4.19613 74.839 4.2885 74.7272 4.37548C74.6419 4.44175 74.3871 4.42477 74.5557 4.66252C75.107 5.4408 74.6796 5.96643 74.0197 6.47258C74.5599 6.34293 75.0399 7.03092 75.5713 6.35785C75.7138 6.17684 75.4442 5.62512 75.9462 5.79577C76.3111 5.91921 76.3977 6.28163 76.3625 6.75506M72.3501 8.21264C72.2673 7.25915 73.2514 6.71199 72.5705 5.81607C72.2921 5.4495 72.9801 5.29625 73.2141 5.04731C74.5847 3.5914 76.1434 2.33471 77.7828 1.21305C78.4757 0.739207 79.4329 0.977372 80.2303 1.34021C80.4171 1.42554 80.6316 1.60654 80.5297 1.87909C80.3972 2.23447 80.1561 1.92755 79.9664 1.94288C79.7047 1.96441 79.4375 1.95447 79.213 2.23986C79.8103 2.74808 80.3086 3.3466 81.2136 3.39548C81.8527 3.43027 81.6705 4.15595 81.6903 4.4608C81.7376 5.18773 82.2251 5.41347 82.6442 5.81731C83.0464 6.20501 83.2274 6.72441 83.9834 6.44276C84.2667 6.33672 84.789 6.53181 84.9716 6.98867C84.5935 7.35276 84.2762 6.97625 83.9361 6.87932C83.7373 7.87589 84.4854 7.78643 85.0069 7.94631C85.2765 8.02873 85.6522 7.9753 85.6957 8.39157C85.7437 8.85299 85.1767 8.58459 85.0508 8.95779C85.8696 9.1798 86.1567 9.65654 85.2603 10.0765C84.6486 10.3632 85.1754 11.0615 84.5347 11.2433C84.557 10.8358 84.294 10.5086 84.0968 10.1366C83.5468 10.388 84.1213 10.7873 83.9742 11.0971C83.3993 11.1365 83.2473 10.3114 82.568 10.6477C82.7403 10.166 83.8835 9.69051 82.479 9.66566C82.0209 9.65779 81.7628 8.78465 81.0951 9.33057C80.9232 9.47057 80.874 9.07542 80.8702 8.95986C80.84 8.0366 80.1184 7.5698 79.4657 7.57932C78.6758 7.59134 77.5475 7.12453 77.1238 8.43051C77.0198 8.75069 76.6483 9.00003 76.3674 9.24441C75.9474 9.60932 75.4069 9.77873 75.6244 10.62C75.73 11.0304 75.2433 11.7487 74.4269 11.5209C73.6225 11.2968 73.1226 11.6016 73.1723 12.4462C73.2029 12.9726 72.9685 12.6989 72.7415 12.8016C71.8601 13.1984 70.7389 12.3236 69.997 13.422C69.6321 13.9626 69.36 14.2202 70.3172 14.2654C69.1666 14.6087 68.008 14.9277 66.8677 15.3038C66.1408 15.5432 65.6736 15.2085 65.2826 14.6916C65.0921 14.4397 65.0817 14.151 64.5702 14.2558C64.0686 14.3581 63.6498 13.8458 63.5206 13.3964C63.289 12.5932 62.7092 12.0693 62.2515 11.4376C61.708 10.6858 61.0416 10.7318 60.5653 11.3196C59.3873 12.7747 57.7155 13.7194 56.6229 15.2387C56.1681 15.8712 55.0029 15.7329 54.9839 16.8003C54.6948 16.7816 54.3945 16.7025 54.1207 16.7568C53.4977 16.8802 52.8843 17.0571 52.2742 17.236C51.7183 17.3984 51.2751 17.3996 51.213 16.5074C51.0697 17.569 50.5544 17.5761 49.82 17.323C49.5537 17.2306 49.1275 17.3333 49.149 16.9726C49.1594 16.7957 49.4854 16.3372 49.9103 16.5389C50.2421 16.6963 50.5495 16.768 50.5333 16.2987C50.5151 15.7764 50.0213 16.0489 49.8275 16.0787C48.2461 16.3186 47.0975 15.7726 46.2886 14.3842C45.9502 13.8035 45.2808 13.7074 44.7233 13.9381C42.8826 14.699 40.9367 15.566 39.769 17.0981C39.0032 18.1025 37.9747 18.6745 37.2064 19.5874C36.535 20.3839 35.5222 20.8039 34.8943 21.7384C34.3467 22.5523 31.888 22.4471 31.2448 21.5947C30.0887 20.0633 28.3441 18.9752 27.7593 17.0107C27.5982 16.4697 27.237 16.5803 26.8721 16.7916C26.2226 17.1685 25.5773 17.5533 24.9237 17.9236C24.5857 18.1154 24.3197 18.443 23.8132 18.1957C23.3021 17.9468 23.1314 18.5118 22.8908 18.8033C22.7624 18.9595 22.8928 19.4197 22.7015 19.394C21.5885 19.2424 21.6585 20.4341 21.0194 20.8068C20.5973 21.0529 20.6193 21.0516 19.8832 21.0052C19.6687 20.992 19.4106 21.2086 19.2189 21.3735C17.76 22.6314 16.1592 23.5774 14.2774 24.1221C13.4615 24.3578 13.0005 24.1449 12.6828 23.5654C12.0403 22.3941 10.9402 21.6729 10.082 20.7178C9.78294 20.3844 9.55016 20.2849 9.22294 20.7352C8.16052 22.1973 6.87235 23.4258 5.33815 24.4017C5.01756 24.6055 5.14099 25.2657 4.7007 25.3713C3.70827 25.6099 2.69679 25.7793 1.68614 25.9322C1.42478 25.9719 1.28892 25.7644 1.42229 25.4799C1.56436 25.1771 1.48318 24.9878 1.14851 24.89C-0.0853994 24.5313 -0.3625 23.5232 0.499867 22.467C1.75283 20.9323 3.03188 19.4189 4.28649 17.8863C5.53862 16.3575 6.78744 14.8249 8.01058 13.2729C8.43513 12.7349 8.87957 12.2163 9.45738 11.8651C10.1089 11.4699 11.0222 11.315 11.3826 12.0013C12.0321 13.2394 13.2544 14.1212 13.5534 15.5481C13.7398 16.4391 14.1022 16.157 14.5914 15.788C17.6263 13.4945 20.7361 11.3237 24.3765 10.0645C24.4477 10.0401 24.5157 10.0057 24.5869 9.98252C28.9029 8.59992 29.4252 9.59358 31.1056 13.1234C31.9257 14.8457 31.4784 15.0776 33.3183 13.6151C35.2008 12.1181 36.8974 10.3872 38.9295 9.0779C40.5734 8.01879 42.2108 6.93234 44.3397 7.25956C45.9054 7.50021 46.9968 8.50382 47.986 9.56956C49.6229 11.3336 51.2553 10.9393 52.9651 9.61554C54.8219 8.17867 56.5483 6.57406 58.3629 5.08045C60.4733 3.34246 61.7267 3.58104 63.4025 6.00039C63.7654 6.52435 64.0416 7.11501 64.4438 7.60418C65.3911 8.75607 66.5529 8.8998 67.854 8.19648C69.0821 7.53293 70.3822 7.00441 71.5213 6.1756C71.694 6.04968 71.8804 5.66075 72.1554 6.0269C72.3402 6.27335 72.1728 6.53305 72.0411 6.76004C71.682 7.37968 71.6787 7.37761 72.3501 8.21264" fill="black"></path><path fill-rule="evenodd" clip-rule="evenodd" d="M66.2557 25.8597C66.2735 25.9678 66.2917 26.0755 66.3099 26.1836C67.3516 26.1936 68.32 25.9223 69.1807 25.238C68.2057 25.4455 67.2307 25.6526 66.2557 25.8597M33.8138 34.0961C32.7774 34.2411 31.7394 34.4606 30.8294 35.0823C31.9076 35.0587 32.8934 34.7278 33.8138 34.0961M47.5222 32.9057C48.73 33.1136 50.3839 32.5967 51.3622 31.823C50.0459 32.1941 48.7838 32.5499 47.5222 32.9057M53.806 26.8281C54.4638 26.2954 55.4384 26.1737 55.9176 25.3714C55.177 25.7992 53.9696 25.5209 53.806 26.8281M10.2888 37.8682C11.5161 38.0277 12.3267 37.8819 12.9691 36.7756C12.0127 37.1512 11.1777 37.191 10.2888 37.8682M60.4643 24.3123C59.7539 23.6363 57.7094 24.2153 56.9457 25.3188C58.0035 24.6465 59.2598 24.6751 60.4643 24.3123M52.7759 26.6525C50.4067 27.7406 47.9761 28.5694 45.3455 29.1149C46.6544 29.9226 51.6571 28.2364 52.7759 26.6525M36.434 28.8258C33.8411 28.8614 31.7378 30.6089 29.2136 30.8943C28.9452 30.925 28.6553 31.142 28.7352 31.4187C28.8355 31.7662 29.207 31.7302 29.5003 31.6519C30.7379 31.3226 31.9428 30.833 33.1701 30.5394C34.4583 30.2316 35.3732 29.4558 36.4083 28.7997C37.8721 28.8498 39.1275 28.185 40.4861 27.6975C39.5604 26.8641 37.7118 27.4171 36.434 28.8258M69.0436 30.9776C66.8045 31.6196 64.8689 31.1482 63.2705 29.4144C62.8737 28.9836 62.3671 28.6013 61.7852 28.7894C60.2721 29.2777 58.6488 29.1489 57.1544 29.8468C54.8585 30.9192 52.7138 32.3192 50.2725 33.078C49.3484 33.3654 48.4185 33.6334 47.4737 33.9151C47.3834 34.3968 47.9683 34.0505 48.0569 34.35C47.9434 34.3939 47.8299 34.4838 47.7388 34.4652C46.1868 34.1499 44.4144 34.2966 43.3474 32.8489C42.9461 32.3039 42.3144 32.168 41.9106 31.6569C41.7681 31.4771 40.9712 31.695 40.5391 31.883C38.1094 32.9409 35.7145 34.0791 33.2753 35.1154C32.4274 35.4754 31.493 35.6407 30.5892 35.8569C30.2044 35.9484 29.883 35.9699 29.538 35.5222C29.2737 35.1805 28.7535 34.4544 28.0783 35.1705C27.5991 34.606 26.6286 35.1635 26.2181 34.2046C25.7534 33.1182 24.884 33.2979 23.8149 33.6782C22.3379 34.2034 21.6474 35.6717 20.2375 36.1783C19.9471 36.2827 19.7815 36.5486 19.6634 36.8427C19.5802 37.0489 19.4575 37.3907 19.3275 37.4027C18.0944 37.5174 18.2025 38.8122 17.5224 39.3917C16.4388 40.3137 15.3802 41.2817 13.9499 41.6644C13.5046 41.7833 13.52 41.7982 13.2855 42.3793C13.2454 42.4799 13.0519 42.5421 12.9173 42.5781C11.9936 42.8266 11.5977 42.6038 10.6044 41.5596C10.4143 41.3595 9.9127 41.4606 9.55607 41.413C8.32133 41.2469 8.0198 39.9355 7.08826 39.3937C6.91636 39.2939 6.67737 38.9133 6.58707 39.1618C6.20932 40.2047 4.81056 40.1716 4.49494 41.2593C4.39429 41.6043 4.12423 41.9075 3.90056 42.2066C3.65536 42.5346 3.35589 42.936 2.93796 42.8689C2.58258 42.8121 2.54903 42.3358 2.554 42.0078C2.56352 41.3479 1.58228 41.4751 1.64524 40.6343C1.71731 39.6708 2.05406 38.8312 2.53453 38.1192C3.71583 36.3684 4.2282 34.3707 4.89423 32.4285C5.08559 31.871 5.25832 31.4796 5.91731 31.4473C6.5353 31.417 6.83021 31.6531 7.24068 32.1705C8.04879 33.1878 8.47127 34.3359 8.90743 35.4998C9.15056 36.1485 9.61985 36.3904 10.2312 36.2785C11.6929 36.0126 13.0797 35.5947 14.0004 34.2692C15.692 31.8329 18.1917 30.3749 20.6045 28.7943C21.1736 28.4215 21.6893 27.8876 22.2277 27.4262C22.8478 26.8944 23.5822 26.6425 24.3754 26.6243C25.2154 26.6049 25.695 27.0737 26.0711 27.8421C27.0996 29.9425 28.027 30.2424 30.2288 29.3982C32.5886 28.4936 34.9242 27.5037 37.3378 26.7718C38.4524 26.4342 39.4833 25.8021 40.7222 25.7806C41.771 25.7624 42.7116 25.8974 43.2932 26.8086C43.9232 27.7949 44.7715 27.8454 45.7506 27.6234C48.3978 27.0228 50.9468 26.1364 53.3844 24.946C55.2425 24.0385 57.1383 23.2109 59.121 22.643C60.6113 22.2156 62.1435 22.2462 63.3525 23.4383C64.3623 24.4344 65.5006 24.5127 66.7929 24.2182C70.0406 23.4781 73.0639 22.1327 76.09 20.8027C79.6223 19.2511 83.0109 17.381 86.6327 16.0253C87.4918 15.7039 88.3442 15.3017 89.3287 15.7159C88.9928 16.4611 88.3338 16.4942 87.785 16.6462C86.59 16.9772 85.4559 17.4411 84.3786 18.045C84.2415 18.1216 83.971 18.2367 84.1148 18.4521C84.2742 18.6903 84.4109 18.482 84.6176 18.3925C86.0197 17.7815 87.3025 16.7999 88.9464 16.8848C89.354 16.9059 89.9475 16.6657 89.6924 17.514C89.6004 17.8188 89.9857 17.7687 90.1451 17.8867C90.3 18.0019 90.5432 18.2078 90.4239 18.2976C89.9583 18.6481 89.9757 19.4218 89.5288 19.604C87.7614 20.3256 86.0611 21.2405 84.5323 22.2992C82.8208 23.4847 80.674 24.0633 79.3784 25.8427C78.0024 25.7586 77.6321 27.5356 76.1505 27.4879C75.1891 27.4569 74.4962 28.5185 73.756 29.1021C72.3158 30.2378 70.6851 30.5899 69.0221 30.9821C69.831 30.2134 71.0351 30.2647 71.8904 29.5809C70.5443 30.0941 69.1257 30.3149 67.7269 30.715C68.1428 31.1321 68.7102 30.3774 69.0436 30.9776" fill="black"></path><path fill-rule="evenodd" clip-rule="evenodd" d="M38.8751 54.1034C38.0761 53.2949 38.0761 53.2949 37.1247 54.3027C37.7518 54.2314 38.2712 54.1722 38.8751 54.1034M31.0617 46.5989C30.727 46.9009 30.4085 47.1146 30.5944 47.545C30.7825 47.9803 31.1635 48.1696 31.9572 48.2292C31.1772 47.784 31.3011 47.178 31.0617 46.5989M84.6456 41.4136C83.659 41.4235 82.8277 41.8804 81.9608 42.2204C82.8277 41.865 84.0123 42.8285 84.6456 41.4136M77.8685 45.7105C77.8763 45.7697 77.8846 45.8285 77.8929 45.8878C79.0009 45.7482 80.1093 45.6127 81.2152 45.4611C81.284 45.4516 81.3954 45.3041 81.3838 45.2399C81.3453 45.0295 81.1547 44.9127 80.9712 44.9546C79.9337 45.1919 78.9023 45.4557 77.8685 45.7105M82.3232 47.308C80.7674 47.6485 79.1724 47.7608 77.6042 48.0308C79.2697 48.3349 80.7948 47.8101 82.3232 47.308M38.9526 49.3136C38.2605 49.4027 37.5638 49.4685 36.8799 49.5982C36.6944 49.6334 36.3158 49.3157 36.3025 49.8293C36.293 50.2079 36.5246 50.2986 36.8381 50.4042C37.8396 50.7401 38.3292 49.9324 38.9526 49.3136M68.2511 40.4476C69.0911 41.2189 70.0811 40.7202 71.0159 40.728C71.2342 40.7297 71.3452 40.5731 71.3589 40.3685C71.3692 40.2066 71.2578 40.0264 71.1145 40.0848C70.1842 40.4671 69.1064 39.6056 68.2511 40.4476M80.1756 42.7862C79.8529 42.6947 76.4548 42.7647 76.1396 42.8662C75.9954 42.9121 75.8211 42.956 75.8658 43.1445C75.8964 43.2754 75.9863 43.4344 76.0969 43.4982C76.8843 43.9497 79.4109 43.4982 80.1756 42.7862M56.3184 51.3043C56.7703 51.5151 57.3353 51.1361 57.7085 51.7102C57.141 52.1008 56.5272 52.1662 55.9034 52.0788C55.5645 52.0316 55.2514 51.9807 54.9147 52.0946C54.1153 52.3654 53.5118 52.3688 53.508 51.2301C53.5064 50.7103 51.6081 49.7303 50.9922 49.8463C50.2255 49.99 49.2716 49.9527 48.7219 50.2625C47.2466 51.0934 45.4398 51.4443 44.3629 52.9213C44.155 53.2071 43.853 53.1661 43.585 53.2705C42.5967 53.6553 41.3545 53.4991 40.7461 54.728C40.5075 55.2085 40.3982 54.2302 39.8821 54.4779C39.3018 54.7566 38.5744 54.7587 37.9055 54.8171C36.2677 54.9588 35.3515 54.5305 35.0645 52.9847C34.8777 51.9778 34.473 52.3468 33.9449 52.4806C34.1479 51.9885 34.6238 51.5076 33.6562 51.4376C33.0241 51.3917 32.9993 50.6697 32.6903 50.2787C32.4737 50.0045 32.9251 50.1404 33.0859 50.0799C33.365 49.9755 33.691 49.8591 33.7506 49.483C33.4027 49.4404 33.5166 48.7279 32.9227 48.9665C32.549 49.1165 32.144 48.8936 31.755 48.5966C32.088 49.4814 31.352 50.0521 31.2725 50.8163C31.2128 51.385 30.9784 51.9583 31.1387 52.544C31.2485 52.9437 30.9444 53.1309 30.8206 52.908C30.454 52.2482 29.5295 52.1178 29.3883 51.2678C29.3328 50.9344 29.5171 50.8847 29.706 50.7869C29.8998 50.6867 30.4673 50.8636 30.2614 50.5413C29.8605 49.9163 30.0398 49.2917 29.959 48.6708C29.2035 49.3799 29.3986 48.1733 28.9575 48.1385C28.8535 48.1302 28.7417 47.3867 29.2247 47.3909C30.4747 47.4008 30.3588 46.415 30.2937 45.7759C30.1918 44.7781 30.6922 44.3101 31.3972 43.8582C31.8105 44.0744 31.2232 44.8411 31.9584 44.8866C32.5544 44.9235 32.4886 44.3353 32.7545 44.0624C32.8986 43.9133 33.1041 43.719 32.9289 43.475C32.7557 43.2348 32.4985 43.3864 32.3076 43.4398C31.2886 43.724 31.3764 42.7481 31.5773 42.5269C32.221 41.8186 32.5002 40.8366 33.3091 40.2749C34.1673 39.6797 34.7576 39.922 34.9419 40.9306C34.9609 41.0346 35.0214 41.1493 35.098 41.2222C36.7511 42.8057 36.4115 44.8378 36.3021 46.7862C36.2089 48.4512 36.2677 48.5204 37.9183 48.1203C39.8411 47.6543 41.5488 46.6946 43.3088 45.86C45.335 44.8982 47.324 43.8462 49.5031 43.2659C51.2324 42.8057 52.8039 43.084 53.9591 44.5851C54.5634 45.3696 55.2191 45.4566 56.1217 45.1033C59.1275 43.9261 61.867 42.2486 64.643 40.644C66.0095 39.8545 67.4695 39.2465 68.9184 38.7084C70.6154 38.0784 72.3795 38.5042 73.6366 39.8909C74.8079 41.1837 76.1387 41.4865 77.7806 41.2495C82.3799 40.5839 86.7502 39.0982 91.1105 37.5847C95.6091 36.0236 100.029 34.2545 104.415 32.4009C104.655 32.2995 104.915 32.2133 105.172 32.1918C105.586 32.1562 106.117 32.1417 106.25 32.5782C106.355 32.9262 105.815 33.0094 105.571 33.2207C105.337 33.4215 104.755 33.4191 104.934 33.8478C105.124 34.3025 105.583 33.9356 105.931 33.9198C106.403 33.8991 107.494 33.2861 106.691 34.6405C106.653 34.7056 106.685 34.8567 106.739 34.9272C107.751 36.2592 107.232 37.4215 105.593 38.0672C104.457 38.5154 103.33 39.0978 102.288 39.7307C100.248 40.9675 98.0537 41.8704 95.9314 42.915C92.2234 44.7408 88.4165 46.3682 84.4804 47.6626C82.1828 48.4181 79.8285 48.8302 77.4037 48.7544C77.0156 48.7424 76.654 48.737 76.3318 49.032C76.6259 49.3343 76.987 49.4735 77.3814 49.5509C76.7418 49.4279 76.0518 49.4532 75.5899 48.8356C75.3961 48.5772 75.114 48.6012 74.8137 48.5523C74.4082 48.486 73.6796 48.4338 74.0644 47.6237C74.093 47.5632 74.0897 47.487 74.1009 47.4178C73.1677 47.658 73.4908 46.5086 72.944 46.3637C72.249 46.1798 71.7018 45.8078 71.2127 45.2954C70.8469 44.9131 70.3288 44.9276 69.8632 44.9993C69.454 45.0623 68.942 45.6894 68.8608 44.694C68.8592 44.6775 68.58 44.6431 68.4537 44.6857C68.2221 44.7636 68.2209 44.996 68.312 45.1542C68.573 45.6061 68.4872 46.0323 68.0303 46.1595C67.3055 46.362 66.8652 47.1482 66.0616 47.0931C65.6433 47.0645 65.8616 46.5057 65.5195 46.2647C65.2593 46.8499 64.2495 46.9489 64.6082 47.8946C64.6211 47.9289 64.5154 48.0602 64.4736 48.0565C63.745 47.9894 63.6609 48.3643 63.4882 49.0158C63.3043 49.7096 62.3471 49.7448 61.7005 50.0182C61.5995 50.0604 61.423 50.1196 61.4214 50.1756C61.3729 51.694 60.1116 50.7016 59.5144 51.0864C59.3321 51.2036 59.1714 51.0011 59.0269 50.7778C58.4441 49.8782 57.9276 49.8703 57.2744 50.6146C57.0279 50.8954 56.6568 51.0665 56.3184 51.3043" fill="black"></path><path fill-rule="evenodd" clip-rule="evenodd" d="M82.906 48.7657C82.0018 49.3146 81.0251 49.5179 79.7961 49.4923C80.8544 48.757 81.9761 49.1655 82.906 48.7657" fill="black"></path></svg> 