<?xml version="1.0" encoding="UTF-8"?> <svg xmlns="http://www.w3.org/2000/svg" width="156" height="217" viewBox="0 0 156 217" fill="none"><path fill-rule="evenodd" clip-rule="evenodd" d="M25.5785 178.327C25.6079 178.327 25.6378 178.327 25.6676 178.326V170.105C25.6378 170.105 25.6079 170.105 25.5785 170.105V178.327ZM1.66794 88.1947C0.807645 89.8536 0.528473 93.5859 1.08557 95.4598C1.06031 92.9095 1.07895 90.525 1.66794 88.1947V88.1947ZM77.2501 213.741C79.1658 213.741 81.0815 213.758 82.9972 213.738C87.1731 213.695 91.3168 213.299 95.4356 212.605C101.39 211.601 106.963 209.533 112.333 206.807C117.833 204.014 122.727 200.471 126.692 195.716C134.983 185.774 136.695 174.624 132.664 162.484C131.601 159.284 130.273 156.173 129.081 153.016C126.613 146.477 125.659 139.816 127.373 132.912C128.607 127.938 130.728 123.338 133.135 118.852C136.517 112.55 140.34 106.504 143.944 100.331C146.87 95.3219 149.61 90.2326 151.234 84.6127C152.622 79.8104 152.656 74.9833 151.089 70.2925C149.344 65.0669 145.951 60.9427 141.499 57.6875C136.382 53.9465 130.691 52.2615 124.346 52.5316C119.609 52.7337 114.932 53.3691 110.281 54.1809C104.496 55.1911 98.7227 56.1832 92.8274 55.4475C89.025 54.9733 85.3768 53.9775 82.1725 51.7454C77.2265 48.3001 74.2074 43.4245 72.0059 37.9604C71.1966 35.9523 70.5326 33.8962 69.9797 31.7921C69.2146 28.8807 68.204 26.0243 67.856 23.0251C67.7889 22.4436 67.5251 22.0505 67.3743 21.563C67.0624 20.5561 66.8578 19.5127 66.5008 18.5232C65.2197 14.9734 63.8056 11.4838 61.7984 8.25925C60.8875 6.79546 59.8781 5.20948 58.5552 4.35333C56.678 3.13765 54.3945 2.47369 51.9495 3.23374C51.1762 3.47398 50.3494 3.46073 49.6283 3.98552C49.3156 4.21292 48.7601 4.31108 48.3451 4.04185C47.8957 3.75025 47.7383 3.93374 47.3535 4.25516C46.5297 4.94357 46.1917 6.12984 45.0302 6.45706C43.9645 6.75777 43.2981 7.64043 42.661 8.42161C42.0679 9.14854 41.2689 9.59298 40.7056 10.4371C39.4042 12.3851 37.9872 14.2515 36.931 16.359C36.571 17.0776 36.1195 17.759 35.7165 18.4407C35.164 19.3752 34.8662 20.4086 34.3095 21.3439C33.4699 22.7534 32.7976 24.324 32.3901 25.9129C31.9382 27.6745 31.2316 29.3711 31.0037 31.1944C30.8401 32.5037 30.4992 33.7964 30.4085 35.1078C30.1248 39.1914 30.2594 43.2762 30.5084 47.3598C30.6339 49.4159 30.6649 51.4782 30.7722 53.536C30.8546 55.1149 31.3011 56.6636 31.1611 58.2645C31.0435 59.6032 31.22 61.0248 30.9747 62.2665C30.6881 63.7171 30.966 65.4679 29.6385 66.6355C29.2252 69.998 26.9818 72.18 24.611 74.2154C21.7584 76.6646 18.2965 77.8554 14.6842 78.6693C12.544 79.1514 10.4618 79.8821 8.71143 81.1889C6.58078 82.7798 5.27605 85.019 4.68498 87.6185C4.52262 88.3318 3.97711 88.8458 3.88847 89.5765C3.75054 90.7143 4.23433 91.8848 3.65652 93.0085C3.51983 93.2749 3.53433 93.7156 3.65611 94.0001C4.12581 95.0982 3.64699 96.3217 4.30019 97.4716C4.5951 97.991 4.49031 99.0418 4.66344 99.7894C5.65338 104.062 7.08155 108.177 9.33812 111.979C11.4327 115.508 13.4333 119.107 16.4172 121.99C17.5629 123.097 18.5802 124.318 19.9002 125.288C22.0897 126.895 24.145 128.697 26.4326 130.169C28.4436 131.463 30.1575 133.116 32.0513 134.55C34.7552 136.596 36.069 139.269 35.2998 142.727C35.0443 143.878 34.6102 144.973 34.3853 146.147C34.1318 147.472 33.7984 148.828 32.9927 150.008C32.2675 151.071 31.7013 152.241 31.0236 153.339C30.7254 153.822 30.5775 154.484 29.8328 154.561C29.7077 154.574 29.4989 154.771 29.6149 154.869C30.3021 155.449 29.6331 155.878 29.4683 156.343C28.9795 157.72 28.415 159.072 27.961 160.46C27.2407 162.664 26.8638 164.965 26.0441 167.151C25.8921 167.555 25.7044 168.104 25.7587 168.661C26.1862 173.031 25.5512 177.428 26.0631 181.805C26.1381 182.445 26.2657 183.066 26.3456 183.695C26.5498 185.311 27.0353 186.761 27.9072 188.17C29.6961 191.061 31.9129 193.629 33.8505 196.405C34.7663 197.717 35.9071 198.808 37.2723 199.643C41.0883 201.976 44.7449 204.557 48.6611 206.738C52.3529 208.795 56.1052 210.668 60.1809 211.833C65.7606 213.427 71.4857 213.826 77.2501 213.741V213.741ZM38.3707 9.64309C36.7649 10.556 36.2467 12.2633 35.3201 13.6729C35.9261 13.0623 36.484 12.4108 36.9363 11.693C37.3833 10.9843 38.2552 10.5634 38.3438 9.617C39.2347 9.12203 41.0378 7.13801 40.9731 6.54901C40.4637 7.27635 39.8888 7.79659 39.3172 8.32179C38.915 8.69167 38.3753 8.9812 38.3707 9.64309V9.64309ZM24.2709 161.784C25.236 160.804 25.3155 159.422 25.8221 158.241C27.295 154.806 28.9953 151.497 30.8161 148.239C31.4714 147.067 32.0579 145.842 32.5363 144.589C33.6931 141.558 32.9439 138.866 30.3066 136.605C27.6748 134.349 24.7058 132.551 21.8677 130.577C18.685 128.362 15.706 125.901 13.0692 123.056C9.22214 118.903 6.11688 114.243 3.86362 109.046C1.57475 103.766 -0.188095 98.3219 0.0161063 92.4854C0.165219 88.2191 1.32208 84.2221 4.54498 81.1636C6.80362 79.0206 9.60652 77.8223 12.5966 77.0734C15.2177 76.4173 17.8442 75.8411 20.1318 74.2535C24.9829 70.8865 27.0568 66.1211 27.3302 60.3894C27.5286 56.2416 27.0274 52.1273 26.771 48.0031C26.3034 40.4754 26.1 32.9879 28.5065 25.6772C30.6641 19.1237 33.8468 13.1816 38.5998 8.13333C40.5341 6.07848 42.7306 4.32682 45.2415 3.06268C48.8865 1.22735 52.6785 0.152088 56.7613 1.67014C59.7609 2.78558 62.0332 4.80315 63.8549 7.36913C66.0249 10.4263 67.475 13.7934 68.5349 17.4032C69.1587 19.5276 70.0439 21.5899 70.5591 23.7628C71.204 26.4837 71.9434 29.1921 72.766 31.8505C74.9261 38.8294 77.4895 45.6537 83.6566 50.2936C86.276 52.2644 89.3481 52.9615 92.5296 53.2547C96.9114 53.659 101.239 53.1259 105.57 52.4939C110.167 51.8229 114.726 50.8714 119.378 50.5939C123.377 50.3553 127.359 50.2236 131.298 51.2384C140.984 53.7332 148.227 59.351 152.878 68.1975C154.222 70.7547 154.796 73.5887 155.04 76.4927C155.184 78.2087 155.327 79.9165 155.117 81.6209C154.706 84.9382 153.751 88.1094 152.439 91.1844C150.965 94.6368 149.253 97.969 147.406 101.23C145.65 104.33 143.737 107.342 142.01 110.458C140.815 112.614 139.478 114.685 138.399 116.92C137.841 118.077 137.411 119.399 136.407 120.374C135.756 121.005 135.787 122.044 135.331 122.827C133.207 126.477 131.831 130.427 130.667 134.463C130.595 134.711 130.499 134.991 130.323 135.163C129.699 135.777 129.646 136.424 130.045 137.177C130.14 137.356 130.121 137.62 130.092 137.836C129.521 142.102 130.278 146.219 131.483 150.286C132.635 154.177 134.21 157.918 135.53 161.749C137.507 167.482 138.795 173.33 138.051 179.455C137.733 182.08 137.195 184.698 136.21 187.118C132.673 195.81 126.696 202.394 118.527 207.036C116.282 208.311 113.975 209.462 111.65 210.546C105.832 213.255 99.6878 214.81 93.2772 215.388C87.8292 215.879 82.3771 216.119 76.9121 216.109C65.9205 216.089 55.5232 213.834 46.0293 208.024C42.3421 205.767 38.3786 203.988 34.7187 201.668C32.5926 200.319 30.744 198.709 29.2546 196.672C28.1665 195.184 27.0349 193.725 25.8784 192.288C23.6098 189.47 22.093 186.384 21.8031 182.689C21.4427 178.102 21.2746 173.512 21.5678 168.932C21.8172 165.029 23.382 161.42 24.7319 157.798C26.3316 153.505 28.6548 149.557 30.9056 145.583C31.1524 145.147 31.4942 144.765 31.881 144.416C31.8102 145.715 31.1056 146.748 30.5092 147.791C28.311 151.636 26.3229 155.574 24.7924 159.739C24.5422 160.419 24.4213 161.109 24.285 161.809C23.7018 163.276 23.2631 164.779 23.0324 166.34C23.4193 164.814 24.4341 163.457 24.2709 161.784V161.784Z" fill="black"></path></svg> 