<?xml version="1.0" encoding="UTF-8"?> <svg xmlns="http://www.w3.org/2000/svg" width="29" height="33" viewBox="0 0 29 33" fill="none"><path fill-rule="evenodd" clip-rule="evenodd" d="M1.15568 21.9991C0.794908 21.5509 -0.124619 21.8289 0.0141387 20.9971C0.183133 19.9807 1.05006 19.7512 1.86727 19.6676C3.24781 19.5259 4.64035 19.4903 6.02958 19.4493C7.79574 19.3971 9.56396 19.3946 11.3309 19.3499C12.7235 19.3142 12.7123 19.3022 12.4414 17.8782C11.8636 14.8376 11.5356 11.7737 11.6544 8.67342C11.7062 7.31733 11.8578 5.972 12.2157 4.65774C12.4244 3.89147 12.7231 3.16123 13.1605 2.49395C14.3699 0.650343 15.9977 0.488805 17.739 1.83579C18.5935 2.49685 19.2737 3.1662 19.6547 4.18638C19.9273 4.91703 19.6821 5.3975 19.0744 5.66301C18.2539 6.02212 18.0522 6.67656 17.9383 7.4565C17.5212 10.3157 17.826 13.1625 18.0592 16.0106C18.111 16.6447 18.2481 17.276 18.2518 17.9093C18.2585 18.8404 18.7505 19.0193 19.5541 18.9564C21.5377 18.8015 23.5346 18.7733 25.4718 18.2357C25.6764 18.1785 25.9079 18.0704 26.0823 18.3156C26.161 18.7335 25.6267 18.7563 25.5339 19.0603C25.8284 19.3126 26.0715 19.0931 26.3163 19.0906C26.6933 19.0869 27.4914 18.3661 27.187 19.5802C27.8335 19.6787 28.1119 20.0743 28.2142 20.706C28.3095 21.2916 28.2933 21.7667 27.6463 21.9871C25.1756 22.8283 22.5968 23.1601 20.0329 23.5271C19.2658 23.6369 19.168 23.8966 19.3296 24.5261C19.8726 26.6423 20.3299 28.7966 22.2555 30.2048C22.6113 30.4645 22.613 30.9371 22.7911 31.305C23.0624 31.8637 22.5943 32.1313 22.3276 32.4622C22.0534 32.8031 21.7328 32.5927 21.4047 32.4979C17.9515 31.5034 15.9986 29.0298 14.7137 25.8416C14.0477 24.1894 14.0025 24.2813 12.1527 24.4984C10.3294 24.7121 8.48704 24.7511 6.6542 24.8886C5.09017 25.0054 3.69887 24.544 2.41775 23.6878C2.10668 23.4799 1.81384 23.2036 1.42325 23.2272C0.956032 23.2558 0.713724 23.0193 0.585736 22.6328C0.437452 22.1834 0.965145 22.1942 1.15568 21.9991" fill="black"></path></svg> 