<?xml version="1.0" encoding="UTF-8"?> <svg xmlns="http://www.w3.org/2000/svg" width="33" height="38" viewBox="0 0 33 38" fill="none"><path fill-rule="evenodd" clip-rule="evenodd" d="M18.7836 2.42388C19.03 2.07595 18.8987 1.72388 18.9538 1.39873C18.9857 1.20944 19.1009 0.89382 19.2081 0.956779C19.9682 1.4037 20.9929 0.682992 21.6416 1.52506C24.2755 4.94139 27.8248 7.44607 30.701 10.6209C30.9035 10.8442 31.1201 11.0538 31.3248 11.2749C32.5077 12.5507 32.5073 12.5511 31.0597 13.3766C29.5702 14.2261 29.4248 14.2315 28.0107 13.0987C25.0728 10.7452 22.1473 8.37512 19.3469 5.85761C18.4733 5.0727 17.6806 4.2037 17.4867 2.97352C17.4345 2.64423 17.4134 2.29755 17.4565 1.9695C17.4946 1.68163 17.5915 1.31631 17.9444 1.28814C18.311 1.25915 18.2513 1.63855 18.3271 1.87133C18.3967 2.08423 18.4518 2.30625 18.7836 2.42388" fill="black"></path><path fill-rule="evenodd" clip-rule="evenodd" d="M7.37801 15.9801C8.8505 16.0741 10.1051 16.7513 11.3349 17.4936C14.0052 19.106 16.3993 21.1348 19.1227 22.669C19.6491 22.9656 19.6442 23.2381 19.1616 23.6892C17.7591 24.9993 16.3968 24.4062 15.0776 23.6594C12.4296 22.1599 9.82429 20.586 7.19369 19.0567C6.51192 18.6604 5.80446 18.3079 5.10115 17.9496C4.69482 17.7421 4.6331 17.3908 4.66334 16.9982C4.69482 16.5918 4.95079 16.4887 5.33145 16.3922C6.00825 16.2203 6.6602 15.9544 7.37801 15.9801" fill="black"></path><path fill-rule="evenodd" clip-rule="evenodd" d="M5.81246 37.2813C4.26998 37.2813 2.72791 37.2884 1.18584 37.2772C0.695007 37.2734 0.176427 37.2697 0.023173 36.6343C-0.116413 36.054 0.407966 36.0076 0.704534 35.7591C1.27655 35.2795 1.94589 35.0579 2.65832 34.9481C5.75737 34.4689 8.85891 34.2639 11.9691 34.8756C12.3055 34.9423 12.6621 34.934 12.8125 35.3114C12.9827 35.7376 12.5664 35.8536 12.3891 36.1149C11.5624 37.3352 10.3471 37.3356 9.08217 37.2962C7.99323 37.2627 6.90223 37.2896 5.81246 37.2896V37.2813Z" fill="black"></path></svg> 