<?xml version="1.0" encoding="UTF-8"?> <svg xmlns="http://www.w3.org/2000/svg" width="47" height="39" viewBox="0 0 47 39" fill="none"><path fill-rule="evenodd" clip-rule="evenodd" d="M12.1093 21.8029C12.8619 18.5821 13.5918 15.4429 14.3307 12.3053C14.6066 11.1348 14.8302 9.94477 15.2109 8.80779C15.7025 7.33903 16.7894 7.0524 18.0448 7.36471C21.4289 8.2072 22.8508 10.7931 24.0947 13.6295C24.4095 14.3477 24.8 15.0336 25.1712 15.727C25.696 16.7078 25.8016 16.7116 26.5012 15.7838C27.7268 14.158 28.2483 12.2171 28.9085 10.3416C29.8181 7.75572 30.5086 5.09323 31.5851 2.56619C32.0254 1.53276 33.1967 0.739978 33.944 0.997611C34.716 1.26311 35.4641 1.62305 36.1835 2.01406C38.1609 3.08933 39.2996 4.91637 40.3177 6.81797C42.1774 10.2915 44.1577 13.7045 45.6758 17.3519C45.8767 17.8349 46.23 18.3162 46.0966 18.841C45.9661 19.3563 45.8468 20.2464 44.9779 19.3815C44.8408 19.2452 44.6987 19.1388 44.4845 19.2047C43.0448 19.6483 42.5009 18.5949 41.9061 17.6464C40.1669 14.8754 38.4376 12.0974 36.6947 9.32844C36.5257 9.06004 36.4192 8.59572 36.0108 8.69885C35.7184 8.77258 35.7689 9.21246 35.6529 9.48294C34.81 11.4475 34.622 13.598 33.9092 15.5994C33.5173 16.7 33.0982 17.7856 32.4561 18.771C32.0436 19.4031 31.6484 20.0314 30.806 20.1818C30.567 20.2244 30.2824 20.3971 30.1519 20.5972C29.372 21.7926 28.2557 21.3498 27.2099 21.2438C24.3295 20.9513 22.1483 19.524 20.5582 17.1365C20.5027 17.0533 20.3789 17.0148 20.2037 16.9017C19.9696 17.6485 19.613 18.2541 19.4846 19.058C19.0261 21.9384 18.6289 24.8403 17.5975 27.6076C17.1903 28.6994 16.4108 29.3538 15.4503 29.722C14.6231 30.0389 13.7856 29.3323 12.8599 29.4139C11.0618 29.5729 10.0044 28.339 9.05584 27.0463C8.61389 26.4436 8.24318 25.7884 7.83561 25.1497C6.71064 26.2457 6.78726 27.7662 6.44182 29.0767C5.92655 31.0305 5.22324 32.8969 4.49259 34.7633C4.02413 35.9607 3.82697 37.2481 3.00188 38.3312C2.31969 39.2263 1.44821 38.7935 0.754423 38.7454C0.275192 38.7127 -0.207352 37.9949 0.0929435 37.1346C2.19046 31.1283 3.11951 24.8908 3.66004 18.5805C3.76484 17.3569 4.50377 16.3537 5.28371 16.4672C6.0388 16.5765 6.78602 16.8284 7.50176 17.1071C9.28283 17.8005 10.3747 19.2274 11.3074 20.8105C11.493 21.1249 11.558 21.53 12.1093 21.8029" fill="black"></path></svg> 