<?xml version="1.0" encoding="UTF-8"?> <svg xmlns="http://www.w3.org/2000/svg" width="119" height="39" viewBox="0 0 119 39" fill="none"><path fill-rule="evenodd" clip-rule="evenodd" d="M66.5294 23.1617C66.2167 23.2114 65.933 23.3518 65.754 23.2677C65.1584 22.9877 64.5143 22.9786 63.8951 22.856C63.1359 22.7052 62.3195 22.7458 61.5938 22.5686C60.5968 22.325 59.577 22.1452 58.5813 21.9928C57.5549 21.8354 56.5546 21.5144 55.5038 21.4655C55.0337 21.4436 54.5756 21.1822 54.1079 21.0414C54.0578 21.0265 53.9828 21.0923 53.9021 21.1288C53.9083 21.2245 53.9153 21.3264 53.924 21.4564C54.5412 21.5434 55.1944 21.5119 55.7299 21.748C56.2108 21.9597 56.7398 21.7551 57.0976 21.9742C57.528 22.2376 58.0196 21.975 58.3415 22.2405C58.7201 22.5532 59.1583 22.2111 59.4971 22.4642C59.903 22.7674 60.4013 22.4621 60.7795 22.6377C61.3105 22.8846 61.9525 22.6377 62.3559 22.8991C62.9027 23.2532 63.5654 22.7765 64.0073 23.2947C64.6059 23.1613 65.1476 23.4558 65.7196 23.5208C66.3662 23.5945 67.0488 23.5672 67.6469 23.778C68.1572 23.9582 68.7147 23.8074 69.1223 24.0162C69.5005 24.21 69.882 24.0514 70.1678 24.2196C70.5534 24.4461 70.9386 24.3765 71.3267 24.4341C71.6502 24.4822 71.9753 24.546 72.2976 24.6226C72.8903 24.7638 73.4814 24.9854 74.1147 24.8798C74.2613 24.8554 74.4978 24.8144 74.5521 24.8868C74.8909 25.3387 75.4115 24.9353 75.7918 25.1896C76.225 25.4791 76.7304 25.2737 77.2009 25.3255C77.3496 25.342 77.5571 25.2646 77.642 25.3396C77.9614 25.6192 78.3822 25.4328 78.6742 25.5798C79.0768 25.7819 79.3875 25.4907 79.7424 25.5508C80.273 25.6394 80.8073 25.7099 81.3417 25.7782C81.7977 25.8366 82.2554 25.8805 82.7682 25.9373C82.7839 25.924 82.8614 25.8581 82.9053 25.8209C83.1704 25.9571 83.4069 26.0789 83.5854 26.1713C84.0563 25.9373 84.4672 25.9182 84.8756 26.1526C85.3263 26.4111 85.7094 26.1178 86.1012 25.9965C86.5523 25.8569 86.8862 26.5221 87.4288 26.0806C87.7009 25.8594 88.2588 25.9882 88.7364 25.9559C88.0115 25.5392 87.2805 25.4605 86.5643 25.5711C85.8275 25.6858 85.1453 25.149 84.4154 25.4638C83.988 25.1482 83.6015 25.3789 83.201 25.5765C83.0092 25.4063 82.8216 25.2393 82.6066 25.048C82.3573 25.1461 82.1332 25.2348 81.8979 25.3276C81.5682 25.0968 81.2236 24.9349 80.8761 25.3131C80.7336 25.171 80.6007 25.038 80.4449 24.8819C79.5979 24.84 78.714 24.9767 77.8603 24.6599C77.4995 24.5261 77.1015 24.4615 76.7154 24.4325C75.991 24.3786 75.274 24.3633 74.5446 24.2473C73.7663 24.1239 72.9851 23.8136 72.1601 23.9574C72.0263 23.981 71.8581 23.8054 71.6974 23.7167C71.5972 23.8016 71.5102 23.9363 71.4344 23.9305C70.8288 23.8841 70.2241 23.819 69.6223 23.7383C69.5307 23.7258 69.4537 23.6024 69.3692 23.5303C69.293 23.5999 69.2122 23.6728 69.09 23.7847C68.8067 23.6397 68.5051 23.4852 68.2028 23.3307C68.1775 23.3564 68.1543 23.4003 68.1237 23.4069C67.6337 23.5063 67.1814 23.1542 66.6806 23.2826C66.6193 23.2984 66.5162 23.1505 66.5294 23.1617M18.234 13.7689C18.1959 13.616 18.1702 13.5141 18.1304 13.3555C18.0397 13.4226 17.9689 13.4756 17.8893 13.5352C17.3281 13.2225 16.7648 12.8895 16.1845 12.5909C15.4058 12.1903 14.6093 11.8474 13.8625 11.359C13.2288 10.9448 12.4269 10.7071 11.8959 10.1665C11.3934 9.65666 10.5866 9.71507 10.2018 9.08755C9.43509 8.98483 9.05734 8.26288 8.41243 7.95678C8.22272 7.8669 8.09515 7.70288 7.83917 7.68838C7.58112 7.67305 7.58444 7.61134 7.29574 7.06791C7.21663 7.05672 7.11308 7.03891 7.0087 7.02939C6.93456 7.02234 6.80574 7.05134 6.79166 7.02152C6.45118 6.29956 5.49894 6.48057 5.0926 5.86424C5.05408 5.80625 5.02923 5.69442 4.9874 5.68862C3.79822 5.53163 3.08414 4.49572 2.03083 4.0985C1.63651 3.94939 1.47704 3.53808 1.10633 3.37737C0.947692 3.3082 0.801065 3.20962 0.63 3.11394C0.584852 2.93708 0.566213 2.71548 0.470947 2.53406C0.375266 2.35181 0.203373 2.20891 0 1.97447C0.605976 1.70607 1.17302 1.91814 1.68746 1.64353C1.2716 1.62406 0.85574 1.60459 0.410059 1.58347C0.385207 1.49152 0.35787 1.39004 0.330533 1.2898C1.76408 0.830865 1.78396 0.782404 3.46562 1.47081C4.65521 1.95832 5.93675 2.27684 6.95609 3.13092C7.93361 3.35128 8.70899 3.98874 9.58213 4.4224C10.7725 5.01388 11.9017 5.72631 13.0792 6.34388C14.5612 7.12175 16.0611 7.86607 17.5625 8.60625C18.9679 9.29921 20.4168 9.88613 21.8785 10.4569C22.8428 10.8334 23.7971 11.2762 24.7634 11.6689C25.7302 12.0615 26.7102 12.4219 27.6873 12.7897C28.4038 13.0589 29.1067 13.4155 29.8494 13.5531C30.6351 13.6984 31.2233 14.2531 31.9929 14.3939C32.4783 14.4829 32.9137 14.8048 33.4422 14.7116C33.5151 14.6983 33.6145 14.6789 33.6646 14.7141C34.4951 15.3043 35.5144 15.3395 36.4377 15.6547C37.397 15.9819 38.3786 16.2454 39.3574 16.5117C39.8988 16.6591 40.4546 16.7345 40.9794 16.9607C41.5986 17.2274 42.2941 17.1893 42.9394 17.406C43.7359 17.6731 44.5705 17.8549 45.3882 18.0206C46.1872 18.1826 46.9833 18.3619 47.7719 18.5591C49.3098 18.9431 50.8962 19.1174 52.4014 19.6472C52.7995 19.7876 53.2286 19.699 53.6643 19.868C54.2517 20.0962 55.0312 19.8912 55.5643 20.1778C56.1528 20.4938 56.8359 20.0788 57.3217 20.5833C58.4877 20.5502 59.5837 21.0356 60.748 21.0468C61.0938 21.0497 61.438 21.1893 61.7839 21.2605C62.1662 21.3396 62.5481 21.4204 62.9329 21.4846C63.2825 21.5434 63.6872 21.3429 63.968 21.7132C64.5595 21.6341 65.1145 21.881 65.6832 21.9162C66.4118 21.9613 67.0993 22.332 67.8466 22.1651C68.2591 22.6249 68.9338 22.1593 69.3683 22.5959C69.4441 22.6721 69.6558 22.6125 69.8049 22.6174C70.2365 22.6315 70.6515 22.6021 71.0778 22.8208C71.4427 23.008 71.9119 22.7318 72.3502 23.037C72.6028 23.2126 73.0771 23.0685 73.4354 23.0685C73.5841 23.2176 73.7175 23.3506 73.8546 23.4881C74.4709 23.0689 74.9808 23.3481 75.4782 23.7362C75.7963 23.3547 76.3062 23.4144 76.5957 23.5742C76.9685 23.7793 77.3065 23.7333 77.6586 23.7395C78.6866 23.7577 79.6836 24.0941 80.729 23.9967C80.9979 23.9715 81.294 24.2432 81.5695 24.3745C81.7074 24.3215 81.8627 24.2378 82.028 24.203C82.4902 24.1052 82.9305 24.3438 83.4288 24.2353C83.8418 24.1454 84.3554 24.3115 84.7646 24.4963C84.9899 24.5977 85.067 24.4436 85.1743 24.4532C85.7827 24.5083 86.4222 24.2055 87.0108 24.6342C87.1587 24.7415 87.4511 24.6503 87.6769 24.6503C89.2956 24.6503 90.9143 24.6454 92.533 24.6545C92.8979 24.6561 93.2872 24.6367 93.6202 24.7543C93.9624 24.8752 94.1682 24.4801 94.4963 24.6404C94.7083 24.7444 94.966 24.7547 95.2431 24.8152C95.4899 24.7684 95.7998 24.6636 96.1112 24.6582C97.3153 24.6383 98.5252 24.5836 99.7239 24.6673C101.216 24.7717 102.671 24.4511 104.147 24.3823C105.21 24.3331 106.256 23.8961 107.393 23.6115C107.602 23.6881 107.919 23.8045 108.26 23.9296C108.3 23.8944 108.38 23.8232 108.478 23.7366C108.683 23.9839 108.888 24.2303 109.128 24.519C108.488 24.6822 107.952 24.8189 107.323 24.9796C107.486 25.2078 107.587 25.3499 107.709 25.5214H108.874C109.019 25.6676 109.126 25.7745 109.314 25.9625C109.055 26.1555 108.796 26.3486 108.498 26.5714C108.722 26.6584 108.851 26.7085 108.993 26.7636C109.13 27.389 108.72 27.7643 108.346 28.1516C108.418 28.2307 108.488 28.3098 108.505 28.3297C108.233 28.5981 107.971 28.857 107.657 29.1664C107.358 29.0947 106.987 28.7041 106.542 29.0471C106.613 29.127 106.684 29.207 106.818 29.3577C106.325 29.2782 105.896 29.2086 105.467 29.1394C105.454 29.1962 105.439 29.2542 105.425 29.3113C105.634 29.3615 105.842 29.4116 106.117 29.4774C105.835 29.6236 105.607 29.7425 105.311 29.8962C105.247 29.7645 105.192 29.6514 105.086 29.4327C104.906 29.4219 104.629 29.4054 104.29 29.3855C104.385 29.61 104.454 29.7736 104.581 30.0726C104.306 30.0726 104.129 30.0851 103.955 30.0706C102.695 29.9658 101.475 30.3941 100.208 30.3158C98.9324 30.2371 97.6471 30.3332 96.3701 30.2702C96.0984 30.257 95.9323 30.6794 95.6134 30.37C95.5148 30.2744 95.1221 30.4839 95.0215 30.3878C94.6578 30.0416 94.5302 30.568 94.2378 30.5465C93.73 30.5088 93.2885 30.2557 92.7512 30.2764C91.135 30.3381 89.5143 30.3187 87.896 30.288C87.2863 30.2768 86.6803 30.1178 86.0694 30.0809C85.4427 30.0432 84.8122 30.0726 84.1856 30.0275C85.1076 29.7703 87.2813 29.7993 88.2646 29.9355C88.096 29.885 87.9279 29.8345 87.7593 29.7839C87.809 29.7297 87.8591 29.6754 87.9088 29.6207C87.2333 29.6207 86.5548 29.5835 85.8825 29.6294C84.9183 29.6957 84.0058 29.2281 83.0391 29.395C82.7007 29.0943 82.2106 29.3105 81.9079 29.1382C81.4253 28.864 81.0202 29.3764 80.5261 29.0835C80.1529 28.8623 79.5991 28.946 79.0246 28.8831C78.9799 28.8466 78.8482 28.7393 78.7164 28.632C78.7401 28.5823 78.7637 28.5326 78.7869 28.4829C79.8766 28.5977 80.9664 28.7124 82.1108 28.8334C82.1436 28.8048 82.255 28.7078 82.3664 28.6109C82.2459 28.4904 82.1394 28.3839 82.033 28.2779C81.9232 28.3595 81.8134 28.4411 81.5761 28.618C81.5119 28.3583 81.4522 28.1168 81.3926 27.8753L81.1594 28.0729C81.0567 28.1238 80.9536 28.1752 80.8239 28.2394C80.8003 28.1255 80.7792 28.0223 80.7485 27.8741C80.2979 27.7639 79.8182 27.6471 79.3332 27.5286C79.2359 27.7349 79.163 27.8894 79.0801 28.065C78.6858 27.9213 78.3006 27.7813 77.9286 27.6458C77.8181 27.7113 77.6983 27.7829 77.5314 27.8819C77.304 27.5941 77.0973 27.3319 76.8902 27.0697C76.7664 27.1931 76.713 27.2465 76.6351 27.3244C76.4429 27.2304 76.2408 27.1318 76.0262 27.027C76.1397 26.9168 76.2474 26.8125 76.365 26.6986C76.4383 26.7623 76.5162 26.8303 76.6355 26.9342C76.8281 26.8464 77.0456 26.7466 77.2887 26.6356C77.3508 26.8133 77.3964 26.9446 77.4453 27.0842C77.7617 26.9769 78.0753 26.8705 78.4228 26.7524C78.8627 27.1041 79.4347 26.812 80.005 26.9388C80.126 27.0535 80.2854 27.2047 80.4453 27.3555C80.7589 26.9454 81.2178 27.237 81.6502 27.0896C81.6565 26.9893 81.6643 26.8609 81.678 26.6323C81.5177 26.7574 81.4436 26.8145 81.3089 26.9197C81.1988 26.7557 81.0782 26.5768 80.9507 26.3871C80.7597 26.5896 80.6317 26.7255 80.4847 26.8816C80.2461 26.7594 80.0104 26.6385 79.7623 26.5109C79.433 26.8352 79.1099 26.6505 78.7413 26.4707C78.4311 26.3191 78.0653 26.2815 77.7008 26.1878C77.6263 26.0565 77.5335 25.8938 77.3483 25.5682C77.2133 25.8954 77.1524 26.0429 77.0609 26.2649C76.7312 26.2168 76.3799 26.1659 76.0287 26.1137C75.6741 26.0611 75.2537 26.1079 74.9812 25.9298C74.6154 25.69 74.388 26.2446 74.0153 25.9513C73.7655 25.7546 73.3347 25.7877 72.988 25.7186C72.8294 25.9501 72.7109 26.1236 72.4889 26.4492C72.9085 26.4115 73.1633 26.3883 73.5493 26.3531C73.5278 26.3332 73.6292 26.4273 73.7589 26.547C73.7013 26.6211 73.6446 26.6936 73.5708 26.7893C73.6247 26.8551 73.6872 26.9313 73.7481 27.0055C73.7088 27.0457 73.6628 27.1318 73.6226 27.1289C73.2933 27.1053 72.9657 27.0444 72.6364 27.0361C72.2827 27.0278 71.8432 27.2022 71.593 27.0486C71.2132 26.8154 70.8624 26.9972 70.4834 26.8845C70.3512 26.759 70.1901 26.6054 69.9809 26.4065C69.8144 26.5262 69.6434 26.6493 69.3845 26.8352C70.5256 27.3832 71.7078 27.4333 73.0133 27.7009C72.4082 27.8819 71.9343 27.8467 71.4944 27.7892C71.2327 27.7552 70.9941 27.5531 70.6805 27.5767C70.4316 27.5957 70.0787 27.3986 69.9416 27.5087C69.5924 27.7891 69.4972 27.3542 69.2681 27.3596C68.9674 27.3667 68.6621 27.3903 68.366 27.3538C68.0164 27.3112 67.6772 27.1919 67.3284 27.1409C67.0111 27.0945 66.7096 27.0477 66.3935 26.9508C65.8882 26.7963 65.3009 26.9098 64.7442 27.0854C65.1199 27.1165 65.4951 27.148 66.0373 27.1935C64.9907 27.6508 64.1606 27.0341 63.3057 27.1351C63.1388 26.9077 63.0046 26.6464 62.7966 26.4728C62.6918 26.3854 62.4541 26.4579 62.0391 26.4579C62.4085 26.6389 62.5502 26.7081 62.6939 26.7785C62.6413 26.8249 62.5895 26.9073 62.5456 26.9032C62.083 26.8622 61.6232 26.9926 61.1556 26.7085C60.8109 26.4989 60.3392 26.7317 59.8823 26.5171C59.3542 26.269 58.682 26.3461 58.0847 26.2226C57.4973 26.1009 56.9046 26.0151 56.321 25.8561C55.4673 25.6237 54.5727 25.5429 53.7173 25.3155C52.8641 25.089 51.945 25.178 51.1373 24.7303C50.7305 24.5045 50.2476 24.6358 49.7833 24.4615C48.8016 24.0936 47.7396 23.9429 46.7161 23.6815C46.1698 23.5423 45.6537 23.3071 45.0705 23.286C44.3725 23.2603 43.9157 22.9513 43.6241 22.3834C43.5441 22.547 43.4762 22.687 43.4025 22.8382C43.3188 22.7636 43.2405 22.6941 43.1618 22.6241C43.0856 22.6924 43.0061 22.7636 43.0086 22.7612C42.5919 22.6261 42.2262 22.4058 41.867 22.4161C41.3762 22.4298 41.0846 22.0972 40.4492 21.9705C39.4522 22.1767 38.4544 21.2427 37.2197 21.2373C37.1899 21.0364 37.1584 20.8289 37.0979 20.4247C36.9202 20.7345 36.8142 20.9196 36.7852 20.9702C35.7721 20.8161 34.9901 20.4466 34.2337 20.0055V19.6928C34.0647 19.7764 33.9401 19.8734 33.8021 19.8978C33.6195 19.9301 33.4273 19.9061 33.2061 19.9061C33.0988 19.7822 32.9762 19.6414 32.8362 19.4799H31.8417C31.7837 19.3167 31.7373 19.1854 31.6793 19.0218C31.5671 19.093 31.4611 19.1605 31.2883 19.2703C31.0676 19.0715 30.8311 18.8581 30.6418 18.6875C30.6153 18.439 30.5966 18.2658 30.5631 17.9548C30.3233 18.3143 30.1679 18.5467 30.0039 18.7927C29.3288 18.5264 28.7149 18.1308 27.9598 17.9954C27.2938 17.8761 26.7458 17.3534 26.052 17.1554C25.6693 17.046 25.3595 16.6418 24.8728 16.7428C24.6396 16.3663 24.225 16.3319 23.8617 16.1845C23.4073 16.0006 22.8101 16.1149 22.4924 15.7007C22.1718 15.2836 21.5194 15.5218 21.3053 14.9949C20.8389 14.9423 20.4636 14.6159 20.0428 14.5157C19.5578 14.4005 19.1841 14.2029 18.8234 13.8886C18.7074 13.7875 18.4804 13.814 18.234 13.7689" fill="black"></path><path fill-rule="evenodd" clip-rule="evenodd" d="M118.891 21.8568C118.847 21.9575 118.708 22.1227 118.746 22.2072C119.153 23.0944 118.905 23.9717 118.73 24.8469C118.586 25.5676 118.474 26.3227 118.045 26.9299C117.25 28.0545 116.759 29.44 115.416 30.1143C115.378 30.8305 114.345 30.7224 114.312 31.4439C113.565 31.8063 113.113 32.5154 112.477 33.0079C112.077 33.3173 111.688 33.6371 111.312 33.9747C111.167 34.1043 110.926 34.1259 110.662 34.2211C110.58 34.3897 110.457 34.6391 110.303 34.9534C110.021 35.1328 109.669 35.356 109.265 35.6128C109.255 35.8042 109.24 36.0573 109.226 36.3273C109.096 36.3746 108.965 36.4222 108.835 36.4698C108.619 36.906 109.079 36.7883 109.217 36.935C108.946 37.524 108.465 37.8976 107.898 38.2285C107.536 37.9523 107.169 37.6727 106.767 37.3649V35.8527C106.612 35.6895 106.458 35.5283 106.297 35.3589C106.39 34.644 106.166 33.9109 106.511 33.1898C106.677 32.8435 106.726 32.433 107.042 32.1725C107.244 32.0064 107.166 31.61 107.58 31.5893C107.671 31.5847 107.736 31.1594 107.823 30.9315C107.995 30.4788 108.391 30.1918 108.698 29.853C109.43 29.0453 110.175 28.2322 111.015 27.5446C111.85 26.8633 112.592 26.0589 113.564 25.5432C113.848 25.3924 114.06 25.1075 114.313 24.8941C114.558 24.6879 114.815 24.4944 115.135 24.241C114.736 24.0686 114.334 23.8959 113.875 23.6975C113.818 23.8499 113.773 23.973 113.725 24.1018C112.741 24.0102 111.88 23.4357 110.862 23.2415V22.7374C110.092 22.4976 109.362 22.2702 108.632 22.0428C108.329 21.9434 108.049 22.3957 107.658 22.0486C107.816 21.9749 107.966 21.9044 108.116 21.8344C107.576 21.9339 107.112 21.0127 106.536 21.8146C105.823 20.9795 104.524 21.3747 103.925 20.3839C103.866 20.4369 103.787 20.5082 103.68 20.6055C103.114 20.391 102.544 20.096 101.939 19.9672C101.31 19.8326 101.111 19.172 100.352 19.0067C99.6037 19.1231 98.7545 18.9102 98.0342 18.3096C97.9278 17.9865 97.83 17.6887 97.7253 17.371C97.782 17.2757 97.8491 17.1627 97.9158 17.0496C97.7832 16.9162 97.6499 16.7833 97.4995 16.6329C97.8035 16.4801 98.1013 16.3305 98.4021 16.1794C98.2608 16.0385 98.1279 15.9056 97.9609 15.7386C98.1589 15.6227 98.3495 15.5112 98.598 15.3654C99.0544 15.9192 99.7689 15.5133 100.397 15.7958C101.28 16.193 102.307 16.2593 103.256 16.5252C104.364 16.8354 105.454 17.212 106.554 17.5524C107.725 17.9144 108.893 18.281 110.088 18.5676C111.068 18.8021 111.985 19.2759 112.986 19.4673C113.324 19.8811 113.934 19.4925 114.272 19.9059C115.122 19.8185 115.82 20.4257 116.654 20.4315C116.82 20.4328 116.983 20.5496 117.153 20.5802C117.913 20.7178 118.627 20.9153 118.891 21.8568" fill="black"></path></svg> 