<?xml version="1.0" encoding="UTF-8"?> <svg xmlns="http://www.w3.org/2000/svg" width="44" height="67" viewBox="0 0 44 67" fill="none"><path fill-rule="evenodd" clip-rule="evenodd" d="M37.0271 61.2381C36.7222 60.9353 36.5777 60.792 36.3801 60.5952V60.2672C35.9912 59.8422 35.6109 59.4363 35.2419 59.0209C34.9304 58.6704 34.6504 58.2894 34.3215 57.9572C33.955 57.5873 33.6348 57.1781 33.2463 56.8206C32.8954 56.4984 32.4266 56.2544 32.2087 55.817C31.9564 55.308 31.4018 55.153 31.0837 54.7248C30.7901 54.3292 30.4227 53.9887 30.0884 53.6251C30.0805 53.6329 30.0279 53.6859 29.9621 53.7514C28.8243 52.7987 27.7047 51.8133 26.243 51.1825C26.2285 51.144 26.1788 51.0143 26.1179 50.8549C26.0354 50.9207 25.9601 50.9808 25.8826 51.0429C25.1238 50.6428 24.326 50.2829 23.5825 49.8616C22.6672 49.3426 21.6416 49.044 20.7954 48.3792C20.3704 48.0454 19.8096 47.8308 19.2769 47.7111C18.9505 47.6382 19.0151 47.427 18.8938 47.2563C18.7857 47.323 18.6772 47.3893 18.5322 47.4787C17.9308 47.1614 17.3115 46.8351 16.6737 46.4987C16.7938 46.367 16.8667 46.2875 16.9814 46.1616C16.7859 45.8845 16.7959 45.4384 16.0979 45.3232C16.4401 45.2035 16.6517 45.1294 16.9122 45.0383C16.5892 44.7392 16.4624 44.6216 16.3025 44.4733C16.1754 44.5507 16.0565 44.6236 15.9256 44.7036C15.7504 44.6042 15.5491 44.4907 15.3553 44.3809C15.3698 44.2885 15.3586 44.1738 15.3959 44.1539C15.6742 44.0102 15.9625 43.8851 16.2454 43.7551C16.3435 43.2203 15.8196 43.2688 15.593 43.0426C15.6464 42.9892 15.6999 42.9362 15.7736 42.862C15.7065 42.7291 15.6353 42.5874 15.5603 42.4383C15.8333 42.2482 16.0905 42.0688 16.4558 41.8145C17.3907 41.7441 18.475 41.7495 19.5188 41.5465C20.0581 41.4422 20.6554 41.5279 21.1069 41.3138C21.6677 41.0483 22.2289 41.3022 22.7185 41.1075C23.2586 40.8933 23.8232 41.0342 24.3186 40.8743C24.8624 40.6987 25.4262 40.8126 25.9215 40.6543C27.1008 40.2774 28.3802 40.3317 29.5089 39.775C30.0114 39.9117 30.5134 39.4735 31.0158 39.775C31.536 39.4465 32.1308 39.3637 32.7173 39.2444C33.5453 39.0762 34.3033 38.6405 35.1793 38.6297C35.427 38.6264 35.6722 38.4326 36.0728 38.259C35.0137 37.9525 34.1049 37.6891 32.9932 37.3672C32.9302 37.289 32.7215 37.0284 32.5111 36.7654C32.1818 36.8607 31.9502 36.9278 31.703 36.999C30.6857 36.6064 29.4526 36.5724 28.56 35.727C28.2162 36.1487 27.725 35.8268 27.358 35.9432C26.1535 35.329 24.8649 35.2639 23.4943 34.9197C23.4798 34.9036 23.3535 34.7652 23.2334 34.6335C22.7459 34.4475 22.2298 34.6985 21.7327 34.3829C21.3724 34.1535 20.8252 34.1042 20.3799 34.1518C19.8365 34.2098 19.3092 34.0632 18.912 33.8573C18.4187 33.6017 17.9689 33.7732 17.4652 33.6403C17.3786 33.5458 17.2519 33.4075 17.0763 33.2157C15.9567 33.3197 14.8238 33.101 13.6504 33.0115C13.5402 32.867 13.4305 32.7224 13.2884 32.536H12.1303C12.274 32.3678 12.3407 32.2904 12.4795 32.1288C11.9 32.1848 11.5686 31.8766 11.2601 31.445C11.3201 31.3398 11.3893 31.2184 11.4477 31.1153C10.8794 30.5317 10.2958 29.9323 9.76314 29.3856C9.84888 29.0857 9.91432 28.8583 9.9984 28.5646C10.08 28.5253 10.2333 28.4516 10.3861 28.3778V28.1132C10.268 28.0734 10.138 28.0295 9.94 27.9628C9.89071 27.2959 10.2859 26.854 10.734 26.4481C11.2588 26.359 11.2588 26.359 11.6163 25.7046C11.3727 25.8413 11.2804 25.893 11.1366 25.9734C11.1105 25.8715 11.0803 25.7559 11.0393 25.5952C11.2924 25.5571 11.5003 25.5261 11.7579 25.4871C11.6693 25.3753 11.6109 25.3007 11.5674 25.2456C11.9799 24.6757 12.3933 24.1045 12.8568 23.4646H13.3596C13.2474 23.3325 13.182 23.255 13.0929 23.1502C13.2246 23.1055 13.3489 23.0636 13.5129 23.0081V22.5297C13.6595 22.3831 13.766 22.2771 13.8728 22.1702C14.1185 22.3748 14.5169 22.415 14.577 22.8251C14.9378 22.3218 14.4734 22.1039 14.1777 21.7411C14.4014 21.7216 14.5757 21.7063 14.7588 21.6906C15.0396 21.2262 15.4137 20.8265 15.4323 20.1883C15.4476 19.6556 15.9762 19.393 16.5059 19.1764C16.4198 19.06 16.3676 18.9896 16.2632 18.8496C16.4653 18.8098 16.6447 18.775 16.8733 18.7307C16.8659 18.6772 16.8547 18.5981 16.8224 18.3629C17.0332 18.0663 17.4196 17.6919 17.5957 17.2358C17.8463 16.5864 18.5562 16.3693 18.8018 15.7C19.0172 15.113 19.4198 14.5907 19.8676 14.0983C20.4781 13.4268 20.9288 12.6104 21.4854 11.8015H20.8658C20.8153 11.9092 20.7424 12.0641 20.6425 12.2754C20.4748 12.1701 20.3282 12.0778 20.1525 11.968C19.8655 12.1358 19.542 12.2845 19.2682 12.4974C19.0388 12.6755 18.6353 12.6958 18.6366 13.1137C18.2087 13.001 17.9784 13.3183 17.7274 13.5639C17.652 13.4881 17.599 13.4351 17.5576 13.3937C16.6356 14.2904 15.518 14.8674 14.35 15.3674C14.065 15.6664 13.7801 15.9651 13.4976 16.2608H13.1231C12.6244 16.6174 12.1908 16.9277 11.6975 17.281C11.567 17.0515 11.4742 16.8887 11.3545 16.6787C11.031 16.863 10.727 17.0366 10.4453 17.1973C10.5174 17.491 10.5791 17.7445 10.6408 17.9955C9.96775 18.4441 9.35018 18.8558 8.5603 19.3822C8.66012 18.9444 8.8871 18.8288 9.04657 18.6313C8.60089 18.3575 8.50065 18.8404 8.2571 18.9746C8.14651 18.8947 8.03716 18.8143 7.80231 18.6429C7.74763 18.8541 7.69627 19.0517 7.64491 19.2493C7.58734 19.1933 7.52976 19.1374 7.47219 19.0819C7.5571 19.2265 7.64201 19.371 7.73521 19.5305C7.43533 19.6796 7.18763 19.8026 6.94325 19.9236C6.83473 19.8287 6.75231 19.7567 6.66367 19.6788C6.58953 19.7471 6.51041 19.8192 6.40852 19.9128C6.46609 20.2201 6.52657 20.547 6.58249 20.8448C5.67414 21.3795 4.8097 21.8877 3.94527 22.3964C3.91462 22.3653 3.88355 22.3346 3.85331 22.304C3.91627 22.2166 3.97882 22.1292 4.13414 21.913C3.56379 22.0178 3.09325 22.1043 2.54651 22.205C2.41852 21.7717 2.30047 21.3712 2.12941 20.7897C2.11325 20.7768 1.93722 20.6385 1.71396 20.4629C2.8497 19.7264 3.74314 18.8036 4.6842 17.959C5.98686 16.7901 7.47343 15.8975 8.83491 14.8239C10.2523 13.706 11.8188 12.7757 13.317 11.7588C14.1702 11.1802 15.0061 10.5746 15.8705 10.0126C17.0841 9.22393 18.2886 8.415 19.5528 7.71624C20.1099 7.40849 20.5233 6.91642 21.1649 6.70021C21.7157 6.51464 22.1718 6.04411 22.6659 5.69411C23.928 4.80068 25.2149 3.94535 26.3751 2.90985C27.1302 2.23512 27.9747 1.65938 28.8967 0.948608H30.2458C30.2562 1.27583 30.3833 1.62831 30.0238 1.9866C30.3208 2.01973 30.5983 2.05038 30.8605 2.07938C31.4006 3.0047 31.4938 4.00127 31.3496 5.16311C31.2436 5.2389 31.0315 5.3905 30.6434 5.66885C30.5854 5.69204 30.2976 5.8076 29.9517 5.94595C30.0793 6.30009 30.175 6.566 30.2653 6.8166C29.9654 7.2221 29.6924 7.64914 29.3602 8.02316C29.0773 8.3421 29.096 8.93979 28.3889 8.86151C28.555 9.02843 28.6085 9.08145 28.7075 9.18086C28.1839 9.38216 28.3152 10.2077 27.5986 10.2176C27.575 10.4156 27.5539 10.5933 27.5291 10.8037C27.4359 10.8252 27.3335 10.8488 27.2201 10.8749C26.7093 12.2178 25.7443 13.2781 24.8479 14.4147C24.8479 14.4975 24.8902 14.6363 24.8405 14.7191C24.6392 15.0534 24.4756 15.5343 24.1749 15.6565C23.6861 15.8545 23.7122 16.5851 23.066 16.5362C23.0503 16.8096 23.0358 17.0631 23.0205 17.3348C22.895 17.3808 22.7645 17.4284 22.605 17.4868C22.598 17.619 22.5905 17.7639 22.5781 17.9876C22.3101 18.2419 21.9986 18.5377 21.63 18.8877C21.5103 18.6342 21.4399 18.4846 21.3425 18.2771C21.1528 18.5609 20.9818 18.8168 20.8107 19.0732C20.8807 19.1859 20.9507 19.2977 21.063 19.4762C20.8832 19.5835 20.6889 19.6527 20.5663 19.7873C20.4591 19.9049 20.4325 20.0963 20.3712 20.2525C20.4371 20.3481 20.517 20.4637 20.6525 20.6604C20.4649 20.771 20.3041 20.8651 20.0341 21.0241C19.9641 21.0042 19.7338 20.9392 19.472 20.8651V21.3228C19.0872 21.5282 18.8167 21.6686 18.7111 22.1652C18.5318 23.0094 18.0045 23.7491 17.6031 24.5216C17.5418 24.6401 17.3207 24.6753 17.1749 24.7478C17.2515 24.8401 17.3149 24.9168 17.3086 24.9089C16.9922 25.2788 16.7453 25.6661 16.4057 25.9374C16.0607 26.2136 15.6237 26.3756 15.1266 26.6407C15.026 26.8875 15.2637 26.9522 15.8759 26.8275C15.4808 27.1443 15.3482 27.2508 15.1871 27.3796C15.0454 27.3088 14.8996 27.2359 14.6221 27.0971C14.7439 27.4099 14.8255 27.6199 14.9179 27.8568C14.8624 27.9305 14.799 28.0162 14.695 28.1554C14.8007 28.254 14.9344 28.4731 15.0396 28.4603C15.5541 28.3973 15.9422 28.6438 16.3195 28.8463C17.1463 28.6293 17.8711 29.0857 18.6386 29.1719C19.4836 29.2659 20.3377 29.4051 21.1446 29.661C21.9175 29.9054 22.7011 30.1767 23.4856 30.2488C24.3186 30.325 25.0803 30.6249 25.8896 30.7578C26.7147 30.8933 27.5278 31.148 28.3193 31.4276C29.0819 31.6977 29.8859 31.7768 30.6525 32.0609C31.4317 32.3496 32.2596 32.5874 33.0769 32.7394C33.887 32.8901 34.6028 33.2625 35.3864 33.4564C36.1672 33.6494 36.9401 33.8801 37.7039 34.1328C38.4967 34.3949 39.2721 34.7097 40.0595 34.9893C40.8162 35.2581 41.5788 35.5116 42.403 35.7937C42.6022 35.9929 42.8657 36.2559 43.1254 36.5157C43.0612 36.5877 42.9887 36.6701 42.9228 36.7439C42.888 37.2272 43.3035 37.2227 43.5288 37.3494C43.6183 37.8349 43.7024 38.2893 43.7931 38.7805C43.7546 38.8219 43.6792 38.9035 43.6092 38.9789C44.1369 39.5696 43.7351 40.0732 43.4008 40.5152C43.0628 40.9613 42.6155 41.3241 42.1885 41.7512C41.1004 41.9036 40.156 42.7858 38.9146 42.452C38.8802 42.6189 38.8591 42.722 38.8239 42.8948C38.1562 43.0045 37.45 43.1201 36.6506 43.251C36.6427 43.2771 36.6042 43.4055 36.5756 43.5007C35.9485 43.6747 35.3434 43.859 34.7291 44.0048C34.4876 44.062 34.1683 44.1312 33.9844 44.0235C33.5167 43.7501 33.1266 43.7522 32.6606 44.0235C32.4464 44.1481 32.1308 44.0968 31.8703 44.2794H32.7563C32.6921 44.4153 32.6631 44.5143 32.6432 44.5122C32.0517 44.4584 31.5062 44.6833 30.9752 44.8606C30.5279 45.0101 30.025 45.0892 29.6999 44.9065C29.2782 44.6696 28.9146 44.8481 28.3591 44.6613C28.5264 44.8937 28.5749 44.9612 28.6242 45.0296C27.9544 45.4599 27.6749 45.5796 27.1488 45.3199C26.728 45.112 26.3776 45.2739 25.9849 45.3688C26.2848 45.4028 26.5847 45.4367 27.1004 45.4951C26.3697 45.6504 25.8565 45.7594 25.1325 45.913C26.9181 46.7183 28.2568 47.8416 29.7011 48.8054C31.1724 49.7871 31.8566 50.4109 32.7629 51.5636C32.9278 51.7728 33.2239 51.8746 33.407 52.0743C33.7234 52.4206 33.9711 52.8327 34.3004 53.1649C34.6028 53.4697 35.0249 53.6615 35.3073 53.9804C36.0541 54.825 36.6572 55.7901 37.4645 56.5895C37.5436 56.6678 37.4972 56.8736 37.5101 57.0368C37.6699 57.1358 37.9015 57.2038 38.0092 57.3583C38.5356 58.1133 39.0836 58.8618 39.5156 59.6707C39.859 60.3136 40.2541 60.9278 40.552 61.61C40.8464 62.2839 40.8928 62.9781 41.0825 63.6467C41.2785 64.3384 41.0892 65.0823 40.7533 65.8046C39.9563 65.1175 39.2054 65.9877 38.401 65.9397C38.7796 65.9691 39.1586 65.9985 39.5376 66.0279C39.5338 66.088 39.5297 66.1484 39.526 66.2085H38.7783C38.5522 66.2085 38.326 66.2048 38.1003 66.2093C37.8472 66.2151 37.5676 66.1397 37.3982 66.423C37.2582 66.09 36.9861 66.481 36.8449 66.3332C36.5909 66.0685 36.4704 66.6289 36.2045 66.4027C36.0575 66.2781 35.816 66.2408 35.6109 66.2159C35.3575 66.1853 35.0978 66.2085 34.8646 66.2085C34.7987 66.0204 34.7527 65.8896 34.6802 65.6825C34.6115 65.8817 34.568 66.0076 34.5079 66.1832C34.3882 66.1936 34.247 66.206 34.0159 66.2259C33.7988 66.0093 33.5416 65.7525 33.3105 65.5217C33.1104 65.5325 32.9659 65.5404 32.8337 65.5474C32.7753 65.7073 32.7277 65.8374 32.6622 66.0175C32.5707 65.8266 32.5007 65.6804 32.4303 65.5342H32.1826C32.1143 65.6791 32.0409 65.8341 31.9606 66.0051C31.3107 65.7939 30.7051 65.4915 29.9952 65.5085C29.6738 65.5159 29.3466 65.2811 28.9866 65.1423C28.9924 65.1382 28.9394 65.1792 28.8582 65.2417C28.2895 65.0897 27.7001 64.9323 26.974 64.7381C27.2188 64.5388 27.3824 64.4059 27.5344 64.282C27.1741 64.2315 26.9355 64.2593 26.5648 64.4013C26.5362 64.3798 26.5051 64.3612 26.4786 64.3367C26.424 64.2849 26.3718 64.2307 26.3096 64.1681C26.2591 64.2232 26.2102 64.2791 26.1585 64.3322C26.1332 64.3578 26.1025 64.3786 26.0719 64.403C25.7745 64.3061 25.475 64.2083 25.0815 64.0799V63.0867C25.0306 63.0618 24.9796 63.0374 24.9283 63.0129C24.8355 63.155 24.7431 63.2975 24.611 63.4996C24.6557 63.5812 24.7353 63.7254 24.886 64C24.3633 63.8707 23.9367 63.7655 23.5225 63.6628C23.4922 63.5261 23.4699 63.4234 23.4463 63.3165C22.8767 63.7026 22.458 63.3903 22.0322 63.061C21.8963 62.9562 21.7311 62.8758 21.567 62.8245C21.1992 62.7089 20.8235 62.6186 20.3746 62.4981C20.3708 62.4848 20.3414 62.3846 20.2801 62.1775C20.0705 62.1916 19.8191 62.2085 19.4194 62.2359C19.4836 62.2897 19.419 62.199 19.3337 62.1692C18.6428 61.9269 17.9241 61.767 17.2523 61.4671C17.1889 61.439 17.1053 61.4617 17.0353 61.4443C16.5796 61.33 16.375 60.7439 15.8403 60.7899C15.3681 60.8305 15.0732 60.4569 14.6731 60.3289C14.2427 60.1914 13.8252 60.0137 13.4052 59.8464C13.2756 59.795 13.1621 59.6935 13.0299 59.6641C12.8866 59.6318 12.7305 59.6567 12.5114 59.6567C12.4062 59.5175 12.2707 59.3394 12.1709 59.2072H11.4046C10.9519 58.7322 10.5017 58.2442 9.75195 58.2981C9.68527 58.303 9.58959 58.2906 9.55148 58.2475C8.90698 57.5173 7.89178 57.5173 7.12302 56.9979C6.3816 56.4971 5.47698 56.2449 4.68793 55.805C3.64249 55.2226 2.63929 54.5653 1.62118 53.9345C1.52757 53.8769 1.43479 53.7912 1.38343 53.6959C0.90213 52.8058 0.430355 51.9103 0 51.1009C0.107692 50.5455 0.196331 50.089 0.310237 49.5021C0.491657 49.3907 0.789882 49.208 1.07941 49.0303C1.68414 49.2639 2.28142 49.4611 2.84846 49.7241C3.4184 49.9884 3.9842 50.28 4.50609 50.6275C5.64929 51.3875 6.93331 51.8722 8.11959 52.5419C8.82166 52.9383 9.64343 53.1255 10.2254 53.7327C11.5533 54.0836 12.728 54.7828 13.9677 55.3357C14.5037 55.5747 15.0098 55.897 15.5922 56.0519C16.129 56.1939 16.643 56.4205 17.1678 56.6077C18.808 57.1942 20.445 57.7878 22.0893 58.3619C22.9455 58.6609 23.8095 58.9413 24.6789 59.2002C25.5546 59.4607 26.4728 59.6335 27.3182 59.9271C28.7998 60.4416 30.358 60.5281 31.8446 60.9829C32.6295 61.2232 33.5043 61.1917 34.341 61.2298C35.1562 61.2675 35.9746 61.2381 37.0271 61.2381" fill="black"></path></svg> 