<?xml version="1.0" encoding="UTF-8"?> <svg xmlns="http://www.w3.org/2000/svg" width="190" height="200" viewBox="0 0 190 200" fill="none"><path fill-rule="evenodd" clip-rule="evenodd" d="M45.1192 157.724C44.8812 157.531 44.6422 157.337 44.4042 157.143C42.9372 159.419 41.4702 161.695 40.0032 163.971C40.1802 164.085 40.3572 164.2 40.5342 164.314L45.1192 157.724ZM163.98 26.0426C164.194 26.2516 164.407 26.4596 164.62 26.6686C168.337 23.0456 172.053 19.4226 175.768 15.7996C175.53 15.5566 175.291 15.3136 175.052 15.0716C171.361 18.7286 167.671 22.3856 163.98 26.0426V26.0426ZM95.1322 95.5856C98.9832 91.8736 102.834 88.1606 106.685 84.4496L106.066 83.8296C104.63 85.1926 103.177 86.5366 101.765 87.9236C100.282 89.3816 98.7732 90.8236 97.4032 92.3836C96.5432 93.3616 95.9162 94.5456 95.1852 95.6376C92.8232 98.1846 90.4602 100.733 88.0972 103.28C87.3172 103.83 86.4032 104.261 85.7772 104.951C81.0812 110.124 76.3412 115.263 71.8132 120.581C67.3292 125.849 62.9952 131.25 58.7612 136.721C56.6722 139.419 54.9572 142.407 53.0732 145.264C53.2862 145.407 53.4982 145.55 53.7112 145.693C57.0992 141.166 60.3202 136.501 63.9132 132.143C70.6162 124.016 77.5472 116.077 84.3532 108.033C85.6562 106.493 86.8192 104.834 88.0462 103.23C90.4082 100.682 92.7702 98.1336 95.1322 95.5856V95.5856ZM41.2302 125.894C36.8202 130.689 32.3872 135.464 28.0042 140.285C22.8072 146.002 17.6402 151.747 12.4942 157.51C11.7792 158.311 11.1232 159.222 10.6682 160.189C8.8982 163.959 5.4982 163.609 2.2952 163.46C0.416204 163.373 -0.714796 160.453 0.511204 158.741C3.8932 154.019 7.1822 149.195 10.9562 144.797C22.6652 131.151 34.5852 117.687 46.4122 104.144C47.4272 102.982 48.3132 101.705 49.3572 100.573C50.4292 99.4086 51.3222 97.3486 53.2632 99.9096C53.7872 100.601 55.4812 100.28 56.4562 100.779C59.8522 102.517 60.5822 103.887 59.5052 107.488C58.0702 112.287 56.3212 116.994 54.6762 121.729C53.4752 125.185 52.3002 128.653 50.9782 132.063C49.3062 136.375 47.3452 140.579 45.8082 144.936C44.9022 147.506 44.5762 150.28 43.9892 152.962C44.2042 153.188 44.4202 153.415 44.6352 153.641C44.8302 153.103 44.9072 152.474 45.2412 152.042C49.5592 146.463 53.9392 140.93 58.2542 135.347C62.2002 130.242 65.8222 124.862 70.0502 120.006C79.1922 109.506 88.2722 98.9116 98.0242 88.9926C116.779 69.9146 136.02 51.3156 154.987 32.4446C164.937 22.5446 174.732 12.4886 184.608 2.51361C185.084 2.03261 185.663 1.65361 186.54 0.948608C186.48 2.10761 186.445 2.78761 186.41 3.46661C186.578 3.56461 186.809 3.76361 186.864 3.72361C188.112 2.79861 189.378 3.46461 189.671 4.43061C190.015 5.56161 189.938 7.25261 189.292 8.17461C187.18 11.1936 184.792 14.0316 182.383 16.8286C180.274 19.2786 178.067 21.6536 175.774 23.9306C169.942 29.7206 164.707 36.0826 158.601 41.6186C156.931 43.1326 155.791 45.2326 154.399 47.0566C154.014 47.5606 153.636 48.0786 153.188 48.5226C143.42 58.2206 133.666 67.9326 123.856 77.5886C119.415 81.9596 114.818 86.1716 110.367 90.5336C107.277 93.5616 104.39 96.7996 101.253 99.7736C100.311 100.667 99.8132 103.021 97.5772 101.644C97.5242 101.612 96.9662 102.23 96.7822 102.612C96.1762 103.875 95.5502 105.14 95.0832 106.457C94.1722 109.024 91.9612 110.235 90.0002 111.808C88.4132 113.082 87.2962 114.926 85.8632 116.414C84.4122 117.922 81.9402 119.083 81.5192 120.792C80.9452 123.123 78.9772 123.827 77.9762 125.519C76.0742 128.737 73.9562 131.841 71.7422 134.856C68.8282 138.823 66.2662 143.307 62.5562 146.351C59.4412 148.908 57.9692 152.354 55.4812 155.175C52.1962 158.9 49.4892 163.161 46.7632 167.341C44.7692 170.396 43.6982 174.265 41.1802 176.698C39.1872 178.623 38.9112 181.124 37.3662 182.888C34.1912 186.513 32.4402 190.895 30.3692 195.06C28.7552 198.311 26.5562 199.712 23.2442 199.155C21.9822 198.943 20.0702 200.692 19.1892 197.387C18.5612 195.029 17.2902 195.345 18.1652 192.868C25.8472 171.143 33.5432 149.423 41.2312 127.7C41.4052 127.21 41.5332 126.703 41.6822 126.204C41.5322 126.101 41.3812 125.997 41.2302 125.894V125.894Z" fill="black"></path><path fill-rule="evenodd" clip-rule="evenodd" d="M149.537 4.03174C149.867 4.72274 149.972 5.43774 150.37 5.69374C152.737 7.20774 152.84 8.11174 150.529 9.96774C145.579 13.9427 140.493 17.7527 135.627 21.8267C127.66 28.4997 119.748 35.2427 111.963 42.1267C107.389 46.1717 102.91 50.3617 98.7363 54.8127C92.6163 61.3387 86.7573 68.1127 80.8863 74.8667C76.9043 79.4487 73.0733 84.1627 69.2143 88.8507C67.8923 90.4577 66.2103 89.7437 65.4063 88.8537C64.6843 88.0547 64.3733 85.9937 64.9063 85.1047C67.3733 80.9897 70.0853 77.0067 72.9133 73.1247C92.3823 46.3937 117.551 25.8277 144.458 7.15674C146.081 6.03074 147.827 5.07774 149.537 4.03174" fill="black"></path></svg> 