<?xml version="1.0" encoding="UTF-8"?> <svg xmlns="http://www.w3.org/2000/svg" width="42" height="63" viewBox="0 0 42 63" fill="none"><path fill-rule="evenodd" clip-rule="evenodd" d="M16.3568 13.4564C16.3433 13.3586 16.3297 13.2614 16.3162 13.1636C13.8503 13.4443 11.385 13.7251 8.91914 14.0058C8.9362 14.1284 8.95325 14.2504 8.96973 14.3723C11.4321 14.0668 13.8944 13.7619 16.3568 13.4564M2.91267 31.5159C1.38855 30.7823 0.726196 29.8368 0.413843 28.5483C-1.31498 21.3924 2.31149 12.5785 12.388 12.2827C17.1709 12.142 20.9703 10.4164 23.2433 5.81022C24.035 4.2066 25.0321 2.68207 26.1238 1.27528C26.6209 0.634672 27.5568 0.102747 28.3297 0.0471998C28.6985 0.0206338 29.428 1.18471 29.5062 1.86878C29.6356 3.00509 29.7021 4.3678 29.2133 5.31995C27.7733 8.12448 26.2233 10.9091 24.3821 13.4449C22.6774 15.793 20.2074 16.9178 17.3062 17.623C14.3974 18.3295 11.4391 17.7402 8.5462 18.7859C5.85443 19.7586 2.72149 24.5248 2.90031 27.5455C2.97267 28.7669 2.91267 29.9968 2.91267 31.5159" fill="black"></path><path fill-rule="evenodd" clip-rule="evenodd" d="M10.2547 39.928C10.1809 38.9568 9.85477 37.9255 10.0755 37.0234C11.1424 32.657 17.2387 29.3218 21.33 31.2626C26.9023 33.9055 30.976 31.8488 34.9409 28.2127C36.2836 26.9815 37.8453 25.9416 39.4374 25.0372C39.8865 24.7818 41.2193 25.1214 41.409 25.5249C41.823 26.4022 42.2575 27.9799 41.813 28.422C39.1868 31.032 36.5512 33.7608 33.4541 35.7489C30.1123 37.895 26.2453 38.6282 22.3261 36.5917C20.5829 35.6861 18.8268 34.7586 16.6526 35.3097C14.3074 35.904 12.5964 37.1768 11.4153 39.2162C11.266 39.475 11.0651 39.705 10.8883 39.9488C10.6769 39.9419 10.4655 39.935 10.2547 39.928" fill="black"></path><path fill-rule="evenodd" clip-rule="evenodd" d="M36.8496 58.635C36.8314 58.5164 36.8133 58.3977 36.7945 58.2796H25.4727C25.4709 58.3977 25.4698 58.5164 25.468 58.635H36.8496ZM10 53.754C10.0516 52.606 10.0879 51.7981 10.1242 50.9903C11.3768 52.8883 12.6042 51.1808 13.7214 51.1101H11.9164C11.491 50.2876 13.9136 50.6401 12.1085 49.4359C14.3893 49.049 16.4556 48.3206 18.1084 50.0503C18.8255 50.8014 20.3112 51.2399 20.2269 53.0742C20.2907 53.1221 20.8766 53.3595 21.1484 53.7926C23.3355 57.2847 26.747 57.5677 30.3535 57.3999C32.3168 57.3081 34.3005 57.0217 36.2368 57.2122C37.7085 57.3572 39.1702 58.0043 40.5423 58.6327C41.8599 59.2366 41.9695 60.6751 41.9999 61.8869C42.0087 62.2458 40.8856 62.9865 40.3238 62.9473C36.6627 62.6942 33.0134 62.2745 29.3318 62.0284C30.145 61.974 30.957 61.9202 31.7702 61.8659C31.7795 61.7794 31.7877 61.6923 31.7971 61.6063C31.4274 61.5496 31.0384 61.5485 30.6933 61.4251C30.0758 61.2053 29.4613 60.9569 28.8912 60.6383C28.2632 60.2876 27.6873 59.8439 26.9514 59.7428C27.225 60.2958 27.498 60.8493 27.6463 61.1486C26.9016 61.3597 26.4898 61.5379 26.0662 61.5777C25.6449 61.6169 25.0849 61.6736 24.8036 61.4497C23.5546 60.4559 22.053 59.9024 21.2111 58.23C20.1607 56.1413 18.4816 54.3643 17.0398 52.4785C16.8394 52.2161 16.434 51.9285 16.1399 51.9454C14.5199 52.0384 12.8953 52.1652 11.2942 52.4166C10.9251 52.4744 10.6404 53.0678 10 53.754V53.754Z" fill="black"></path></svg> 