<?xml version="1.0" encoding="UTF-8"?> <svg xmlns="http://www.w3.org/2000/svg" fill="none" viewBox="0 0 33 38"><path fill="currentColor" fill-rule="evenodd" d="M18.784 2.424c.246-.348.115-.7.17-1.025.032-.19.147-.505.254-.442.76.447 1.785-.274 2.434.568 2.634 3.416 6.183 5.921 9.059 9.096.203.223.42.433.624.654 1.183 1.276 1.182 1.276-.265 2.102-1.49.85-1.635.854-3.05-.278-2.937-2.354-5.863-4.724-8.663-7.241-.874-.785-1.666-1.654-1.86-2.884a3.55 3.55 0 0 1-.03-1.005c.038-.287.134-.653.487-.68.367-.03.307.35.383.582.07.213.125.435.457.553M7.378 15.98c1.473.094 2.727.771 3.957 1.514 2.67 1.612 5.064 3.64 7.788 5.175.526.297.521.57.039 1.02-1.403 1.31-2.765.717-4.084-.03-2.648-1.5-5.254-3.073-7.884-4.602-.682-.397-1.39-.75-2.093-1.107-.406-.208-.468-.56-.438-.952.032-.406.288-.51.668-.606.677-.172 1.33-.438 2.047-.412M5.812 37.281c-1.542 0-3.084.007-4.626-.004-.491-.004-1.01-.007-1.163-.643-.14-.58.385-.626.682-.875.572-.48 1.24-.701 1.953-.81 3.1-.48 6.2-.685 9.311-.073.337.066.693.058.844.435.17.427-.247.543-.424.804-.827 1.22-2.042 1.22-3.307 1.181-1.089-.033-2.18-.006-3.27-.006v-.009Z" clip-rule="evenodd"></path></svg> 