<?xml version="1.0" encoding="UTF-8"?> <svg xmlns="http://www.w3.org/2000/svg" xmlns:xlink="http://www.w3.org/1999/xlink" version="1.1" id="Layer_1" x="0px" y="0px" viewBox="0 0 900 300" style="enable-background:new 0 0 900 300;" xml:space="preserve"> <style type="text/css"> .st0{fill:none;} .st1{fill:#283550;} .st2{fill:#1C2028;} .st3{opacity:0.2;fill:#23233A;enable-background:new ;} .st4{fill:#F7F9FE;} </style> <g id="Rectangle_36"> <rect x="212.7" y="108.7" class="st0" width="850.3" height="175.5"></rect> </g> <g> <path class="st1" d="M254.8,168.6c-13.1,0-25.8-12.5-25.8-29.6c0-17.1,12.7-29.6,25.8-29.6c11.6,0,18.7,7.5,21.4,17h12.6 c-3.6-15.1-16.4-27.7-34-27.7c-20.1,0-37.7,17.6-37.7,40.2c0,22.6,17.6,40.2,37.7,40.2c18.1,0,30.9-12.6,34.6-27.7h-12.6 C274.2,160.9,267,168.6,254.8,168.6z"></path> <path class="st1" d="M324.6,121.4c-15.1,0-27,11.9-27,28.9c0,17,11.9,28.9,27,28.9c15.1,0,27-11.9,27-28.9 C351.7,133.4,339.7,121.4,324.6,121.4z M324.6,168.6c-8.2,0-15.7-7.5-15.7-18.2c0-10.7,7.5-18.2,15.7-18.2 c8.2,0,15.7,7.5,15.7,18.2C340.4,161.1,332.8,168.6,324.6,168.6z"></path> <path class="st1" d="M390.7,121.4c-5.7,0-9.8,1.6-12.5,3.1c-1.5,0.9-2.8,2-3.9,3.1l-2.5-5.7h-8.2v56.6h11.3V146 c0-7.4,6.2-13.8,13.8-13.8c7,0,13.2,6.4,13.2,13.8v32.7h11.3V146C413.3,131.5,403.2,121.4,390.7,121.4z"></path> <polygon class="st1" points="449.1,162.9 433.4,122.1 421.5,122.1 444.1,178.7 454.2,178.7 476.8,122.1 464.9,122.1 "></polygon> <path class="st1" d="M508.9,121.4c-14.6,0-26.4,11.9-26.4,28.9c0,17,11.9,28.9,27,28.9c13.2,0,20.9-7.5,24.5-17h-11.9 c-1.9,2.5-5.7,6.3-12.6,6.3c-8.2,0-14.5-6.2-15.1-13.2h40.2l0.3-1.5c0.1-0.9,0.4-2.1,0.4-3.5C535.3,133.4,523.5,121.4,508.9,121.4z M494.4,146c1.4-8.2,6.9-13.8,14.5-13.8c8.9,0,14.3,5.7,15.7,13.8H494.4z"></path> <path class="st1" d="M572.4,121.4c-4.9,0-8.4,1.6-10.8,3.1c-1.4,0.9-2.6,2-3.6,3.1l-2.5-5.7h-8.2v56.6h11.3v-32.1 c0-7.4,6.2-13.8,13.8-13.8c0.9,0,1.8,0.3,2.6,0.4l1.1,0.3v-11.3l-1-0.3C574.5,121.7,573.8,121.4,572.4,121.4z"></path> <path class="st1" d="M602.6,107h-9.4v7.5c0,4.4-3.1,7.5-7.5,7.5h-4.4v10.7h10.1v27c0,11.9,7.5,19.5,17.6,19.5 c1.8,0,3.3-0.3,4.5-0.6c0.6-0.1,1.3-0.4,1.8-0.6V168l-1.1,0.4c-0.9,0.1-1.8,0.3-2.6,0.3c-5,0-8.8-3.8-8.8-8.8v-27h12.6v-10.7h-12.6 V107z"></path> <path class="st1" d="M659.2,99.4h-28.9v79.2h11.9v-28.9h17c13.7,0,25.2-11.4,25.2-25.2C684.4,110.9,672.9,99.4,659.2,99.4z M659.2,138.4h-17v-27.7h17c7,0,13.2,6.4,13.2,13.8C672.4,132.3,666.2,138.4,659.2,138.4z"></path> <path class="st1" d="M721.5,121.4c-4.9,0-8.4,1.6-10.8,3.1c-1.4,0.9-2.6,2-3.6,3.1l-2.5-5.7h-8.2v56.6h11.3v-32.1 c0-7.4,6.2-13.8,13.8-13.8c0.9,0,1.8,0.3,2.6,0.4l1.1,0.3v-11.3l-1-0.3C723.6,121.7,722.8,121.4,721.5,121.4z"></path> <path class="st1" d="M758.6,121.4c-14.6,0-26.4,11.9-26.4,28.9c0,17,11.9,28.9,27,28.9c13.2,0,20.9-7.5,24.5-17h-11.9 c-1.9,2.5-5.7,6.3-12.6,6.3c-8.2,0-14.5-6.2-15.1-13.2h40.2l0.3-1.5c0.1-0.9,0.4-2.1,0.4-3.5C785,133.4,773.2,121.4,758.6,121.4z M744.1,146c1.4-8.2,6.9-13.8,14.5-13.8c8.9,0,14.3,5.7,15.7,13.8H744.1z"></path> <path class="st1" d="M805.7,138.4c0-3.1,3.1-6.3,8.8-6.3c5.7,0,8.8,3,9.4,6.9h11.3c-0.6-10.7-7.5-17.6-20.8-17.6 c-11.9,0-19.5,7.5-19.5,17c0,20,30.2,13.2,30.2,23.3c0,3.9-3,6.9-10.1,6.9c-6.4,0-9.4-3.1-10.1-8.2h-11.3 c0.6,12.1,7.4,18.9,21.4,18.9c13.2,0,20.8-7.5,20.8-17.6C835.9,141.7,805.7,148.5,805.7,138.4z"></path> <path class="st1" d="M856.7,138.4c0-3.1,3.1-6.3,8.8-6.3c5.7,0,8.8,3,9.4,6.9h11.3c-0.6-10.7-7.5-17.6-20.8-17.6 c-11.9,0-19.5,7.5-19.5,17c0,20,30.2,13.2,30.2,23.3c0,3.9-3,6.9-10.1,6.9c-6.4,0-9.4-3.1-10.1-8.2h-11.3 c0.6,12.1,7.4,18.9,21.4,18.9c13.2,0,20.8-7.5,20.8-17.6C886.9,141.7,856.7,148.5,856.7,138.4z"></path> </g> <path id="Path_48" class="st2" d="M171.4,132.6c-0.1-0.4-0.1-0.8-0.2-1.1c-4.6-25.7-21.4-47.4-45.2-58.2c-6-2.8-12.3-4.7-18.8-5.8 c-2.7-0.4-5.4-0.3-8.1-0.7H87.2c-0.2,0.2-0.6,0.1-0.8,0.1c-5.2,0-10.3,0.8-15.3,2.2c-3.4,1.1-6.8,2.3-10.1,3.7 c-10.4,4.6-19.6,11.4-27.2,19.9c-7,7.8-12.3,17-15.7,26.9c-1.6,4.3-2.7,8.7-3.1,13.3c-0.1,2.3-0.2,4.7-0.5,7.1v11.1 c0.3,0.3,0.1,0.6,0.1,1c0,3.4,0.4,6.8,0.9,10.2c1,5,2.6,9.8,4.6,14.4c7.8,18.2,22.2,32.8,40.2,41c5.9,2.8,12.2,4.7,18.7,5.8 c0.6,0.1,1.1,0.1,1.6,0.2c6.6,0.6,13.2,0.8,19.9,0.4c2.1,0,4.2-0.2,6.3-0.4c32.6-5.7,58.2-31,64.2-63.6c0.5-3.3,0.7-6.7,0.7-10 C172.2,144.2,172.1,138.4,171.4,132.6z"></path> <path id="Path_49" class="st3" d="M88.1,207c-11.7-0.9-22.9-5.5-31.7-13.2c-2.7-2.2-4-1.9-6.1,0.4c-2.1,2-4.3,4-6.5,5.8 c-0.6-2.7-1.1-5.5-1.6-8.3c-2-11.6-4-23.1-6-34.7c-0.3-1.5,0.5-1.1,1.3-0.9c13.7,3.7,27.3,7.3,40.9,11c0.9,0.2,1.2,0.4,0.3,1.1 c-1.9,1.9-4,3.8-6.1,5.5c-3.9,2.6-2.5,4,0.7,5.9c19.2,11.8,40.2,4.5,47.4-16.7c0.4-1.2,1-0.8,1.7-0.7c5.8,1.5,11.6,3,17.4,4.4 c1.8,0.4,2.1,1,1.6,2.7C133.9,192.5,112.2,207.8,88.1,207z"></path> <path id="Path_50" class="st3" d="M90.1,96.4c11.2,0.9,21.9,5.3,30.4,12.6c3.3,2.7,5.1,2.4,7.7-0.4c1.8-1.8,3.8-3.6,5.8-5.2 c0.5,2.5,1,5,1.5,7.6c2.1,11.8,4.1,23.6,6.2,35.5c0.2,1.1-0.1,1.1-1,0.8c-13.8-3.7-27.5-7.4-41.3-11.1c-0.9-0.2-1-0.4-0.3-1.1 c1.7-1.7,3.4-3.3,5.3-4.7c5.2-3.3,3.2-5.1-0.9-7.4c-19.3-10.7-38.9-3.5-46.3,17.4c-0.3,0.4-0.9,0.7-1.4,0.6c-5.5-1.3-10.9-3-16.4-4 c-3.3-0.6-3.4-1.8-2.4-4.6C43.9,111.2,64.3,96.3,90.1,96.4z"></path> <path id="Path_52" class="st4" d="M92.2,202.7c-11.7-0.9-22.9-5.5-31.7-13.2c-2.7-2.2-4-1.9-6.1,0.4c-2.1,2-4.3,4-6.5,5.8 c-0.6-2.7-1.1-5.5-1.6-8.3c-2-11.6-4-23.1-6-34.7c-0.3-1.5,0.5-1.1,1.3-0.9c13.7,3.7,27.3,7.3,40.9,11c0.9,0.2,1.2,0.4,0.3,1.1 c-1.9,1.9-4,3.8-6.1,5.5c-3.9,2.6-2.5,4,0.7,5.9c19.2,11.8,40.2,4.5,47.4-16.7c0.4-1.2,1-0.8,1.7-0.7c5.8,1.5,11.6,3,17.4,4.4 c1.8,0.4,2.1,1,1.6,2.7C138,188.2,116.3,203.5,92.2,202.7z"></path> <path id="Path_53" class="st4" d="M94.2,92.3c11.2,0.9,21.9,5.3,30.4,12.6c3.3,2.7,5.1,2.5,7.7-0.4c1.8-1.8,3.8-3.6,5.8-5.2 c0.5,2.5,1,5,1.5,7.6c2.1,11.8,4.1,23.6,6.2,35.5c0.2,1.1-0.1,1.1-1,0.8c-13.8-3.7-27.5-7.4-41.3-11.1c-0.9-0.2-1-0.4-0.3-1.1 c1.7-1.7,3.4-3.3,5.3-4.7c5.2-3.3,3.2-5.1-0.9-7.4c-19.3-10.7-38.9-3.5-46.3,17.4c-0.3,0.4-0.9,0.7-1.4,0.6c-5.5-1.3-10.9-3-16.4-4 c-3.3-0.6-3.4-1.8-2.4-4.6C48,107.1,68.4,92.2,94.2,92.3z"></path> </svg> 