<?xml version="1.0" encoding="UTF-8"?> <svg xmlns="http://www.w3.org/2000/svg" xml:space="preserve" viewBox="0 0 244 217"> <path fill="currentColor" d="M110.3 85.6c2.7-8.4 4.9-16.4 7.9-24.1 7.7-19.9 19.4-36.8 38.3-47.8 18.3-10.6 37.4-12.6 57.1-4.6 14.3 5.8 21.9 16.9 23.4 32.2 1.7 17.6-3.1 34-9.6 50.1-11 27.2-26.8 51.3-47.2 72.4-12.7 13.1-24.1 27.1-32.8 43.3-3.9 7.2-6.6 8-14.4 5.1-14.3-5.4-27.1-13.6-39-23-25.2-19.7-48-41.8-68-66.7-11.7-14.6-20.5-30.9-22.3-50-1.8-18 3.4-33.8 16-46.7 13-13.3 30.9-15.7 47.8-7.1C80 25 89.4 34.7 95.3 47.1c5.1 10.8 8.9 22.2 13.2 33.4.7 1.5 1.1 3.1 1.8 5.1z"></path> </svg> 