<?xml version="1.0" encoding="UTF-8"?> <svg xmlns="http://www.w3.org/2000/svg" xml:space="preserve" viewBox="0 0 206 217"> <path fill="currentColor" d="M92 95.6c4.5-6.6 8.7-13 13.1-19.2 13.9-19.7 28.7-38.6 46.7-54.8 7.5-6.7 15.4-12.9 24.9-16.6 2.1-.8 4.4-1.4 6.7-1.8 8-1.4 14 2.3 16.6 10 2.5 7.6 2.1 15.3.7 23.1-2.8 15.9-9.1 30.5-16.2 44.8-12.8 25.7-28.4 49.7-45 73-12.1 17-24.8 33.5-38.7 49.1-2.5 2.9-5.4 5.5-7.9 8.4-3.3 3.6-6.2 2.9-9.8-.1-1.5-1.3-2.5-3.3-3.4-5.1-.6-1.1-1-1.7-2.3-1.2-4.4 1.7-7.7-.1-10.7-3.2-7.7-7.9-14.2-16.8-20.3-25.9-14.2-21.2-26.7-43.4-35.6-67.4-4.5-11.6-8-23.3-7.8-35.8.2-12 4.2-22.3 13.9-29.9 10.4-8.2 22.1-8.7 33.3-1.6C59 47 65.9 54.5 71.6 62.9c6.3 9.2 12 18.9 18 28.4.8 1.3 1.5 2.7 2.4 4.3zM83.8 193c1.8-6 5.7-9 11.4-10.3 1.6-.4 3.2-1.8 4.4-3.1 4.4-4.8 8.6-9.7 12.8-14.7 18.7-22.1 36.4-45 51.5-69.7 8.4-13.8 16-27.9 20.8-43.4 2-6.5 3.4-13 2.7-19.9-.8-7.6-5.5-11.2-12.9-9.7-2.9.6-5.8 1.8-8.5 3.3-9.8 5.3-17.5 13.2-24.6 21.6-13.9 16.3-24.6 34.5-34 53.7-2.4 4.8-4.5 9.8-7.2 14.4-2.7 4.5-6.9 7-12.4 6-5.1-.9-7.7-4.5-9.1-9.2-.1-.2-.1-.5-.2-.7C74 97 68.3 83.2 59.3 71.1c-4.2-5.6-9-10.7-15.3-14-3.3-1.8-6.8-3-10.6-2.5-7.1.9-10.6 5.8-12.4 12.1-2.3 7.7-1.6 15.6-.3 23.4 2.5 15.3 8.9 29.2 16.6 42.5 10.1 17.2 22.5 32.7 35.5 47.8 3.6 4.1 7.1 8.2 11 12.6z"></path> </svg> 