<svg xmlns="http://www.w3.org/2000/svg" xml:space="preserve" viewBox="0 0 154.7 217" fill="black">
  <path fill-rule="evenodd" d="m150 170-1.7 1c.4-2.2-3.3-5.6-4.9-3.3-.7-2-2.6-3-4.6-2.5-22.5 2.3-57.9 14.2-86.2 18.3-10.3 4.6-35.3-2.7-37.3 12.8 20.5 24.1 77.4-2.7 105.1-8.3 9.9-4.5 25-5.3 30.3-13.5 3 .1-1-3.5-.7-4.5zM6.2 94.1c-.4 5.2 12.4 18.7 19.9 15-1.9 2.4 16.6 7.9 17.4 3.3 2 3.3 20.5 7.4 23.2 3.2 4.8 5.1 23.3 6.3 26.3 5.5-2.9 1.4 6.6 8.4 7.1 4.9 2.5.5 4.7 3.1 4.8-1.1 1.9 4.2 4.4 2.1 6.5-.2-12.2-21.2-51.1-22.4-73.1-24.8-5.1-1-7.4-2.6-14.4-2.4C21 96.1 8 88.1 6.2 94.1m36.7-80.4c15.2 19.8 38.2 44.7 60.8 51.1 30.4 10.1-64.9-77.3-60.8-51.1z" clip-rule="evenodd"/>
</svg>
