<?xml version="1.0" encoding="UTF-8"?> <svg xmlns="http://www.w3.org/2000/svg" xmlns:xlink="http://www.w3.org/1999/xlink" version="1.1" id="Layer_1" x="0px" y="0px" viewBox="0 0 213.3 42" style="enable-background:new 0 0 213.3 42;" xml:space="preserve"><path d="M15.287 2.158 C 11.933 3.568,11.994 6.863,15.399 8.153 C 16.937 8.736,18.820 8.606,20.478 7.803 C 23.012 6.577,23.190 4.431,20.900 2.731 C 19.786 1.904,16.651 1.584,15.287 2.158 M23.599 9.568 C 19.564 11.400,20.353 15.621,24.936 16.721 C 29.761 17.878,34.363 14.255,32.126 11.061 C 30.719 9.053,26.399 8.296,23.599 9.568 M6.615 11.109 C 4.457 13.048,6.062 15.639,9.421 15.639 C 12.779 15.639,14.384 13.048,12.227 11.109 C 11.536 10.489,10.907 10.310,9.421 10.310 C 7.935 10.310,7.305 10.489,6.615 11.109 M73.233 20.600 L 73.233 30.573 75.194 30.573 L 77.155 30.573 77.060 20.708 L 76.966 10.843 75.099 10.735 L 73.233 10.628 73.233 20.600 M162.701 10.902 C 162.570 11.032,162.464 15.512,162.464 20.856 L 162.464 30.573 164.419 30.573 L 166.374 30.573 166.374 20.619 L 166.374 10.665 164.656 10.665 C 163.711 10.665,162.831 10.772,162.701 10.902 M128.140 11.471 C 128.045 11.718,128.010 16.078,128.063 21.158 L 128.158 30.395 129.997 30.502 L 131.836 30.608 131.952 25.650 C 132.089 19.807,132.372 19.197,134.942 19.197 C 136.159 19.197,136.607 19.383,137.197 20.134 C 137.859 20.975,137.934 21.553,137.934 25.822 L 137.934 30.573 139.889 30.573 L 141.845 30.573 141.839 25.152 C 141.833 20.195,141.764 19.608,141.033 18.308 C 139.936 16.357,138.305 15.568,135.711 15.734 C 134.312 15.824,133.330 16.114,132.601 16.653 L 131.535 17.441 131.535 14.231 L 131.535 11.021 129.924 11.021 C 128.952 11.021,128.245 11.199,128.140 11.471 M55.103 20.975 L 55.103 30.573 57.058 30.573 L 59.013 30.573 59.013 27.374 L 59.013 24.174 61.700 24.174 C 65.446 24.174,67.323 23.632,68.594 22.184 C 69.810 20.800,70.184 19.239,69.957 16.500 C 69.771 14.261,68.989 13.003,67.184 12.034 C 66.143 11.476,65.132 11.376,60.529 11.376 L 55.103 11.376 55.103 20.975 M179.528 13.836 L 179.528 16.296 178.217 15.934 C 175.374 15.149,172.320 16.424,170.791 19.033 C 168.437 23.050,169.838 28.536,173.727 30.530 C 174.820 31.091,178.096 31.022,179.261 30.414 C 179.799 30.134,180.239 30.055,180.239 30.239 C 180.239 30.423,180.958 30.573,181.838 30.573 L 183.438 30.573 183.438 20.975 L 183.438 11.376 181.483 11.376 L 179.528 11.376 179.528 13.836 M65.799 15.593 C 66.689 16.692,66.663 18.511,65.742 19.682 C 65.050 20.562,64.822 20.619,62.009 20.619 L 59.013 20.619 59.013 17.561 L 59.013 14.503 62.066 14.628 C 64.765 14.739,65.198 14.851,65.799 15.593 M84.023 16.009 C 82.824 16.379,80.578 18.658,80.789 19.290 C 80.859 19.501,81.546 19.890,82.315 20.157 C 83.497 20.566,83.769 20.566,84.072 20.155 C 85.042 18.841,87.131 18.478,88.440 19.395 C 89.862 20.391,89.409 20.881,86.653 21.329 C 83.120 21.902,81.103 22.903,80.481 24.391 C 78.684 28.692,82.810 32.284,87.363 30.382 C 88.082 30.081,88.957 29.576,89.306 29.260 C 89.901 28.722,89.942 28.745,89.942 29.629 C 89.942 30.513,90.044 30.573,91.572 30.573 L 93.202 30.573 93.083 24.779 C 92.954 18.526,92.742 17.750,90.814 16.487 C 89.752 15.791,85.662 15.503,84.023 16.009 M100.073 16.125 C 98.703 16.767,96.855 18.720,96.327 20.086 C 95.649 21.838,95.797 25.256,96.619 26.856 C 97.487 28.544,98.997 30.034,100.363 30.550 C 102.996 31.545,106.744 30.587,108.531 28.463 C 109.966 26.758,109.806 26.144,107.805 25.680 C 106.162 25.299,106.095 25.316,105.291 26.331 C 104.159 27.760,102.041 27.808,100.767 26.433 C 100.037 25.644,99.896 25.135,99.896 23.285 C 99.896 21.435,100.037 20.926,100.767 20.138 C 102.027 18.779,103.894 18.836,105.239 20.275 C 106.217 21.322,106.291 21.341,107.870 20.944 C 109.659 20.493,109.737 20.343,108.961 18.842 C 107.968 16.922,106.197 15.917,103.532 15.763 C 101.955 15.672,100.776 15.796,100.073 16.125 M116.446 15.900 C 115.105 16.241,113.126 17.744,112.338 19.019 C 111.230 20.811,110.968 24.343,111.784 26.480 C 112.937 29.499,116.872 31.743,119.877 31.095 C 121.748 30.690,123.592 29.610,124.439 28.421 C 125.334 27.164,125.166 26.881,123.216 26.354 C 121.966 26.016,121.725 26.066,120.789 26.854 C 118.904 28.440,116.028 27.632,115.365 25.329 L 115.134 24.530 120.313 24.530 L 125.492 24.530 125.484 22.841 C 125.461 18.039,121.126 14.710,116.446 15.900 M149.896 16.007 C 143.680 17.870,142.874 27.297,148.678 30.258 C 150.789 31.335,154.333 31.107,156.363 29.764 C 160.261 27.184,160.636 20.680,157.063 17.621 C 154.934 15.799,152.454 15.240,149.896 16.007 M191.503 15.983 C 188.483 16.952,186.658 19.720,186.645 23.351 C 186.636 26.057,186.956 26.937,188.621 28.780 C 190.160 30.484,192.989 31.501,195.111 31.114 C 196.971 30.774,199.341 29.298,199.965 28.091 C 200.568 26.926,200.534 26.886,198.481 26.336 C 197.099 25.965,196.931 26.000,196.098 26.833 C 194.813 28.118,192.956 28.059,191.587 26.690 C 189.601 24.703,189.936 24.530,195.747 24.530 L 200.946 24.530 200.788 22.631 C 200.463 18.711,198.021 16.087,194.439 15.811 C 193.374 15.729,192.053 15.806,191.503 15.983 M203.702 23.285 L 203.702 30.573 205.437 30.573 L 207.172 30.573 207.317 25.946 C 207.454 21.549,207.506 21.275,208.371 20.410 C 208.936 19.844,209.840 19.424,210.757 19.301 C 212.233 19.103,212.234 19.103,212.234 17.550 C 212.234 16.142,212.153 15.998,211.368 15.998 C 210.160 15.998,208.646 16.620,207.701 17.505 L 206.901 18.254 206.901 17.126 C 206.901 16.026,206.861 15.998,205.301 15.998 L 203.702 15.998 203.702 23.285 M33.536 17.442 C 32.547 17.932,31.850 18.606,31.440 19.471 C 30.851 20.712,30.853 20.821,31.499 22.026 C 33.424 25.623,40.536 25.591,42.471 21.978 C 43.134 20.740,43.140 20.604,42.587 19.445 C 41.381 16.915,36.695 15.878,33.536 17.442 M14.318 18.121 C 12.336 19.329,12.312 21.895,14.271 23.087 C 16.522 24.455,19.449 24.308,21.461 22.725 C 23.060 21.467,22.627 18.991,20.626 17.956 C 19.110 17.172,15.729 17.261,14.318 18.121 M1.857 19.395 C 0.956 20.026,0.816 21.391,1.586 22.029 C 2.343 22.658,4.755 22.896,5.629 22.428 C 6.043 22.206,6.553 21.707,6.760 21.319 C 7.068 20.745,6.973 20.450,6.251 19.728 C 5.207 18.684,3.100 18.524,1.857 19.395 M120.444 19.464 C 120.840 19.806,121.268 20.446,121.396 20.886 C 121.625 21.673,121.580 21.686,118.405 21.686 C 116.633 21.686,115.182 21.561,115.182 21.409 C 115.182 20.848,116.348 19.492,117.086 19.194 C 118.331 18.692,119.677 18.800,120.444 19.464 M195.331 19.062 C 195.831 19.254,196.947 20.931,196.947 21.490 C 196.947 21.598,195.507 21.686,193.748 21.686 C 191.988 21.686,190.548 21.561,190.548 21.409 C 190.548 20.848,191.714 19.492,192.452 19.194 C 193.380 18.820,194.558 18.766,195.331 19.062 M154.314 20.236 C 155.230 21.152,155.354 21.527,155.354 23.388 C 155.354 24.977,155.174 25.729,154.627 26.424 C 153.107 28.356,149.792 27.845,148.993 25.554 C 148.187 23.242,148.792 20.452,150.288 19.581 C 151.520 18.863,153.217 19.139,154.314 20.236 M179.199 20.114 C 179.938 20.901,180.061 21.379,180.061 23.463 C 180.061 25.558,179.940 26.023,179.184 26.828 C 178.450 27.608,178.048 27.744,176.731 27.656 C 174.794 27.527,173.848 26.443,173.577 24.043 C 173.245 21.097,174.610 19.197,177.056 19.197 C 177.973 19.197,178.582 19.457,179.199 20.114 M89.585 24.796 C 89.584 25.138,89.272 25.928,88.892 26.552 C 87.636 28.612,83.898 28.867,83.898 26.893 C 83.898 25.793,84.604 25.228,86.673 24.671 C 89.003 24.044,89.586 24.069,89.585 24.796 M23.611 25.035 C 23.007 25.297,22.168 25.953,21.744 26.491 C 19.092 29.862,23.903 33.662,28.962 32.191 C 33.346 30.917,33.974 26.954,30.085 25.108 C 28.607 24.407,25.142 24.368,23.611 25.035 M7.999 25.898 C 6.164 26.495,5.061 27.979,5.643 29.066 C 7.040 31.678,11.340 31.875,12.960 29.402 C 14.362 27.262,11.033 24.911,7.999 25.898 M15.464 33.225 C 10.947 34.879,12.417 39.543,17.457 39.543 C 20.819 39.543,23.001 37.590,22.197 35.302 C 21.511 33.354,18.040 32.283,15.464 33.225 " stroke="none" fill-rule="evenodd" fill="currentColor"></path></svg> 