<?xml version="1.0" encoding="UTF-8"?> <svg xmlns="http://www.w3.org/2000/svg" xmlns:xlink="http://www.w3.org/1999/xlink" version="1.1" id="Layer_1" x="0px" y="0px" viewBox="0 0 199.9 42" style="enable-background:new 0 0 199.9 42;" xml:space="preserve"><path d="M19.167 3.582 C 19.279 5.002,19.660 8.797,20.014 12.017 C 20.747 18.691,20.792 19.780,20.325 19.491 C 20.143 19.379,18.209 17.084,16.027 14.391 C 13.846 11.698,11.235 8.596,10.225 7.496 L 8.389 5.497 7.076 6.766 L 5.762 8.035 7.795 9.965 C 8.914 11.026,11.403 13.140,13.327 14.661 C 17.944 18.313,19.990 20.047,19.990 20.308 C 19.990 20.548,19.809 20.536,12.827 19.836 C 10.078 19.561,6.368 19.236,4.581 19.114 L 1.333 18.892 1.333 20.774 L 1.333 22.655 3.415 22.649 C 4.560 22.646,8.196 22.349,11.494 21.989 C 18.187 21.259,20.120 21.176,19.838 21.632 C 19.733 21.802,17.391 23.766,14.635 25.996 C 11.878 28.226,8.769 30.851,7.726 31.830 L 5.830 33.608 7.074 34.867 L 8.317 36.125 9.529 34.971 C 10.196 34.336,12.817 31.242,15.354 28.097 C 17.890 24.951,20.121 22.281,20.311 22.163 C 20.790 21.867,20.748 22.874,19.990 29.818 C 19.630 33.117,19.333 36.985,19.330 38.415 L 19.324 41.014 21.073 40.914 L 22.822 40.813 22.746 37.481 C 22.704 35.649,22.442 32.170,22.163 29.751 C 21.884 27.332,21.656 24.599,21.656 23.678 L 21.656 22.004 22.929 23.412 C 23.630 24.187,25.453 26.395,26.980 28.319 C 28.508 30.243,30.658 32.840,31.759 34.090 L 33.760 36.362 35.121 34.981 L 36.482 33.601 34.649 31.919 C 33.642 30.994,31.018 28.807,28.819 27.059 C 26.620 25.310,24.187 23.304,23.412 22.601 L 22.004 21.323 23.246 21.329 C 23.929 21.332,27.186 21.629,30.485 21.989 C 33.783 22.349,37.494 22.646,38.731 22.649 L 40.980 22.655 40.980 20.777 L 40.980 18.900 37.398 19.129 C 35.428 19.256,31.867 19.569,29.485 19.826 C 27.103 20.083,24.452 20.338,23.595 20.392 C 22.092 20.487,22.056 20.468,22.595 19.868 C 22.903 19.525,25.323 17.501,27.973 15.369 C 30.623 13.238,33.622 10.716,34.637 9.766 L 36.482 8.037 35.235 6.776 L 33.989 5.514 32.134 7.338 C 31.114 8.341,29.051 10.723,27.550 12.630 C 23.496 17.782,21.591 20.036,21.429 19.874 C 21.349 19.795,21.581 16.752,21.944 13.113 C 22.307 9.474,22.701 5.260,22.819 3.748 L 23.034 1.000 20.999 1.000 L 18.963 1.000 19.167 3.582 M120.685 21.239 L 120.773 30.818 122.497 30.918 L 124.220 31.018 124.329 26.306 C 124.433 21.821,124.475 21.565,125.224 20.959 C 126.281 20.105,127.996 20.135,128.801 21.023 C 129.345 21.624,129.451 22.360,129.544 26.187 L 129.653 30.651 131.490 30.651 L 133.326 30.651 133.209 25.571 C 133.114 21.484,132.975 20.275,132.496 19.392 C 131.188 16.978,127.829 16.223,125.484 17.814 L 124.271 18.637 124.271 15.149 L 124.271 11.661 122.434 11.661 L 120.596 11.661 120.685 21.239 M53.640 21.323 L 53.640 30.651 55.472 30.651 L 57.305 30.651 57.305 27.486 L 57.305 24.321 59.887 24.314 C 63.755 24.303,65.660 23.270,66.787 20.572 C 67.771 18.217,67.351 15.639,65.696 13.869 C 64.198 12.267,63.099 11.994,58.148 11.994 L 53.640 11.994 53.640 21.323 M69.299 21.323 L 69.299 30.651 71.131 30.651 L 72.963 30.651 72.963 21.323 L 72.963 11.994 71.131 11.994 L 69.299 11.994 69.299 21.323 M152.257 21.323 L 152.257 30.651 154.090 30.651 L 155.922 30.651 155.922 21.323 L 155.922 11.994 154.090 11.994 L 152.257 11.994 152.257 21.323 M168.249 15.355 L 168.249 18.717 167.224 17.854 C 165.400 16.319,161.860 16.742,160.019 18.714 C 157.690 21.208,157.688 26.741,160.015 29.269 C 161.726 31.128,164.990 31.550,167.017 30.175 L 168.209 29.366 168.312 30.092 C 168.403 30.727,168.624 30.818,170.082 30.818 L 171.747 30.818 171.836 21.406 L 171.924 11.994 170.087 11.994 L 168.249 11.994 168.249 15.355 M61.786 15.464 C 63.514 16.186,64.068 17.675,63.265 19.438 C 62.758 20.550,61.631 20.989,59.288 20.989 L 57.305 20.989 57.305 17.991 L 57.305 14.992 58.981 14.992 C 59.903 14.992,61.166 15.205,61.786 15.464 M78.777 17.460 C 77.795 17.888,75.962 19.750,75.962 20.321 C 75.962 20.475,76.599 20.814,77.378 21.074 C 78.664 21.505,78.870 21.493,79.627 20.951 C 81.123 19.880,82.160 19.827,83.108 20.776 C 84.615 22.282,84.285 22.655,81.449 22.655 C 77.201 22.655,75.629 23.780,75.629 26.820 C 75.629 27.838,75.844 28.811,76.172 29.280 C 77.371 30.991,81.185 31.556,83.208 30.322 L 84.291 29.662 84.291 30.340 C 84.291 30.950,84.470 31.009,86.040 30.919 L 87.789 30.818 87.789 25.987 C 87.789 20.358,87.358 19.039,85.095 17.747 C 83.578 16.881,80.435 16.738,78.777 17.460 M93.589 17.766 C 89.137 20.114,88.801 27.110,93.007 29.893 C 94.898 31.145,98.231 31.365,100.187 30.367 C 101.647 29.623,103.383 27.791,103.187 27.203 C 103.120 27.002,102.365 26.620,101.508 26.354 C 100.032 25.896,99.911 25.907,99.201 26.570 C 98.180 27.523,96.808 27.812,95.629 27.324 C 94.275 26.763,93.620 25.616,93.620 23.808 C 93.620 22.553,93.799 22.092,94.594 21.297 C 95.865 20.026,97.810 19.948,99.165 21.113 C 100.047 21.872,100.140 21.884,101.516 21.415 C 103.126 20.866,103.257 20.472,102.251 19.193 C 100.484 16.947,96.413 16.277,93.589 17.766 M108.779 17.543 C 106.133 18.934,104.871 21.015,104.871 23.988 C 104.871 26.240,105.436 27.678,106.868 29.070 C 108.413 30.570,109.482 30.985,111.810 30.985 C 114.147 30.985,115.507 30.402,116.918 28.795 L 118.050 27.506 116.450 26.808 L 114.851 26.109 114.079 26.881 C 112.619 28.341,109.352 27.579,108.851 25.662 C 108.680 25.008,108.820 24.988,113.474 24.988 L 118.274 24.988 118.272 23.905 C 118.268 21.159,116.582 18.364,114.375 17.442 C 112.936 16.840,110.016 16.893,108.779 17.543 M139.430 17.621 C 138.697 17.959,137.767 18.595,137.364 19.034 C 134.930 21.682,135.071 26.856,137.642 29.219 C 140.187 31.559,145.004 31.559,147.549 29.219 C 150.228 26.756,150.228 21.220,147.549 18.757 C 145.611 16.975,141.942 16.462,139.430 17.621 M178.411 17.621 C 175.931 18.766,174.579 21.012,174.579 23.988 C 174.579 28.177,177.359 30.993,181.479 30.977 C 182.635 30.973,183.956 30.721,184.774 30.350 C 186.131 29.733,187.771 27.910,187.444 27.381 C 187.350 27.229,186.664 26.903,185.920 26.658 C 184.662 26.242,184.513 26.262,183.799 26.932 C 182.669 27.994,180.600 27.919,179.456 26.774 C 177.802 25.121,178.100 24.988,183.446 24.988 L 188.315 24.988 188.088 23.476 C 187.458 19.274,185.068 16.982,181.337 16.999 C 180.460 17.003,179.144 17.283,178.411 17.621 M190.238 23.821 L 190.238 30.651 192.071 30.651 L 193.903 30.651 193.903 26.798 C 193.903 24.679,194.056 22.658,194.244 22.308 C 194.698 21.459,195.780 20.899,197.401 20.675 L 198.734 20.490 198.835 18.741 C 198.890 17.779,198.815 16.992,198.668 16.993 C 197.748 17.000,195.772 17.810,194.913 18.533 L 193.903 19.383 193.903 18.187 L 193.903 16.991 192.071 16.991 L 190.238 16.991 190.238 23.821 M112.568 20.358 C 113.478 20.676,114.276 21.505,114.276 22.134 C 114.276 22.237,113.077 22.322,111.611 22.322 C 109.600 22.322,108.945 22.212,108.945 21.874 C 108.945 21.211,110.297 20.150,111.311 20.016 C 111.421 20.002,111.987 20.156,112.568 20.358 M167.153 20.857 C 168.126 21.470,168.672 23.514,168.252 24.976 C 167.775 26.641,166.673 27.653,165.337 27.653 C 163.778 27.653,162.944 27.130,162.391 25.804 C 161.451 23.557,162.146 21.292,164.023 20.480 C 165.142 19.997,165.941 20.093,167.153 20.857 M183.303 20.879 C 184.539 21.997,184.075 22.322,181.243 22.322 C 179.777 22.322,178.577 22.237,178.577 22.134 C 178.577 21.593,179.376 20.581,180.015 20.313 C 180.961 19.915,182.538 20.186,183.303 20.879 M144.776 21.141 C 145.461 21.826,145.594 22.280,145.594 23.943 C 145.594 25.766,145.507 26.001,144.529 26.823 C 142.575 28.468,140.052 27.372,139.697 24.723 C 139.597 23.975,139.610 22.982,139.726 22.518 C 140.274 20.334,143.177 19.542,144.776 21.141 M83.958 25.772 C 83.958 26.020,83.590 26.620,83.141 27.104 C 82.336 27.973,81.017 28.243,79.821 27.784 C 79.112 27.512,79.150 26.104,79.877 25.681 C 80.782 25.153,83.958 25.224,83.958 25.772 " stroke="none" fill-rule="evenodd" fill="currentColor"></path></svg> 