<?xml version="1.0" encoding="UTF-8"?> <svg xmlns="http://www.w3.org/2000/svg" xmlns:xlink="http://www.w3.org/1999/xlink" version="1.1" id="Layer_1" x="0px" y="0px" viewBox="0 0 180 42" style="enable-background:new 0 0 180 42;" xml:space="preserve"><path d="M18.150 1.418 C 16.718 1.622,16.680 1.969,18.045 2.378 C 18.740 2.586,21.006 3.540,23.080 4.497 C 27.627 6.597,30.545 7.497,33.537 7.723 C 36.205 7.925,36.235 7.771,33.900 5.835 C 29.758 2.400,23.526 0.653,18.150 1.418 M7.710 6.638 L 5.850 8.373 8.400 8.389 C 13.237 8.418,17.412 9.447,23.085 12.006 C 27.840 14.152,31.018 15.020,34.836 15.217 C 36.589 15.307,38.509 15.290,39.104 15.178 L 40.185 14.976 39.698 13.713 C 39.429 13.018,39.099 12.326,38.965 12.175 C 38.830 12.023,37.854 11.931,36.796 11.969 C 32.356 12.130,27.112 10.845,21.051 8.110 C 17.178 6.362,14.349 5.475,11.610 5.147 L 9.569 4.904 7.710 6.638 M152.100 14.602 L 152.100 17.805 151.379 17.127 C 150.426 16.232,148.835 15.901,147.177 16.255 C 145.566 16.599,143.908 18.254,143.422 20.004 C 143.003 21.513,143.013 24.551,143.441 25.830 C 144.682 29.537,149.114 31.236,151.523 28.928 L 152.400 28.088 152.400 28.894 C 152.400 29.679,152.447 29.700,154.200 29.700 L 156.000 29.700 156.000 20.550 L 156.000 11.400 154.050 11.400 L 152.100 11.400 152.100 14.602 M49.200 20.661 L 49.200 29.700 51.300 29.700 L 53.400 29.700 53.400 26.400 L 53.400 23.100 56.175 23.100 C 59.405 23.099,60.506 22.678,61.929 20.897 C 62.766 19.850,62.850 19.546,62.850 17.575 C 62.850 15.014,62.127 13.663,60.166 12.561 C 59.101 11.962,58.444 11.875,54.086 11.756 L 49.200 11.622 49.200 20.661 M63.600 20.700 L 63.600 29.700 65.550 29.700 L 67.500 29.700 67.500 20.700 L 67.500 11.700 65.550 11.700 L 63.600 11.700 63.600 20.700 M109.500 20.700 L 109.500 29.700 111.450 29.700 L 113.400 29.700 113.400 25.102 C 113.400 20.684,113.427 20.479,114.094 19.852 C 114.962 19.037,116.215 19.015,117.000 19.800 C 117.548 20.348,117.600 20.800,117.600 25.050 L 117.600 29.700 119.550 29.700 L 121.500 29.700 121.499 24.375 C 121.498 19.563,121.439 18.954,120.892 18.057 C 119.536 15.832,115.036 15.508,113.630 17.533 C 113.508 17.707,113.407 16.466,113.405 14.775 L 113.400 11.700 111.450 11.700 L 109.500 11.700 109.500 20.700 M137.700 20.700 L 137.700 29.700 139.650 29.700 L 141.600 29.700 141.600 20.700 L 141.600 11.700 139.650 11.700 L 137.700 11.700 137.700 20.700 M4.684 12.596 C 3.878 12.742,3.119 12.972,2.998 13.106 C 2.680 13.460,1.692 16.192,1.832 16.332 C 1.897 16.397,2.625 16.321,3.450 16.164 C 4.275 16.006,6.389 15.874,8.149 15.870 C 13.385 15.860,16.532 16.633,23.004 19.521 C 28.636 22.034,31.074 22.633,35.700 22.643 C 37.762 22.647,39.821 22.546,40.275 22.419 C 41.048 22.203,41.100 22.083,41.100 20.531 L 41.100 18.873 39.975 19.111 C 39.356 19.243,37.297 19.327,35.400 19.299 C 31.359 19.238,27.505 18.367,23.606 16.632 C 18.081 14.174,16.990 13.747,14.770 13.170 C 12.146 12.489,6.913 12.191,4.684 12.596 M58.829 16.162 C 59.584 17.094,59.552 18.250,58.748 19.106 C 58.174 19.717,57.814 19.800,55.748 19.800 L 53.400 19.800 53.400 17.518 L 53.400 15.236 55.829 15.347 C 57.944 15.443,58.333 15.548,58.829 16.162 M72.683 16.474 C 70.681 16.986,69.300 18.584,69.300 20.390 C 69.300 20.930,69.491 21.000,70.957 21.000 C 72.424 21.000,72.646 20.918,72.884 20.291 C 73.181 19.512,73.756 19.200,74.894 19.200 C 75.947 19.200,76.800 19.725,76.800 20.374 C 76.800 21.202,76.259 21.490,73.981 21.880 C 70.128 22.538,68.830 23.702,68.872 26.463 C 68.891 27.697,69.047 28.085,69.843 28.881 C 70.692 29.730,71.011 29.842,72.889 29.948 C 74.624 30.046,75.173 29.957,76.061 29.433 C 77.340 28.679,77.400 28.670,77.400 29.250 C 77.400 29.595,77.783 29.700,79.050 29.700 L 80.700 29.700 80.699 24.525 C 80.698 18.721,80.470 17.917,78.541 16.919 C 77.433 16.347,74.154 16.097,72.683 16.474 M85.172 16.896 C 83.397 17.831,82.460 19.533,82.274 22.162 C 81.934 26.964,84.269 29.984,88.330 29.995 C 90.762 30.002,92.502 29.134,93.634 27.348 C 94.998 25.197,94.866 24.900,92.550 24.900 C 91.117 24.900,90.600 25.007,90.600 25.304 C 90.600 26.050,89.502 26.747,88.483 26.646 C 87.094 26.509,86.315 25.336,86.182 23.179 C 86.058 21.176,86.492 20.130,87.684 19.559 C 88.689 19.076,89.985 19.577,90.446 20.626 C 90.708 21.221,90.962 21.300,92.621 21.300 C 94.315 21.300,94.500 21.240,94.500 20.685 C 94.500 19.212,92.713 17.137,90.930 16.541 C 89.191 15.959,86.654 16.116,85.172 16.896 M99.197 16.638 C 96.668 17.539,95.417 19.633,95.407 22.980 C 95.392 27.686,97.446 30.000,101.639 30.000 C 104.101 30.000,105.747 29.306,106.831 27.810 C 108.120 26.030,108.011 25.800,105.872 25.800 C 104.499 25.800,103.855 25.949,103.282 26.400 C 102.418 27.080,101.754 27.148,100.697 26.667 C 100.027 26.361,99.300 25.279,99.300 24.586 C 99.300 24.418,101.093 24.300,103.650 24.300 L 108.000 24.300 108.000 22.853 C 108.000 20.792,107.225 18.772,106.033 17.725 C 104.340 16.239,101.557 15.796,99.197 16.638 M126.980 16.534 C 125.409 16.988,123.734 18.816,123.183 20.679 C 122.583 22.703,122.579 23.484,123.157 25.431 C 124.066 28.492,126.181 29.987,129.600 29.987 C 133.821 29.987,136.500 27.313,136.500 23.100 C 136.500 18.943,133.791 16.188,129.750 16.234 C 128.760 16.245,127.513 16.380,126.980 16.534 M161.297 16.638 C 158.768 17.539,157.517 19.633,157.507 22.980 C 157.492 27.686,159.546 30.000,163.739 30.000 C 166.201 30.000,167.847 29.306,168.931 27.810 C 170.220 26.030,170.111 25.800,167.972 25.800 C 166.599 25.800,165.955 25.949,165.382 26.400 C 164.518 27.080,163.854 27.148,162.797 26.667 C 162.127 26.361,161.400 25.279,161.400 24.586 C 161.400 24.418,163.193 24.300,165.750 24.300 L 170.100 24.300 170.100 22.853 C 170.100 20.792,169.325 18.772,168.133 17.725 C 166.440 16.239,163.657 15.796,161.297 16.638 M176.175 16.797 C 175.379 17.282,175.200 17.309,175.200 16.946 C 175.200 16.601,174.792 16.500,173.400 16.500 L 171.600 16.500 171.600 23.100 L 171.600 29.700 173.550 29.700 L 175.500 29.700 175.500 25.552 C 175.500 21.605,175.533 21.373,176.194 20.752 C 176.679 20.297,177.268 20.100,178.144 20.100 L 179.400 20.100 179.400 18.150 L 179.400 16.200 178.275 16.201 C 177.656 16.202,176.711 16.470,176.175 16.797 M103.141 19.725 C 103.475 20.014,103.836 20.554,103.944 20.925 C 104.136 21.585,104.088 21.600,101.720 21.600 C 100.389 21.600,99.300 21.526,99.300 21.435 C 99.300 21.024,100.226 19.539,100.569 19.401 C 101.380 19.074,102.560 19.223,103.141 19.725 M165.241 19.725 C 165.575 20.014,165.936 20.554,166.044 20.925 C 166.236 21.585,166.188 21.600,163.820 21.600 C 162.489 21.600,161.400 21.526,161.400 21.435 C 161.400 21.024,162.326 19.539,162.669 19.401 C 163.480 19.074,164.660 19.223,165.241 19.725 M131.723 20.275 C 132.346 20.940,132.450 21.342,132.449 23.102 C 132.448 24.859,132.343 25.265,131.722 25.927 C 130.994 26.701,129.439 26.965,128.263 26.514 C 126.998 26.028,126.434 22.471,127.344 20.712 C 127.869 19.696,128.157 19.555,129.773 19.524 C 130.718 19.505,131.160 19.676,131.723 20.275 M151.364 20.294 C 152.086 21.072,152.281 22.064,152.122 24.150 C 151.973 26.105,150.341 27.338,148.766 26.686 C 146.834 25.886,146.347 21.639,148.021 20.199 C 149.123 19.251,150.432 19.288,151.364 20.294 M4.950 19.921 C 4.785 19.983,3.874 20.193,2.925 20.388 L 1.200 20.743 1.205 21.997 C 1.226 27.083,4.529 33.492,8.850 36.832 C 12.636 39.759,15.563 40.829,20.335 41.032 C 26.585 41.298,30.830 39.683,35.136 35.399 C 37.248 33.299,37.943 32.362,38.932 30.289 C 40.904 26.156,41.222 26.552,35.921 26.538 C 31.914 26.528,30.991 26.427,28.440 25.724 C 26.839 25.283,23.869 24.166,21.840 23.242 C 16.231 20.688,13.805 20.054,9.150 19.920 C 7.005 19.859,5.115 19.859,4.950 19.921 M77.100 24.436 C 77.100 26.272,75.867 27.419,74.077 27.248 C 73.175 27.162,73.039 27.038,72.960 26.224 C 72.851 25.111,73.189 24.798,75.150 24.200 C 77.134 23.594,77.100 23.590,77.100 24.436 " stroke="none" fill-rule="evenodd" fill="currentColor"></path></svg> 