<?xml version="1.0" encoding="UTF-8"?> <svg xmlns="http://www.w3.org/2000/svg" xmlns:xlink="http://www.w3.org/1999/xlink" version="1.1" id="Layer_1" x="0px" y="0px" viewBox="0 0 180 42" style="enable-background:new 0 0 180 42;" xml:space="preserve"><path d="M21.481 1.156 C 21.418 1.263,20.726 3.780,19.944 6.750 C 19.162 9.720,18.429 12.326,18.315 12.542 C 18.201 12.758,17.452 10.491,16.651 7.505 C 15.782 4.262,15.066 2.124,14.873 2.195 C 14.695 2.261,13.841 2.494,12.975 2.714 C 12.109 2.934,11.404 3.257,11.408 3.432 C 11.412 3.607,12.082 6.241,12.896 9.287 C 13.711 12.332,14.342 14.858,14.299 14.901 C 14.256 14.944,12.476 13.230,10.343 11.093 L 6.465 7.206 5.029 8.620 L 3.592 10.035 7.857 14.307 C 10.202 16.656,12.060 18.630,11.986 18.693 C 11.911 18.756,9.690 18.224,7.050 17.511 C 4.410 16.799,2.036 16.212,1.774 16.208 C 1.449 16.203,1.148 16.742,0.822 17.915 C 0.559 18.857,0.395 19.712,0.458 19.813 C 0.520 19.913,3.075 20.654,6.136 21.458 C 9.196 22.263,11.700 23.002,11.700 23.101 C 11.700 23.201,9.405 23.879,6.600 24.609 C 0.947 26.079,1.197 25.871,1.966 28.461 C 2.332 29.692,2.542 29.997,2.941 29.876 C 3.221 29.791,5.813 29.090,8.700 28.318 C 11.588 27.546,13.983 26.889,14.024 26.858 C 14.064 26.827,13.681 26.034,13.172 25.094 C 12.397 23.662,12.247 23.055,12.247 21.346 C 12.247 18.929,12.738 17.613,14.275 15.911 C 16.408 13.551,19.443 12.702,22.526 13.604 C 25.861 14.580,27.854 17.164,28.162 20.911 L 28.350 23.193 33.300 24.492 C 36.023 25.206,38.470 25.793,38.738 25.795 C 39.357 25.801,40.359 22.239,39.797 22.032 C 39.606 21.962,36.964 21.250,33.926 20.450 C 30.888 19.650,28.526 18.921,28.676 18.829 C 28.827 18.737,31.177 18.086,33.900 17.383 C 36.623 16.679,38.896 16.068,38.952 16.025 C 39.085 15.922,38.371 12.739,38.126 12.343 C 38.006 12.148,35.909 12.578,32.394 13.518 C 29.345 14.333,26.717 15.000,26.554 15.000 C 26.392 15.000,28.008 13.247,30.147 11.104 L 34.034 7.207 32.612 5.763 L 31.190 4.319 26.850 8.685 L 22.511 13.050 23.851 7.950 C 24.589 5.145,25.194 2.642,25.196 2.389 C 25.199 2.077,24.615 1.771,23.399 1.445 C 22.408 1.179,21.545 1.049,21.481 1.156 M152.100 14.602 L 152.100 17.805 151.379 17.127 C 150.426 16.232,148.835 15.901,147.177 16.255 C 145.566 16.599,143.908 18.254,143.422 20.004 C 143.003 21.513,143.013 24.551,143.441 25.830 C 144.682 29.537,149.114 31.236,151.523 28.928 L 152.400 28.088 152.400 28.894 C 152.400 29.679,152.447 29.700,154.200 29.700 L 156.000 29.700 156.000 20.550 L 156.000 11.400 154.050 11.400 L 152.100 11.400 152.100 14.602 M49.200 20.661 L 49.200 29.700 51.300 29.700 L 53.400 29.700 53.400 26.400 L 53.400 23.100 56.175 23.100 C 59.405 23.099,60.506 22.678,61.929 20.897 C 62.766 19.850,62.850 19.546,62.850 17.575 C 62.850 15.014,62.127 13.663,60.166 12.561 C 59.101 11.962,58.444 11.875,54.086 11.756 L 49.200 11.622 49.200 20.661 M63.600 20.700 L 63.600 29.700 65.550 29.700 L 67.500 29.700 67.500 20.700 L 67.500 11.700 65.550 11.700 L 63.600 11.700 63.600 20.700 M109.500 20.700 L 109.500 29.700 111.450 29.700 L 113.400 29.700 113.400 25.102 C 113.400 20.684,113.427 20.479,114.094 19.852 C 114.962 19.037,116.215 19.015,117.000 19.800 C 117.548 20.348,117.600 20.800,117.600 25.050 L 117.600 29.700 119.550 29.700 L 121.500 29.700 121.499 24.375 C 121.498 19.563,121.439 18.954,120.892 18.057 C 119.536 15.832,115.036 15.508,113.630 17.533 C 113.508 17.707,113.407 16.466,113.405 14.775 L 113.400 11.700 111.450 11.700 L 109.500 11.700 109.500 20.700 M137.700 20.700 L 137.700 29.700 139.650 29.700 L 141.600 29.700 141.600 20.700 L 141.600 11.700 139.650 11.700 L 137.700 11.700 137.700 20.700 M58.829 16.162 C 59.584 17.094,59.552 18.250,58.748 19.106 C 58.174 19.717,57.814 19.800,55.748 19.800 L 53.400 19.800 53.400 17.518 L 53.400 15.236 55.829 15.347 C 57.944 15.443,58.333 15.548,58.829 16.162 M72.683 16.474 C 70.681 16.986,69.300 18.584,69.300 20.390 C 69.300 20.930,69.491 21.000,70.957 21.000 C 72.424 21.000,72.646 20.918,72.884 20.291 C 73.181 19.512,73.756 19.200,74.894 19.200 C 75.947 19.200,76.800 19.725,76.800 20.374 C 76.800 21.202,76.259 21.490,73.981 21.880 C 70.128 22.538,68.830 23.702,68.872 26.463 C 68.891 27.697,69.047 28.085,69.843 28.881 C 70.692 29.730,71.011 29.842,72.889 29.948 C 74.624 30.046,75.173 29.957,76.061 29.433 C 77.340 28.679,77.400 28.670,77.400 29.250 C 77.400 29.595,77.783 29.700,79.050 29.700 L 80.700 29.700 80.699 24.525 C 80.698 18.721,80.470 17.917,78.541 16.919 C 77.433 16.347,74.154 16.097,72.683 16.474 M85.172 16.896 C 83.397 17.831,82.460 19.533,82.274 22.162 C 81.934 26.964,84.269 29.984,88.330 29.995 C 90.762 30.002,92.502 29.134,93.634 27.348 C 94.998 25.197,94.866 24.900,92.550 24.900 C 91.117 24.900,90.600 25.007,90.600 25.304 C 90.600 26.050,89.502 26.747,88.483 26.646 C 87.094 26.509,86.315 25.336,86.182 23.179 C 86.058 21.176,86.492 20.130,87.684 19.559 C 88.689 19.076,89.985 19.577,90.446 20.626 C 90.708 21.221,90.962 21.300,92.621 21.300 C 94.315 21.300,94.500 21.240,94.500 20.685 C 94.500 19.212,92.713 17.137,90.930 16.541 C 89.191 15.959,86.654 16.116,85.172 16.896 M99.197 16.638 C 96.668 17.539,95.417 19.633,95.407 22.980 C 95.392 27.686,97.446 30.000,101.639 30.000 C 104.101 30.000,105.747 29.306,106.831 27.810 C 108.120 26.030,108.011 25.800,105.872 25.800 C 104.499 25.800,103.855 25.949,103.282 26.400 C 102.418 27.080,101.754 27.148,100.697 26.667 C 100.027 26.361,99.300 25.279,99.300 24.586 C 99.300 24.418,101.093 24.300,103.650 24.300 L 108.000 24.300 108.000 22.853 C 108.000 20.792,107.225 18.772,106.033 17.725 C 104.340 16.239,101.557 15.796,99.197 16.638 M126.980 16.534 C 125.409 16.988,123.734 18.816,123.183 20.679 C 122.583 22.703,122.579 23.484,123.157 25.431 C 124.066 28.492,126.181 29.987,129.600 29.987 C 133.821 29.987,136.500 27.313,136.500 23.100 C 136.500 18.943,133.791 16.188,129.750 16.234 C 128.760 16.245,127.513 16.380,126.980 16.534 M161.297 16.638 C 158.768 17.539,157.517 19.633,157.507 22.980 C 157.492 27.686,159.546 30.000,163.739 30.000 C 166.201 30.000,167.847 29.306,168.931 27.810 C 170.220 26.030,170.111 25.800,167.972 25.800 C 166.599 25.800,165.955 25.949,165.382 26.400 C 164.518 27.080,163.854 27.148,162.797 26.667 C 162.127 26.361,161.400 25.279,161.400 24.586 C 161.400 24.418,163.193 24.300,165.750 24.300 L 170.100 24.300 170.100 22.853 C 170.100 20.792,169.325 18.772,168.133 17.725 C 166.440 16.239,163.657 15.796,161.297 16.638 M176.175 16.797 C 175.379 17.282,175.200 17.309,175.200 16.946 C 175.200 16.601,174.792 16.500,173.400 16.500 L 171.600 16.500 171.600 23.100 L 171.600 29.700 173.550 29.700 L 175.500 29.700 175.500 25.552 C 175.500 21.605,175.533 21.373,176.194 20.752 C 176.679 20.297,177.268 20.100,178.144 20.100 L 179.400 20.100 179.400 18.150 L 179.400 16.200 178.275 16.201 C 177.656 16.202,176.711 16.470,176.175 16.797 M103.141 19.725 C 103.475 20.014,103.836 20.554,103.944 20.925 C 104.136 21.585,104.088 21.600,101.720 21.600 C 100.389 21.600,99.300 21.526,99.300 21.435 C 99.300 21.024,100.226 19.539,100.569 19.401 C 101.380 19.074,102.560 19.223,103.141 19.725 M165.241 19.725 C 165.575 20.014,165.936 20.554,166.044 20.925 C 166.236 21.585,166.188 21.600,163.820 21.600 C 162.489 21.600,161.400 21.526,161.400 21.435 C 161.400 21.024,162.326 19.539,162.669 19.401 C 163.480 19.074,164.660 19.223,165.241 19.725 M131.723 20.275 C 132.346 20.940,132.450 21.342,132.449 23.102 C 132.448 24.859,132.343 25.265,131.722 25.927 C 130.994 26.701,129.439 26.965,128.263 26.514 C 126.998 26.028,126.434 22.471,127.344 20.712 C 127.869 19.696,128.157 19.555,129.773 19.524 C 130.718 19.505,131.160 19.676,131.723 20.275 M151.364 20.294 C 152.086 21.072,152.281 22.064,152.122 24.150 C 151.973 26.105,150.341 27.338,148.766 26.686 C 146.834 25.886,146.347 21.639,148.021 20.199 C 149.123 19.251,150.432 19.288,151.364 20.294 M27.678 24.635 C 27.013 26.129,24.707 28.389,23.374 28.854 C 22.756 29.070,22.525 29.317,22.624 29.658 C 22.703 29.928,23.328 32.242,24.014 34.800 C 24.700 37.358,25.349 39.543,25.455 39.657 C 25.786 40.009,29.100 38.941,29.100 38.482 C 29.100 38.148,27.001 30.117,26.220 27.460 C 26.121 27.124,27.846 28.640,30.053 30.829 L 34.065 34.807 35.479 33.372 L 36.894 31.936 32.578 27.628 L 28.263 23.321 27.678 24.635 M77.100 24.436 C 77.100 26.272,75.867 27.419,74.077 27.248 C 73.175 27.162,73.039 27.038,72.960 26.224 C 72.851 25.111,73.189 24.798,75.150 24.200 C 77.134 23.594,77.100 23.590,77.100 24.436 M10.350 30.900 L 6.458 34.800 7.879 36.221 L 9.300 37.642 13.500 33.450 C 15.810 31.144,17.700 29.155,17.700 29.029 C 17.700 28.903,17.518 28.800,17.295 28.800 C 17.072 28.800,16.331 28.395,15.648 27.900 C 14.964 27.405,14.368 27.000,14.323 27.000 C 14.278 27.000,12.490 28.755,10.350 30.900 M17.692 30.675 C 17.509 31.376,16.897 33.651,16.330 35.729 C 15.764 37.808,15.300 39.636,15.300 39.791 C 15.300 40.028,18.914 41.192,19.086 41.011 C 19.155 40.938,22.200 29.709,22.200 29.527 C 22.200 29.457,21.260 29.400,20.112 29.400 L 18.023 29.400 17.692 30.675 " stroke="none" fill-rule="evenodd" fill="currentColor"></path></svg> 