<svg xmlns="http://www.w3.org/2000/svg" fill="none" viewBox="0 0 76 81">
	<path fill="currentColor" fill-rule="evenodd" d="M44.338 11.2c.1-1.9.3-3.8.5-5.7a63.873 63.873 0 0 1-.074-1.3c-.046-.913-.09-1.78-.226-2.6-.1-.6-.7-1.6-1.1-1.6-.6 0-1.6.5-1.9 1-.8 1.3-1.6 2.8-2 4.3-1.3 4.7-2.4 9.4-3.4 14.2-.6 2.8-.7 5.6.3 8.3.6 1.5 1.5 2.7 3.3 2.7 1.8 0 2.8-1.2 3.3-2.7.5-1.4.7-2.9.8-4.4.1-2.05.175-4.075.25-6.1.075-2.025.15-4.05.25-6.1ZM30.838 78c.2.9.5 1.9 1.9 2.1.1-.52.205-1.045.31-1.573v-.002c.419-2.111.85-4.286 1.09-6.525.9-6.5 1.6-13 2.3-19.5.1-.9 0-1.9-.2-2.8-.6-2-2.2-3.1-3.9-2.8-1.7.3-2.5 1.6-2.5 3.8.1 2.6.1 5.3.1 7.9 0 1.404-.01 2.807-.022 4.207-.022 2.79-.044 5.563.022 8.293 0 1.917.348 3.833.695 5.75.07.383.139.767.205 1.15Zm44.2-36.2c-.484.108-.977.23-1.472.353-1.344.334-2.713.674-4.028.747l-.96.09c-7.172.67-14.26 1.331-21.44 1.81-1.2.1-2.6-.2-3.7-.7-1.5-.6-1.4-2.2 0-2.9.8-.4 1.7-.6 2.5-.6 9.5-.3 19-.4 28.5.4.2 0 .4.1.6.2v.6Zm-49.5-5.633c1.167-.1 2.334-.2 3.5-.267 0-.2 0-.4.1-.7-.4-.05-.775-.125-1.15-.2a15.71 15.71 0 0 0-1.15-.2c-3.55-.4-7.075-.8-10.6-1.2-3.525-.4-7.05-.8-10.6-1.2-.6-.05-1.2-.125-1.8-.2-.6-.075-1.2-.15-1.8-.2-1 0-1.8.4-2 1.4-.2 1.1.4 1.9 1.4 2.2.7.2 1.5.4 2.3.4 1.197.049 2.4.104 3.605.159 3.731.17 7.492.341 11.195.341 2.334.067 4.667-.133 7-.333Z" clip-rule="evenodd"/>
</svg>
