<?xml version="1.0" encoding="UTF-8"?> <svg xmlns="http://www.w3.org/2000/svg" xml:space="preserve" viewBox="0 0 200 200"> <g> <animateTransform fill="remove" accumulate="none" attributeName="transform" attributeType="XML" dur="1.75s" repeatCount="indefinite" restart="always" type="translate" values="0,0; 0,-2; 0,-4; 0,-6; 0,-8; 0,-10; 0,-12; 0,-14; 0,-12; 0,-10; 0,-8; 0,-6; 0,-4; 0,-2; 0,0;"></animateTransform> <path fill="none" stroke="currentColor" stroke-miterlimit="10" stroke-width="3" d="m110.3 113.4-10.7 10.7-10.7-10.7m10.7-39.2V124"></path> </g> <g> <animateTransform fill="remove" accumulate="none" attributeName="transform" attributeType="XML" dur="10s" repeatCount="indefinite" restart="always" type="rotate"></animateTransform> <path fill="currentColor" d="m111.3 6.6-2.3-.1c0-2.1-1.2-3.2-3.3-3.4-1.9-.1-3.2.8-3.3 2.2-.1 1.2.4 2 2.4 2.7l2.3.8c3.2 1.1 4.3 2.5 4.1 4.7-.2 3-2.5 4.9-6 4.6-3.8-.2-6-2.3-5.9-5.9l2.3.1c0 2.4 1.3 3.7 3.7 3.8 2.2.1 3.6-.9 3.7-2.7 0-.6-.2-1.1-.6-1.5-.7-.6-1.5-1-2.4-1.2l-2-.7c-1.2-.3-2.3-1-3.2-1.9-.6-.8-.9-1.8-.8-2.8 0-1.3.7-2.4 1.7-3.2 1.2-.8 2.6-1.1 4-1 3.6.2 5.6 2.2 5.6 5.5zm19 9.4c-.8 1.8-2.2 3.2-4 4-4 1.8-8.7.4-11-3.3-1.1-2-1.4-4.3-.9-6.5.5-2.2 1.9-4.1 3.8-5.2 1.9-1.2 4.3-1.5 6.5-.8 3.9.9 6.6 4.3 6.5 8.3l-2.3-.6c-.1-1.3-.6-2.6-1.4-3.6-.8-1-2-1.7-3.2-2-1.6-.4-3.3-.2-4.7.8-1.4.9-2.4 2.3-2.8 3.9-.4 1.6-.2 3.4.6 4.9.8 1.5 2.2 2.5 3.8 2.9 1.3.4 2.7.3 4-.3 1.3-.5 2.3-1.5 3-2.7l2.1.2zm2.5 8.3-2-1 7.1-14.8 5.3 2.6c1.4.6 2.7 1.7 3.4 3.1.7 1.2.7 2.7 0 3.9-1.1 2.5-3.7 3.3-6.7 2.4l2.4 8.4-2.6-1.2-2.3-8.3-1.8-.9-2.8 5.8zm6.3-13.1-2.7 5.5 3.1 1.5c2.1 1 4 .6 4.9-1.2.8-1.6-.1-3.3-2.2-4.4l-3.1-1.4zm14.5 7.9c2.3-.3 4.6.3 6.4 1.7 1.9 1.3 3.1 3.4 3.4 5.6.4 2.2-.2 4.5-1.6 6.3-1.3 1.8-3.4 3.1-5.6 3.3-2.3.3-4.6-.3-6.4-1.7-1.9-1.3-3.1-3.4-3.4-5.6-.3-2.2.3-4.5 1.7-6.3 1.3-1.8 3.3-3 5.5-3.3zm7.5 7.7c-.2-1.7-1.1-3.2-2.5-4.2-1.3-1.1-3-1.6-4.7-1.2-1.7.3-3.1 1.2-4.2 2.5-1 1.3-1.5 3-1.3 4.7.2 1.7 1.1 3.2 2.5 4.2 1.3 1.1 3 1.6 4.7 1.2 1.7-.3 3.2-1.2 4.2-2.6 1.1-1.3 1.6-3 1.3-4.6zm3.9 21.8-6.6-7.2 12.1-11.1 1.5 1.6-10.6 9.7 5 5.4-1.4 1.6zm6.6 9.6-5.5-8 13.5-9.3 1.2 1.8-11.8 8.2 4.2 6.1-1.6 1.2zm17.6-.2c.8 1.2 1.4 2.5 1.9 3.9 1.1 2.1 1.3 4.5.6 6.7-.8 2-2.4 3.5-4.4 4.2-2 1-4.4 1-6.5.2-1.9-.8-3.5-2.8-4.7-5.6-.5-1.1-.9-2.3-1.2-3.5l14.3-5.9zM177 65c.2.7.4 1.3.7 1.9 1.6 4 4.8 5.3 8.7 3.7 3.4-1.3 4.9-4.2 3.2-8.2-.3-.7-.6-1.4-1.1-2.1L177 65zm13.7 24.2c-5.3 1-8.8-1.5-9.6-5.5s1.7-7.6 6.4-8.6c4.9-1 8.8 1.4 9.5 5.5 1 4.3-1.7 7.6-6.3 8.6zm-2.8-11.9c-3.3.7-5.9 3-5.2 6.2s3.9 4.4 7.4 3.6c3.1-.7 5.9-2.9 5.2-6.2s-3.9-4.3-7.4-3.6zm-4.7 18 15.8-3.7v2.2l-8 1.7c-1.8.4-3.6.8-5.4 1 1.5.3 3.4.8 5.4 1.3l7.9 2.2v2.1l-8 1.8c-1.9.4-3.7.8-5.4 1.1 1.7.4 3.4.9 5.4 1.3l7.9 2.2v2.1l-15.7-4.6v-2.1l8.2-1.8c1.7-.4 3.4-.8 5.1-1-1.7-.3-3.5-.8-5.1-1.3l-8.2-2.4v-2.1zm-.7 16.3 15.5 3.2-.5 2.2-8.9 3.3c-1.8.7-3.7 1.3-5.6 1.7v.1c2.1.3 4 .6 6.4 1l6.5 1.3-.4 1.9-15.5-3.2.4-2 8.9-3.2c1.9-.7 3.8-1.3 5.7-1.8v-.1c-2-.3-3.8-.7-6.4-1.1l-6.6-1.3.5-2zm1 20.4c1.3.5 1.8 2 1.3 3.2-.5 1.2-1.8 1.8-3 1.4 0 0-.1 0-.1-.1-1.2-.5-1.9-1.9-1.4-3.1 0 0 0-.1.1-.1.4-1.2 1.8-1.8 3-1.4-.1 0 0 .1.1.1zm-6.7 23.8 1.2-1.9c1.5 1 3.4.6 4.4-.9.1-.1.1-.2.2-.3 1.1-1.6 1-3.2-.3-4-1.1-.7-1.9-.6-3.5.9l-1.8 1.6c-2.6 2.2-4.3 2.5-6.1 1.3-2.6-1.6-3-4.6-1.1-7.5 2.1-3.2 5-4.1 8.1-2.3l-1.2 1.9c-1.6-1.1-3.7-.7-4.8.9-.1.2-.2.4-.3.5-1.2 1.9-1 3.5.5 4.5.5.3 1.1.4 1.6.3.9-.3 1.7-.8 2.3-1.4l1.5-1.3c.9-.9 2-1.6 3.2-1.9 1-.2 2 .1 2.8.7 1.1.7 1.8 1.8 1.9 3.1.2 1.4-.2 2.8-1.1 4-1.9 2.7-4.6 3.4-7.5 1.8zm-17.5 12c-1.2-1.6-1.7-3.5-1.5-5.4.1-2 1-3.8 2.4-5.2 1.5-1.7 3.7-2.7 5.9-2.8 2.3 0 4.4.8 6.1 2.4 3.4 3 3.7 8.3.7 11.7l-.3.3c-2.6 2.9-7 3.6-10.4 1.6l1.6-1.7c1.2.6 2.5.8 3.8.6 1.3-.2 2.5-.9 3.3-1.8a6.1 6.1 0 0 0 1.6-4.5c-.3-3.5-3.1-6.1-6.6-6.2-1.6 0-3.2.7-4.3 1.9-.9 1-1.5 2.3-1.7 3.6-.1 1.4.2 2.7.9 3.9l-1.5 1.6zm-8.4-1.8 1.8-1.3 9.5 13.3-4.8 3.4c-1.2 1-2.8 1.5-4.4 1.4-1.4 0-2.7-.7-3.4-1.9-1.6-2.2-1-4.9 1.1-6.9l-8.5-1.9 2.4-1.6 8.4 2 1.6-1.1-3.7-5.4zm8.4 11.8-3.6-5.1-2.9 2c-1.9 1.3-2.5 3.2-1.3 4.9s3.1 1.5 4.9.2l2.9-2zm-14 8.8c-.8 2.1-2.5 3.8-4.6 4.8-2.1.9-4.4 1.1-6.6.3-2.1-.7-3.8-2.4-4.7-4.5-1-2.1-1-4.5-.2-6.6.8-2.1 2.5-3.8 4.6-4.8 2.1-.9 4.4-1.1 6.6-.3 2.1.8 3.8 2.5 4.7 4.6 1 2.1 1.1 4.4.2 6.5zm-10.3 3c1.6.6 3.3.6 4.9-.1 3.2-1.4 4.6-5.1 3.2-8.3 0 0 0-.1-.1-.1-.7-1.5-1.9-2.8-3.4-3.4-1.6-.7-3.3-.6-4.9.2-1.6.7-2.8 1.9-3.3 3.5-.6 1.6-.5 3.3.2 4.9.6 1.5 1.8 2.7 3.4 3.3zm-21-7.3 9.4-2.3 3.8 16-2.2.5-3.3-13.9-7.2 1.7-.5-2zm-11.6 1.2 9.6-1 1.5 16.3-2.2.2-1.4-14.3-7.4.7-.1-1.9zm-8.3 15.3c-1.4 0-2.9 0-4.3-.2-2.9-.4-4.9-1.2-6.1-2.8-1.3-1.7-1.9-3.8-1.5-5.9.1-2.3 1.2-4.4 3-5.8 2.1-1.4 4.7-1.9 7.2-1.4 1.2.1 2.4.4 3.6.7l-1.9 15.4zm-.4-14.1c-.7-.2-1.3-.3-2-.4-4.3-.6-7 1.6-7.4 5.8-.5 3.7 1.3 6.3 5.6 6.8.8.1 1.6.1 2.4.1l1.4-12.3zM66 185c1.6-5.1 5.6-7 9.4-5.7 4 1.2 5.8 5.2 4.4 9.7-1.5 4.8-5.4 7-9.4 5.7s-5.8-5.3-4.4-9.7zm11.7 3.4c1-3.2.2-6.7-2.9-7.6s-5.7 1.3-6.8 4.7c-.9 3-.4 6.6 2.9 7.6s5.9-1.4 6.8-4.7zm-13.3-13-4.3 15.7-1.9-1.1 2.3-7.8c.6-1.9 1.1-3.8 1.6-5.3-1.2 1.5-2.5 2.8-3.8 4.2l-5.7 5.9-1.8-1 2.3-7.9c.6-1.8 1-3.7 1.7-5.2-1.2 1.3-2.4 2.7-3.8 4.1l-5.7 5.9-1.8-1 11.6-11.6 1.8 1-2.3 8.1c-.5 1.7-1 3.4-1.6 5 1-1.2 2.1-2.4 3.6-3.9l6-6 1.8.9zm-14-8.5-10.3 11.9-1.7-1.4 1.4-9.4c.3-1.9.7-3.8 1.2-5.7-1.2 1.7-2.5 3.1-4.1 5l-4.3 5-1.4-1.2 10.3-11.9 1.5 1.4-1.4 9.3c-.3 2-.7 4-1.2 5.9h.1c1.2-1.6 2.4-3.1 4.1-5.1l4.4-5.1 1.4 1.3zm-18.2-9.1c-1.1.8-2.6.7-3.4-.4s-.7-2.6.4-3.4c1.1-.8 2.6-.7 3.4.4.8 1 .7 2.6-.4 3.4zm-17.7-17.4 1 2c-1.5.8-2.1 2.8-1.3 4.3.1.1.1.2.2.3.9 1.6 2.4 2.4 3.6 1.6 1.1-.6 1.4-1.4 1-3.4l-.6-2.4c-.8-3.3-.1-5 1.8-6 2.7-1.4 5.4-.4 7.1 2.7 1.8 3.4 1.2 6.4-1.9 8.2l-1-2c2-1.2 2.5-3.1 1.3-5.2-1-1.9-2.6-2.6-4.2-1.7-.5.3-.9.7-1 1.2-.2.9-.1 1.8.2 2.7l.5 2c.4 1.2.4 2.5.1 3.7-.3.9-1.1 1.7-2 2.1-1.1.6-2.4.7-3.5.2-1.3-.5-2.4-1.6-3-2.9-1.7-2.8-1.1-5.6 1.7-7.4zm-2-21.1c1.9-.2 3.9.2 5.5 1.3s2.9 2.7 3.4 4.6c1.5 4.3-.8 9-5.1 10.4-.2.1-.3.1-.5.1-2.1.8-4.5.6-6.5-.5-2-1-3.6-2.8-4.2-5-.6-1.8-.6-3.8.1-5.6.6-1.8 1.9-3.3 3.5-4.2l.8 2.3c-1.1.7-1.9 1.8-2.3 3.1a5 5 0 0 0 0 3.8c.5 1.6 1.6 2.9 3.1 3.6 1.5.8 3.3.9 4.9.3 1.6-.5 3-1.5 3.8-3 .8-1.4 1-3.2.5-4.8-.4-1.3-1.3-2.5-2.4-3.2-1.1-.8-2.5-1.1-3.8-1l-.8-2.2zm5.7-6.5.3 2.2-16.3 1.8-.7-5.8c-.2-1.5.1-3.1.9-4.5.7-1.2 2-2 3.3-2.1 2.7-.3 4.8 1.4 5.5 4.5l5.8-6.5.3 2.9-5.8 6.3.2 2 6.5-.8zm-14.3 1.5 6.1-.7-.4-3.4c-.3-2.2-1.6-3.7-3.6-3.5-1.8.2-2.8 1.9-2.6 4.2l.5 3.4zM2.9 98C1.4 96.3.7 94 1 91.7c.2-2.3 1.2-4.4 3-5.9 1.7-1.5 4-2.2 6.2-1.9 2.3.2 4.4 1.3 5.8 3 1.5 1.7 2.2 4 1.9 6.3-.1 2.3-1.2 4.4-2.9 5.9s-4 2.2-6.2 1.9c-2.3-.2-4.4-1.3-5.9-3zm2.5-10.5c-1.3 1-2.1 2.6-2.2 4.3-.2 1.7.3 3.3 1.4 4.6 1.1 1.3 2.7 2.1 4.3 2.2 1.7.2 3.4-.3 4.7-1.3 1.3-1 2.1-2.6 2.2-4.3.2-1.7-.3-3.4-1.4-4.7-1.1-1.3-2.7-2.1-4.4-2.2-1.7-.2-3.3.3-4.6 1.4zm16.5-14.8L19.3 82 3.5 77.7l.6-2.2 13.8 3.8 2-7.1 2 .5zM26.6 62l-3.9 8.9-15-6.7.9-2.1 13.2 5.8 3-6.9 1.8 1zm-9.4-14.8c.7-1.3 1.4-2.5 2.3-3.7 1.7-2.4 3.5-3.6 5.3-4 2.1-.4 4.3.2 5.9 1.5 1.9 1.2 3.2 3.2 3.6 5.4.3 2.1-.5 4.5-2.3 7-.9 1.2-1.6 2.1-2.3 2.9l-12.5-9.1zm12.5 6.6c.5-.5.9-1 1.3-1.6 2.6-3.5 2-6.9-1.4-9.3-2.9-2.2-6.1-1.9-8.6 1.5-.5.6-.9 1.3-1.2 2l9.9 7.4zm13.4-24.3c3.7 3.9 3.3 8.3.4 11s-7.3 2.5-10.7-1c-3.4-3.6-3.4-8.1-.4-11.1s7.4-2.3 10.7 1.1zm-8.8 8.6c2.3 2.5 5.7 3.3 8 1.2s1.7-5.6-.8-8.2c-2.2-2.3-5.6-3.5-8-1.2s-1.6 5.6.8 8.2zm17.9-5.3L40.5 21.5l1.8-1.1 5.7 5.8c1.4 1.4 2.8 2.9 3.8 4-.6-1.4-1.1-3.3-1.8-5.3L47.6 17l1.8-1.1 5.8 5.8c1.3 1.3 2.7 2.8 3.7 4-.7-1.6-1.1-3.3-1.8-5.3l-2.4-7.8 1.8-1L61 27.3l-1.8 1.1-6-5.9c-1.3-1.2-2.4-2.5-3.5-3.8.6 1.5 1 3 1.6 5.1l2.4 8.2-1.5.8zm14.2-8.2L61 9.8l2.1-.8 7.4 5.7c1.5 1.2 3 2.5 4.4 3.8-.9-2-1.7-4-2.4-6l-2.3-6.2 1.8-.7 5.3 14.8-1.9.7-7.4-5.8c-1.6-1.2-3.1-2.5-4.6-3.9h-.1c.8 1.8 1.4 3.6 2.4 6l2.3 6.3-1.6.9zm16.8-11.5c-.2-1.3.7-2.6 2-2.9 1.3-.2 2.6.7 2.9 2 .2 1.3-.7 2.6-2 2.9-1.2.3-2.5-.5-2.8-1.7 0-.1-.1-.2-.1-.3z"></path> </g> <circle cx="100" cy="100" r="100" fill="none"></circle> </svg> 