<svg xmlns="http://www.w3.org/2000/svg" fill="none" viewBox="0 0 57 73">
	<path fill="currentColor" d="M50.426 41.746c-2.113.19-4.226.286-6.29.572-3.074.476-5.427 2.096-6.868 4.86-.96 1.858-1.824 3.765-2.545 5.766-1.92 5.194-3.073 10.626-4.514 15.915-.192.715-.24 1.525-.384 2.24-.048.285-.096.619-.24.857-.336.715-.96 1.096-1.68 1-.72-.094-1.297-.666-1.345-1.476a4.5 4.5 0 0 1 .048-1.382c.288-1.81.192-3.574 0-5.337-.384-3.478-.913-6.957-2.017-10.292-1.393-3.955-3.506-7.434-6.819-10.15-1.68-1.382-3.41-2.716-5.138-4.098-2.641-2.096-5.666-3.478-8.788-4.717-.48-.19-1.056-.238-1.632-.429-.385-.095-.817-.19-1.2-.381-.817-.381-1.153-1.192-.961-2.002.192-.762.912-1.238 1.776-1.143.625.047 1.297.19 1.921.381 3.554 1.096 7.203.858 10.853.524 1.344-.095 2.689-.238 3.986-.524 3.025-.715 5.378-2.382 6.77-5.194 1.105-2.192 1.873-4.479 2.401-6.91.865-3.763 2.065-7.48 2.545-11.34.24-1.953.529-3.907.769-5.908.096-.525.144-1.049.288-1.573.288-.524.72-.953 1.344-1 .625-.048 1.2.285 1.393.952.24.715.432 1.478.48 2.24.24 3.526.48 7.052.72 10.626.24 3.24.385 6.48.72 9.673.289 2.62 1.201 5.099 2.69 7.338 1.344 2.05 3.217 3.336 5.426 4.241 1.44.572 2.833 1.191 4.274 1.668.768.286 1.633.38 2.45.572 1.584.38 3.216.714 4.801 1.143.72.19 1.2.715 1.249 1.477.096.715-.337 1.43-1.105 1.716-.528.19-1.104.333-1.68.333-1.25.048-2.546 0-3.794 0 .096-.095.096-.19.096-.238Z"/>
</svg>
