<?xml version="1.0" encoding="UTF-8"?> <svg xmlns="http://www.w3.org/2000/svg" fill="none" viewBox="0 0 39 55"><path fill="currentColor" fill-rule="evenodd" d="M35.27 43.433h.796l.446.686.32-.287.899.505.102.665.47-.267.533 1.107-.338.114v.517c-.596.205-1.048.721-1.724.545-.04.458-.458.608-.724.668-.63.14-1.16.637-1.753.648-.692.014-1.217.394-1.82.566-.723.207-1.467.428-2.185.704-.7.27-1.435.622-2.237.597-1.27.736-2.744.82-4.111 1.239-1.065.326-2.14.732-3.287.816-.4.03-.78.443-1.196-.167-.303.554-.66.86-1.254.84-.418-.014-.856.085-1.258.218-1.05.347-2.146.458-3.22.678-.986.203-2 .273-2.966.487-1.302.288-2.583.087-3.868.169-.227.014-.46-.17-.697-.205-.258-.038-.594.09-.772-.033-.23-.16-.401-.015-.59-.053-.277-.055-.55-.134-.88-.218-.123-.214-.533-.3-.532-.722 0-.106-.202-.31-.302-.304-.757.044-.932-.579-1.259-1.104-.127-1.022.37-1.738 1.329-2.18.126-.059.259-.114.394-.136.532-.084 1.1-.066 1.59-.253.54-.205 1.067-.189 1.61-.203.52-.013 1.133.135 1.535-.09.448-.253 1.007.147 1.328-.355.353.372.7-.185 1.052-.006.376-.323.844-.15 1.257-.243.383-.086.778-.136 1.146-.233 1.212-.32 2.439-.509 3.677-.654.537-.47 1.278-.023 1.855-.438.495-.357 1.158-.291 1.732-.419.653-.144 1.337-.254 2.008-.363.627-.103 1.243-.275 1.873-.392.928-.173 1.813-.575 2.773-.647.404-.476 1.041-.065 1.524-.428.405-.306 1.004-.358 1.495-.437 1.198-.191 2.257-.775 3.422-1.029.276-.06.551-.124.87-.196l.125.811.812-.518M16.39 30.588l-.17.169c-.145-.226-.292-.452-.473-.731l-.192.542c-.331-.04-.78.035-1.013-.155-.38-.307-.629.133-.958.016-.3-.106-.734.034-.951-.135-.355-.277-.712-.122-1.053-.21-.334-.085-.65-.242-1-.377l-.698.22-.406-.76-.216.696c-1.036-.596-2.277-.258-3.314-.78l-.11-.491-.176.514-.836-.22-.068-.615-.273.198-.464-.233-.208.467-.803-.567-.056-.513-.794.398c-.396-.573-1.205-.84-1.458-1.61l.25-.277c-.216-.216-.315-.156-.544.33-.074.005-.148.016-.22.011-.03-.002-.057-.04-.154-.114l.236-.54L0 25.133l.679.247-.205-.809.923.418-.202.247.63.321v-.76l.709-.36 1.638.68c.249-.097 1.203.026 1.636.222l.272-.247.744.354c-.073.083-.14.161-.21.239.05.037.12.122.157.11.43-.134.836-.463 1.305-.025.087.081.391-.068.594-.115.93-.212 1.783-.08 2.533.524.176-.047.368-.144.558-.14.224.004.582.208.647.13.338-.405.514.088.766.091.245.003.472.018.732.136.44.2.96.242 1.451.305 1.655.208 3.27.557 4.866 1.056 1.233.385 2.489.703 3.674 1.218.798.346 1.666.668 2.293 1.233.567.51 1.238.962 1.68 1.69l-.224.352.193.223-.84.795c-.344-.104-.705-.25-.907-.747l-.107.716h-.322l-.156-.41-.386.245-.335-.25-.543.504c-.274-.338-.465-.64-.722-.87-.249-.223-.769-.007-.887-.58l.24-.37-.753-.04.371.418c-.286-.015-.523.04-.684-.048-.38-.206-.77-.315-1.184-.428a7.23 7.23 0 0 0-1.159-.192c-.35-.038-.688-.17-1.037-.21-.368-.043-.753.023-1.114-.047-.322-.062-.62-.243-.925-.37M9.33 2.448v-.95c.386-.405.83-.603 1.502-.537l.314.525c.747-.46 1.03.537 1.617.379.841.558 1.47 1.335 2.332 1.821.127.071.216.207.322.315.743.752 1.571 1.395 2.437 2.004.595.418 1.133.926 1.664 1.429.58.548 1.184 1.053 1.888 1.434.127.07.215.209.323.314.427.419.813.897 1.297 1.237.39.273.678.636 1.023.941.596.527 1.092 1.169 1.624 1.768.536.603 1.087 1.195 1.584 1.829.207.264.292.625.437.955l-1.045.917c-.32.18-.48-.42-.857-.557l-.311.238-1.471-.304c-1.248-1.021-2.7-2.105-4.058-3.321a13.148 13.148 0 0 0-2.152-1.568c-.556-.322-.99-.854-1.493-1.278-1.335-1.12-2.675-2.271-3.803-3.59-1.06-1.239-2.356-2.291-3.173-4.001" clip-rule="evenodd"></path></svg> 