<svg xmlns="http://www.w3.org/2000/svg" xml:space="preserve" viewBox="0 0 100.1 24" fill="currentColor">
  <path fill-rule="evenodd" d="M11.6 1.1c-.2.1-.4.2-.5.4-.1.1-.1.1-.1 2.4v2.4c.1.4.4.7.9.7s.8-.1 1-.4l.1-.2V1.6l-.1-.2c0-.1-.1-.2-.2-.3-.3-.1-.7-.2-1.1 0M4.6 4c-.3.1-.6.4-.7.6 0 .2 0 .5.1.7.1.2 3.2 3.3 3.4 3.4.4.2.7.1 1.1-.3.3-.3.4-.7.3-1.1-.2-.2-3.3-3.2-3.5-3.3-.3-.1-.5-.1-.7 0m14.1 0c-.2.1-3.3 3.2-3.4 3.4-.2.4-.1.7.3 1.1.3.3.7.4 1.1.3.3-.1 3.3-3.2 3.4-3.4.2-.4.1-.7-.2-1-.4-.5-.8-.6-1.2-.4M1.6 11.1c-.2.1-.4.2-.5.4-.1.1-.1.2-.1.5s0 .4.1.6c.1.2.3.3.5.4h4.8c.2-.1.4-.2.5-.4.1-.2.1-.3.1-.6 0-.4-.1-.6-.3-.8-.3-.2-.4-.2-2.7-.2-1.7 0-2.3 0-2.4.1m16 0c-.2.1-.4.2-.5.4-.1.1-.1.2-.1.5s0 .4.1.6c.1.2.3.3.5.4.2.1 4.5.1 4.7 0 .2-.1.4-.2.5-.4.2-.2.2-.3.2-.6 0-.4-.1-.6-.3-.8-.3-.2-.4-.2-2.7-.2-1.7 0-2.3 0-2.4.1M7.4 15.3c-.1 0-.8.7-1.7 1.7C4 18.7 4 18.8 3.9 19.1c0 .2.1.4.3.7.3.4.7.5 1.1.3.2-.1 3.3-3.2 3.4-3.4.2-.4.1-.7-.3-1.1-.3-.4-.7-.5-1-.3m8.5 0c-.2.1-.5.4-.6.6-.1.2-.1.5 0 .7.1.3 3.2 3.3 3.4 3.4.4.2.7.1 1-.2.4-.3.5-.7.3-1.1-.1-.2-3.2-3.3-3.4-3.4-.2-.1-.5-.1-.7 0m-4.3 1.8c-.2.1-.4.2-.5.4-.1.1-.1.1-.1 2.4v2.4c.1.4.4.6.9.6s.8-.1 1-.4l.1-.2v-4.7l-.1-.2c0-.1-.1-.2-.2-.3-.3-.1-.7-.1-1.1 0" clip-rule="evenodd"/>
	<path d="M38.1 11.6c.3-.2.6-.5.9-.8.4-.5.5-1.1.5-1.8 0-.6-.1-1.1-.4-1.7-.3-.5-.7-1-1.3-1.3-.6-.3-1.2-.5-2.1-.5h-5.1v13h5.6c.8 0 1.5-.2 2.1-.5.6-.3 1-.8 1.3-1.3.3-.6.5-1.2.5-2s-.2-1.5-.7-2.1c-.3-.4-.7-.8-1.3-1zm-5.6-4.3h3.2c.6 0 1 .2 1.3.5.3.3.5.7.5 1.2 0 .4-.1.7-.2 1-.2.3-.4.5-.7.6s-.6.2-.9.2h-3.2V7.3zm5.4 8.4c-.2.3-.5.5-.8.7s-.7.2-1.1.2h-3.4v-4.1h3.5c.4 0 .8.1 1.1.3.3.2.6.4.7.7.2.3.3.7.3 1.1 0 .5-.1.8-.3 1.1zM45 8.9c-.3.1-.6.2-.8.4-.3.2-.5.4-.7.6-.1.1-.2.3-.2.4V8.7h-1.7v9.7h1.9v-4.9c0-.4 0-.7.1-1.1.1-.3.2-.7.4-.9s.4-.5.7-.7c.3-.2.7-.3 1.1-.4.4 0 .7 0 1.1.1V8.7c-.3-.1-.6-.1-.9 0s-.7.1-1 .2zm10.6 1.4c-.3-.6-.8-1.1-1.4-1.4-.6-.3-1.4-.4-2.3-.4-1.1 0-2 .2-2.7.7s-1.1 1.2-1.4 2l1.8.5c.2-.5.5-.9.9-1.2s.9-.4 1.4-.4c.8 0 1.4.2 1.7.6.3.3.4.8.5 1.4-.4.1-.7.1-1.1.2-.6.1-1.2.2-1.7.3l-1.5.3c-.5.2-.9.4-1.3.6s-.6.6-.8.9c-.2.4-.3.8-.3 1.3s.1 1 .4 1.5c.2.4.6.8 1.1 1.1.5.3 1.1.4 1.8.4.9 0 1.7-.2 2.3-.5.5-.3.9-.7 1.2-1.1v1.4h1.7v-6c0-.4 0-.8-.1-1.1s-.1-.8-.2-1.1zm-1.8 5c-.1.3-.2.6-.5.9-.2.3-.5.5-.9.7-.4.2-.8.3-1.4.3-.4 0-.7-.1-1-.2s-.4-.3-.6-.5-.2-.4-.2-.7c0-.3.1-.5.2-.7.1-.2.3-.3.5-.5.2-.1.4-.2.7-.3.3-.1.7-.2 1-.2.4-.1.8-.1 1.3-.2.3 0 .6-.1 1-.1v.5c.1.3.1.7-.1 1zm12.6-4.5c-.1-.4-.4-.8-.7-1.1s-.7-.7-1.1-.9c-.5-.2-1-.3-1.7-.3-.9 0-1.6.2-2.2.6-.4.2-.7.6-1 .9V8.7H58v9.7h1.9v-5.1c0-.6.1-1.1.2-1.5s.3-.7.5-1c.2-.2.5-.4.8-.5.3-.1.6-.2 1-.2.5 0 .9.1 1.3.3.3.2.6.5.7.8.2.3.3.7.4 1.1.1.4.1.8.1 1.2v4.8h1.9V13c0-.3 0-.6-.1-1l-.3-1.2zm9-1.4-.3-.3c-.6-.4-1.4-.7-2.3-.7-.9 0-1.7.2-2.4.7-.7.4-1.2 1.1-1.5 1.8-.4.8-.5 1.6-.5 2.6s.2 1.8.5 2.6c.4.8.9 1.4 1.5 1.8s1.4.7 2.3.7c.9 0 1.7-.2 2.3-.7.2-.1.4-.3.6-.5v.9h1.7v-13h-1.9v4.1zm-.1 6c-.2.5-.5.9-.9 1.2-.3.3-.8.4-1.4.4-.6 0-1.1-.2-1.5-.5-.4-.3-.7-.7-.9-1.2-.2-.5-.3-1.1-.3-1.7 0-.6.1-1.2.3-1.7.2-.5.5-.9.9-1.2.4-.3.9-.5 1.5-.5s1.1.1 1.5.4.7.7.8 1.2c.2.5.3 1.1.3 1.8 0 .6-.1 1.2-.3 1.8zm4.3-10.1h1.9v1.8h-1.9zm0 3.4h1.9v9.7h-1.9zm7.3-3.5c-.3 0-.6.1-.9.2-.3.1-.6.3-.8.6-.2.2-.3.5-.4.8-.1.3-.1.5-.2.8v1.1H83v1.5h1.6v8.2h1.9v-8.2H89V8.7h-2.5V8c0-.4.1-.7.3-.9.2-.2.6-.3 1-.3h1.1V5.2h-2zm10.2 3.5L94.4 16l-2.9-7.3h-1.9l3.9 9.7-1.6 4.4h1.8L99 8.7z"/>
</svg>
