<?xml version="1.0" encoding="utf-8"?>
<!-- Generator: Adobe Illustrator 26.2.1, SVG Export Plug-In . SVG Version: 6.00 Build 0)  -->
<svg version="1.1" id="Layer_1" xmlns="http://www.w3.org/2000/svg" xmlns:xlink="http://www.w3.org/1999/xlink" x="0px" y="0px"
	 viewBox="0 0 113.4 24.7" style="enable-background:new 0 0 113.4 24.7;" xml:space="preserve">
<path d="M12,23.7c-1.5-0.3-2.8-0.5-4.3-0.7c1.2-3.1,2-6.2,3.6-9C12,17.1,11.7,20.3,12,23.7z"/>
<path d="M2.6,19.4c-0.7-1.3-1.4-2.5-2.1-3.8c3.2-0.9,6.1-2.2,9.4-2.6C7.8,15.4,5.1,17.2,2.6,19.4z"/>
<path d="M0.3,9.5c0.3-1.5,0.9-2.7,1.6-4c2.6,1.9,5.4,3.4,7.8,5.6C6.5,11.1,3.5,10.1,0.3,9.5z"/>
<path d="M13,13.5c2.9,1.4,5.2,3.6,7.9,5.4C20,20.1,19,21,17.7,21.8C16.1,19,14.2,16.5,13,13.5z"/>
<path d="M13.7,12c3-1.2,6.1-1.4,9.3-2.1c0.3,1.4,0.3,2.8,0,4.3C19.8,13.4,16.7,13.1,13.7,12z"/>
<path d="M12.9,10.3c0.9-3.1,2.7-5.7,4.1-8.5c0.9,0.2,2.6,1.6,3.4,2.6C17.9,6.4,15.7,8.7,12.9,10.3z"/>
<path d="M6.9,1.2c1.4-0.3,2.8-0.6,4.2-1c0,3.4,0.5,6.5,0,9.7C9.3,7.3,8.4,4.3,6.9,1.2z"/>
<path d="M42.3,12.2c-0.4-0.5-1-1-1.6-1.2c0.4-0.2,0.8-0.6,1-1c0.4-0.6,0.6-1.4,0.6-2.2c0-0.7-0.2-1.4-0.5-2.1
	c-0.3-0.6-0.9-1.2-1.5-1.6c-0.7-0.4-1.5-0.6-2.5-0.6h-6.2v15.8h6.8c1,0,1.9-0.2,2.6-0.6c0.7-0.4,1.2-0.9,1.6-1.6
	c0.4-0.7,0.6-1.5,0.6-2.4C43.1,13.8,42.9,12.9,42.3,12.2z M33.9,5.7h3.9c0.7,0,1.2,0.2,1.6,0.6C39.8,6.7,40,7.2,40,7.8
	c0,0.5-0.1,0.9-0.3,1.2c-0.2,0.3-0.5,0.6-0.8,0.7c-0.3,0.2-0.7,0.3-1.1,0.3h-3.9V5.7z M40.4,16c-0.2,0.4-0.6,0.7-1,0.9
	c-0.4,0.2-0.9,0.3-1.4,0.3h-4.1v-5h4.3c0.5,0,1,0.1,1.4,0.3c0.4,0.2,0.7,0.5,0.9,0.9c0.2,0.4,0.3,0.8,0.3,1.3
	C40.8,15.2,40.7,15.7,40.4,16z"/>
<path d="M44.8,19.4V7.5h2v2.9L46.5,10c0.1-0.4,0.3-0.7,0.6-1.1c0.2-0.3,0.5-0.6,0.8-0.8c0.3-0.2,0.6-0.4,1-0.5
	c0.4-0.1,0.8-0.2,1.1-0.2s0.8,0,1.1,0.1v2.2c-0.4-0.1-0.8-0.1-1.3-0.1c-0.5,0-0.9,0.2-1.3,0.5c-0.4,0.2-0.7,0.5-0.9,0.9
	c-0.2,0.3-0.4,0.7-0.5,1.1c-0.1,0.4-0.1,0.9-0.1,1.3v6H44.8z"/>
<path d="M61.9,10.7c0-0.4-0.2-0.8-0.4-1.2c-0.4-0.8-0.9-1.4-1.7-1.7S58.1,7.2,57,7.2c-1.4,0-2.5,0.3-3.3,0.9
	c-0.8,0.6-1.4,1.4-1.7,2.4l2.1,0.7c0.2-0.7,0.6-1.1,1.1-1.4s1.1-0.4,1.7-0.4c1,0,1.7,0.2,2.1,0.7c0.4,0.4,0.5,1,0.6,1.7
	c-0.4,0.1-0.9,0.1-1.3,0.2c-0.7,0.1-1.4,0.2-2.1,0.3c-0.7,0.1-1.3,0.3-1.8,0.4c-0.6,0.2-1.1,0.5-1.5,0.8c-0.4,0.3-0.7,0.7-0.9,1.2
	c-0.2,0.5-0.3,1-0.3,1.6c0,0.6,0.2,1.2,0.5,1.8c0.3,0.5,0.8,1,1.3,1.3c0.6,0.3,1.3,0.5,2.2,0.5c1.1,0,2-0.2,2.8-0.7
	c0.6-0.3,1.1-0.8,1.5-1.4v1.7h2v-7.3C62,11.6,61.9,11.1,61.9,10.7z M59.7,13.6c0,0.2,0,0.4,0,0.7c0,0.4-0.1,0.8-0.2,1.2
	c-0.1,0.4-0.3,0.8-0.6,1.1s-0.7,0.7-1.1,0.9c-0.5,0.2-1,0.3-1.7,0.3c-0.5,0-0.9-0.1-1.2-0.2s-0.5-0.4-0.7-0.6
	c-0.2-0.3-0.2-0.5-0.2-0.9c0-0.3,0.1-0.6,0.2-0.8c0.1-0.2,0.3-0.4,0.6-0.6c0.2-0.2,0.5-0.3,0.8-0.4c0.4-0.1,0.8-0.2,1.3-0.3
	c0.5-0.1,1-0.2,1.6-0.3C58.8,13.7,59.2,13.7,59.7,13.6"/>
<polygon points="64.3,19.4 64.3,7.5 66.3,7.5 66.3,10.9 66.6,10.9 66.6,19.4 "/>
<path d="M72.6,19.4v-5.8c0-0.5,0-0.9-0.1-1.4c-0.1-0.5-0.2-0.9-0.4-1.4c-0.2-0.4-0.5-0.8-0.9-1c-0.4-0.3-0.9-0.4-1.5-0.4
	c-0.4,0-0.8,0.1-1.2,0.2c-0.4,0.1-0.7,0.4-1,0.7c-0.3,0.3-0.5,0.7-0.6,1.2c-0.2,0.5-0.2,1.1-0.2,1.8l-1.4-0.5c0-1.1,0.2-2,0.6-2.9
	c0.4-0.8,1-1.5,1.7-1.9c0.8-0.5,1.7-0.7,2.7-0.7c0.8,0,1.5,0.1,2.1,0.4c0.6,0.3,1,0.6,1.4,1C74,9,74.3,9.5,74.5,10
	c0.2,0.5,0.3,1,0.4,1.5c0.1,0.5,0.1,0.9,0.1,1.3v6.6H72.6z"/>
<path d="M86.6,10.2c-0.4-0.9-1-1.7-1.7-2.2c-0.8-0.5-1.7-0.8-2.8-0.8c-1.1,0-2.1,0.3-2.9,0.8c-0.8,0.5-1.4,1.3-1.9,2.2
	c-0.4,0.9-0.7,2-0.7,3.2c0,1.2,0.2,2.3,0.7,3.2c0.4,1,1.1,1.7,1.9,2.2s1.8,0.8,2.9,0.8c1.1,0,2.1-0.3,2.9-0.8
	c0.8-0.6,1.4-1.3,1.7-2.2c0.4-0.9,0.6-2,0.6-3.2C87.2,12.2,87,11.2,86.6,10.2z M85.2,15.6c-0.2,0.6-0.6,1.1-1,1.5s-1.1,0.5-1.8,0.5
	c-0.7,0-1.3-0.2-1.8-0.6c-0.5-0.4-0.8-0.9-1.1-1.5c-0.2-0.6-0.4-1.3-0.4-2.1c0-0.8,0.1-1.5,0.4-2.1s0.6-1.1,1.1-1.5
	c0.5-0.4,1.1-0.6,1.9-0.6c0.7,0,1.3,0.2,1.8,0.5s0.8,0.8,1,1.5s0.3,1.4,0.3,2.2S85.4,15,85.2,15.6z"/>
<polygon points="85.5,19.4 85.5,10.8 85.3,10.8 85.3,3.5 87.6,3.5 87.6,19.4 "/>
<rect x="90.1" y="3.3" width="2.3" height="2.2"/>
<rect x="90.1" y="7.5" width="2.3" height="11.9"/>
<rect x="94" y="7.5" width="7.3" height="1.8"/>
<path d="M96,19.4V7.1c0-0.3,0-0.6,0-1c0-0.3,0.1-0.7,0.2-1c0.1-0.3,0.3-0.6,0.5-0.9c0.3-0.3,0.6-0.6,1-0.7c0.4-0.1,0.7-0.2,1.1-0.2
	s0.7,0,1,0h1.5v1.9h-1.4c-0.5,0-0.9,0.1-1.2,0.4s-0.4,0.6-0.4,1.1v12.7H96z"/>
<polygon points="104.7,24.7 107,18.4 107,20.2 101.8,7.5 104.2,7.5 108.1,17.3 107.4,17.3 111.1,7.5 113.4,7.5 106.9,24.7 "/>
</svg>
