<svg xmlns="http://www.w3.org/2000/svg" xml:space="preserve" id="Layer_1" x="0" y="0" version="1.1" viewBox="0 0 189.8 42" fill="currentColor">
	<path d="M21.5 1.2c-.1.1-.8 2.6-1.5 5.6s-1.5 5.6-1.6 5.8c-.1.2-.9-2.1-1.7-5-.9-3.2-1.6-5.4-1.8-5.3-.2.1-1 .3-1.9.5-.9.2-1.6.5-1.6.7 0 .2.7 2.8 1.5 5.9.8 3 1.4 5.6 1.4 5.6s-1.8-1.7-4-3.8l-3.8-4L5 8.6 3.6 10l4.3 4.3c2.3 2.3 4.2 4.3 4.1 4.4-.1.1-2.3-.5-4.9-1.2-2.6-.7-5-1.3-5.3-1.3-.3 0-.6.5-1 1.7-.3.9-.4 1.8-.4 1.9.1.1 2.6.8 5.7 1.6s5.6 1.5 5.6 1.6c0 .1-2.3.8-5.1 1.5C.9 26 1.2 25.8 2 28.4c.4 1.2.6 1.5 1 1.4.3-.1 2.9-.8 5.8-1.6s5.3-1.4 5.3-1.5c0 0-.3-.8-.9-1.8-.8-1.4-.9-2-.9-3.7 0-2.4.5-3.7 2-5.4 2.1-2.4 5.2-3.2 8.3-2.3 3.3 1 5.3 3.6 5.6 7.3l.2 2.3 4.9 1.3c2.7.7 5.2 1.3 5.4 1.3.6 0 1.6-3.6 1.1-3.8-.2-.1-2.8-.8-5.9-1.6-3-.8-5.4-1.5-5.2-1.6.2-.1 2.5-.7 5.2-1.4s5-1.3 5.1-1.4c.1-.1-.6-3.3-.8-3.7-.1-.2-2.2.2-5.7 1.2-3 .8-5.7 1.5-5.8 1.5-.2 0 1.5-1.8 3.6-3.9L34 7.2l-1.4-1.4-1.4-1.4-4.3 4.4-4.3 4.4 1.3-5.1c.7-2.8 1.3-5.3 1.3-5.6 0-.3-.6-.6-1.8-.9-1-.4-1.9-.6-1.9-.4" class="st0"/>
	<path d="M27.7 24.6c-.7 1.5-3 3.8-4.3 4.2-.6.2-.8.5-.8.8.1.3.7 2.6 1.4 5.1.7 2.6 1.3 4.7 1.4 4.9.3.4 3.6-.7 3.6-1.2 0-.3-2.1-8.4-2.9-11-.1-.3 1.6 1.2 3.8 3.4l4 4 1.4-1.4 1.4-1.4-4.3-4.3-4.3-4.3-.4 1.2m-17.3 6.3-3.9 3.9 1.4 1.4 1.4 1.4 4.2-4.2c2.3-2.3 4.2-4.3 4.2-4.4 0-.1-.2-.2-.4-.2s-1-.4-1.6-.9c-.7-.5-1.3-.9-1.4-.9s-1.8 1.8-3.9 3.9m7.3-.2c-.2.7-.8 3-1.4 5.1-.6 2.1-1 3.9-1 4.1 0 .2 3.6 1.4 3.8 1.2.1-.1 3.1-11.3 3.1-11.5 0-.1-.9-.1-2.1-.1H18l-.3 1.2" class="st0"/>
	<path d="M68.2 20c.7-.4 1.2-.9 1.7-1.5.7-1 1-2.2 1-3.6 0-1.1-.3-2.2-.8-3.3-.5-1-1.4-1.9-2.5-2.5-1.1-.7-2.4-1-4-1h-9.9v25.2h10.8c1.6 0 3-.3 4.1-.9 1.1-.6 2-1.5 2.6-2.6.6-1.1.9-2.4.9-3.9s-.4-2.9-1.3-4c-.7-.8-1.5-1.5-2.6-1.9zm-10.8-8.5h6.1c1.1 0 2 .3 2.6.9.7.6 1 1.4 1 2.4 0 .7-.2 1.4-.5 1.9s-.8.9-1.3 1.2c-.5.3-1.2.4-1.8.4h-6.1v-6.8zM67.8 28c-.4.6-.9 1-1.6 1.4-.7.3-1.4.5-2.2.5h-6.6v-8h6.8c.8 0 1.6.2 2.2.5.6.4 1.1.8 1.4 1.5.3.6.5 1.3.5 2.1 0 .7-.1 1.4-.5 2zM84 14.3c-.6 0-1.2.2-1.8.3-.6.2-1.1.5-1.6.8-.5.3-.9.7-1.3 1.3-.2.2-.3.5-.5.7v-3h-3.3v18.9h3.7v-9.5c0-.7.1-1.5.2-2.1.2-.7.4-1.3.7-1.8.3-.5.8-1 1.4-1.4.6-.4 1.3-.6 2.1-.7.8-.1 1.4 0 2.1.1v-3.4c-.5-.2-1.1-.2-1.7-.2zm19.3 3.2c-.6-1.2-1.5-2.2-2.8-2.7-1.3-.6-2.7-.9-4.4-.9-2.2 0-3.9.5-5.2 1.4-1.3 1-2.2 2.2-2.7 3.9l3.4 1.1c.3-1.1.9-1.8 1.7-2.3.8-.5 1.7-.7 2.7-.7 1.6 0 2.7.4 3.3 1.1.6.6.9 1.6.9 2.8l-2.1.3c-1.2.2-2.3.3-3.4.5s-2 .4-2.9.6c-1 .3-1.8.7-2.4 1.2-.7.5-1.2 1.1-1.5 1.8-.3.7-.5 1.6-.5 2.5 0 1 .2 2 .7 2.8.5.9 1.2 1.5 2.1 2.1.9.5 2.1.8 3.5.8 1.8 0 3.2-.4 4.5-1.1.9-.5 1.7-1.3 2.4-2.2v2.7h3.2V21.7c0-.8 0-1.5-.1-2.2s-.1-1.4-.4-2zm-3.4 9.6c-.1.6-.4 1.2-.9 1.8-.5.6-1.1 1-1.8 1.4-.7.4-1.6.6-2.7.6-.8 0-1.4-.1-1.9-.4s-.9-.6-1.1-1-.4-.9-.4-1.4c0-.5.1-.9.3-1.3.2-.4.5-.6.9-.9s.8-.5 1.3-.6c.6-.2 1.3-.3 2-.5.8-.1 1.6-.3 2.6-.4.6-.1 1.3-.2 2-.3v1.1c0 .7-.1 1.3-.3 1.9zm24.8-8.7c-.3-.8-.7-1.5-1.3-2.2-.6-.7-1.3-1.2-2.2-1.7s-2-.6-3.3-.6c-1.7 0-3.2.4-4.4 1.1-.7.5-1.4 1-1.9 1.7v-2.3h-3.3v18.9h3.7v-9.8c0-1.1.1-2.1.4-2.9.3-.8.6-1.4 1-1.9s.9-.8 1.5-1c.6-.2 1.2-.3 1.9-.3 1 0 1.8.2 2.4.6.6.4 1.1.9 1.5 1.6.3.7.6 1.4.7 2.2.1.8.2 1.5.2 2.3v9.3h3.7V22.8c0-.6-.1-1.3-.2-2 .1-.8-.1-1.6-.4-2.4zm17.8-2.7c-.2-.2-.4-.4-.6-.5-1.2-.9-2.7-1.3-4.5-1.3-1.8 0-3.3.4-4.6 1.3s-2.3 2.1-3 3.6c-.7 1.5-1 3.2-1 5.1 0 1.9.3 3.6 1 5.1.7 1.5 1.7 2.7 3 3.6s2.8 1.3 4.6 1.3c1.8 0 3.3-.4 4.6-1.3.4-.3.8-.6 1.1-1v1.8h3.3V8.1h-3.7v7.6zm-.1 11.6c-.3 1-.9 1.8-1.7 2.4-.8.6-1.7.9-2.9.9s-2.1-.3-2.9-.9c-.8-.6-1.3-1.4-1.7-2.4-.4-1-.6-2.1-.6-3.4 0-1.2.2-2.4.6-3.4.4-1 1-1.8 1.7-2.4.8-.6 1.8-.9 3-.9 1.1 0 2.1.3 2.8.8.7.6 1.3 1.3 1.6 2.3.4 1 .5 2.2.5 3.5s0 2.5-.4 3.5zm9-12.9h3.7v18.9h-3.7zm0-6.7h3.7v3.6h-3.7zm15.2-.1c-.6 0-1.1.2-1.7.4-.6.2-1.1.6-1.6 1.1-.4.4-.7.9-.8 1.5s-.3 1.1-.3 1.6-.1 1.1-.1 1.5v.7H159v2.9h3.1v16h3.7v-16h4.8v-2.9h-4.8V13c0-.8.2-1.4.6-1.8s1.1-.6 1.9-.6h2.2v-3h-3.9zm19.5 6.8-5.4 14.2-5.5-14.2h-3.9l7.7 18.8-3.1 8.5h3.5l10.4-27.3z"/>
</svg>
