<?xml version="1.0" encoding="utf-8"?>
<!-- Generator: Adobe Illustrator 26.2.1, SVG Export Plug-In . SVG Version: 6.00 Build 0)  -->
<svg version="1.1" id="Layer_1" xmlns="http://www.w3.org/2000/svg" xmlns:xlink="http://www.w3.org/1999/xlink" x="0px" y="0px"
	 viewBox="0 0 144.8 24.7" style="enable-background:new 0 0 144.8 24.7;" xml:space="preserve">
<path d="M12,23.7c-1.5-0.3-2.8-0.5-4.3-0.7c1.2-3.1,2-6.2,3.6-9C12,17.1,11.7,20.3,12,23.7z"/>
<path d="M2.6,19.4c-0.7-1.3-1.4-2.5-2.1-3.8c3.2-0.9,6.1-2.2,9.4-2.6C7.8,15.4,5.1,17.2,2.6,19.4z"/>
<path d="M0.3,9.5c0.3-1.5,0.9-2.7,1.6-4c2.6,1.9,5.4,3.4,7.8,5.6C6.5,11.1,3.5,10.1,0.3,9.5z"/>
<path d="M13,13.5c2.9,1.4,5.2,3.6,7.9,5.4C20,20.1,19,21,17.7,21.8C16.1,19,14.2,16.5,13,13.5z"/>
<path d="M13.7,12c3-1.2,6.1-1.4,9.3-2.1c0.3,1.4,0.3,2.8,0,4.3C19.8,13.4,16.7,13.1,13.7,12z"/>
<path d="M12.9,10.3c0.9-3.1,2.7-5.7,4.1-8.5c0.9,0.2,2.6,1.6,3.4,2.6C17.9,6.4,15.7,8.7,12.9,10.3z"/>
<path d="M6.9,1.2c1.4-0.3,2.8-0.6,4.2-1c0,3.4,0.5,6.5,0,9.7C9.3,7.3,8.4,4.3,6.9,1.2z"/>
<g>
	<path d="M41.1,5.2c-0.6-0.4-1.3-0.7-2.2-0.9c-0.2,0-0.4-0.1-0.6-0.1c-0.2,0-0.4,0-0.6,0h-6.2v15.1H34v-5.3h3.7c0.1,0,0.3,0,0.6,0
		s0.4,0,0.6-0.1c0.9-0.1,1.6-0.4,2.2-0.9c0.6-0.4,1-1,1.3-1.7c0.3-0.7,0.4-1.4,0.4-2.3c0-0.8-0.1-1.6-0.4-2.3
		C42.1,6.2,41.7,5.7,41.1,5.2z M40.1,10.2c-0.1,0.3-0.3,0.6-0.5,0.9c-0.2,0.3-0.6,0.5-1,0.6c-0.1,0-0.3,0.1-0.5,0.1
		c-0.2,0-0.3,0-0.5,0H34V6.6h3.6c0.1,0,0.3,0,0.5,0c0.2,0,0.3,0,0.5,0.1c0.4,0.1,0.8,0.3,1,0.6c0.2,0.3,0.4,0.6,0.5,0.9
		c0.1,0.3,0.2,0.7,0.2,1C40.3,9.5,40.2,9.8,40.1,10.2z"/>
	<rect x="44.1" y="3.9" width="2.5" height="15.4"/>
	<path d="M57.9,9.8c-0.4-0.7-0.9-1.3-1.7-1.6c-0.8-0.3-1.7-0.5-2.7-0.5c-1.3,0-2.4,0.3-3.2,0.9c-0.8,0.6-1.3,1.4-1.6,2.3l2.3,0.7
		c0.2-0.6,0.5-1,1-1.2c0.5-0.2,1-0.4,1.5-0.4c0.8,0,1.4,0.2,1.8,0.6c0.3,0.3,0.5,0.8,0.5,1.4c-0.4,0.1-0.9,0.1-1.3,0.2
		c-0.7,0.1-1.4,0.2-2,0.3s-1.1,0.3-1.6,0.4c-0.6,0.2-1.1,0.5-1.5,0.8c-0.4,0.3-0.7,0.7-0.8,1.1c-0.2,0.4-0.3,0.9-0.3,1.5
		c0,0.6,0.1,1.2,0.4,1.7c0.3,0.5,0.7,0.9,1.3,1.2c0.6,0.3,1.3,0.5,2.1,0.5c1,0,1.9-0.2,2.6-0.6c0.5-0.3,1-0.7,1.4-1.3v1.5h2.2v-7
		c0-0.5,0-0.9-0.1-1.4S58.1,10.2,57.9,9.8z M55.6,15.8c-0.1,0.3-0.2,0.5-0.5,0.8c-0.2,0.3-0.6,0.5-1,0.7c-0.4,0.2-0.9,0.3-1.5,0.3
		c-0.4,0-0.7-0.1-1-0.2s-0.5-0.3-0.6-0.5c-0.1-0.2-0.2-0.5-0.2-0.7c0-0.2,0.1-0.5,0.2-0.6c0.1-0.2,0.3-0.3,0.5-0.5
		c0.2-0.1,0.5-0.3,0.7-0.4c0.3-0.1,0.6-0.2,1-0.3c0.4-0.1,0.9-0.2,1.4-0.3c0.3-0.1,0.7-0.1,1.2-0.2c0,0.2,0,0.4,0,0.7
		C55.8,15.1,55.7,15.5,55.6,15.8z"/>
	<path d="M63.8,10.6c0.4-0.3,1-0.5,1.6-0.5c0.6,0,1.1,0.2,1.6,0.5c0.5,0.3,0.8,0.8,1,1.4l2.5-0.7c-0.3-1.1-0.9-2-1.7-2.7
		c-0.9-0.6-2-1-3.3-1c-1.1,0-2.1,0.3-3,0.8s-1.5,1.2-1.9,2.1c-0.5,0.9-0.7,1.9-0.7,3.1c0,1.1,0.2,2.2,0.7,3.1
		c0.4,0.9,1.1,1.6,1.9,2.1c0.8,0.5,1.8,0.8,3,0.8c1.3,0,2.3-0.3,3.2-0.9c0.9-0.6,1.5-1.5,1.8-2.7l-2.6-0.6c-0.2,0.6-0.5,1-0.9,1.3
		c-0.4,0.3-0.9,0.5-1.6,0.5c-1,0-1.7-0.3-2.2-1c-0.5-0.7-0.7-1.5-0.7-2.6c0-0.7,0.1-1.3,0.3-1.9C63.1,11.3,63.4,10.9,63.8,10.6z"/>
	<path d="M79.8,8.5C79,8,78,7.7,76.8,7.7c-1.1,0-2.1,0.3-2.9,0.8c-0.8,0.5-1.5,1.2-2,2.1c-0.5,0.9-0.7,2-0.7,3.2
		c0,1.1,0.2,2.2,0.7,3c0.5,0.9,1.2,1.6,2,2.1s1.9,0.7,3,0.7c1.1,0,2.1-0.3,3-0.9c0.9-0.6,1.6-1.4,2-2.4l-2.5-0.8
		c-0.2,0.5-0.6,0.9-1,1.2c-0.5,0.3-1,0.4-1.6,0.4c-1,0-1.7-0.3-2.2-0.9c-0.4-0.5-0.6-1.2-0.7-2h5.7h1.3h1.2c0.1-1.4-0.1-2.5-0.5-3.5
		C81.2,9.9,80.6,9.1,79.8,8.5z M76.9,9.9c0.9,0,1.6,0.3,2,0.9c0.3,0.4,0.5,1,0.6,1.7H74c0.1-0.6,0.3-1.2,0.6-1.6
		C75.1,10.3,75.9,9.9,76.9,9.9z"/>
	<path d="M93.8,10.6c-0.2-0.5-0.4-1-0.7-1.4s-0.8-0.8-1.3-1.1c-0.5-0.3-1.2-0.4-2.1-0.4c-1.1,0-2,0.2-2.7,0.7
		c-0.4,0.3-0.7,0.6-1,0.9v-5h-2.3v15.1h2.6v-5.8c0-0.7,0.1-1.3,0.2-1.7c0.2-0.4,0.4-0.8,0.6-1.1c0.3-0.3,0.5-0.4,0.9-0.5
		c0.3-0.1,0.6-0.2,1-0.2c0.6,0,1.1,0.1,1.4,0.4c0.4,0.3,0.6,0.6,0.8,1c0.2,0.4,0.3,0.8,0.3,1.3c0,0.4,0.1,0.8,0.1,1.2v5.5h2.6V13
		c0-0.3,0-0.6-0.1-1.1C94,11.5,93.9,11.1,93.8,10.6z"/>
	<path d="M104.3,8.5c-0.8-0.5-1.8-0.8-3-0.8c-1.1,0-2.1,0.3-2.9,0.8c-0.8,0.5-1.5,1.2-2,2.1c-0.5,0.9-0.7,1.9-0.7,3.1
		c0,1.2,0.2,2.2,0.7,3.1s1.1,1.6,2,2.1c0.8,0.5,1.8,0.8,3,0.8s2.1-0.3,3-0.8c0.8-0.5,1.5-1.2,2-2.1c0.5-0.9,0.7-1.9,0.7-3.1
		c0-1.2-0.2-2.2-0.7-3.1C105.8,9.7,105.1,9,104.3,8.5z M103.5,16.3c-0.5,0.7-1.2,1-2.2,1c-1,0-1.7-0.3-2.2-1
		c-0.5-0.7-0.8-1.5-0.8-2.6c0-0.7,0.1-1.3,0.3-1.9c0.2-0.5,0.5-1,1-1.3s1-0.5,1.7-0.5c1,0,1.7,0.3,2.2,1c0.5,0.7,0.7,1.5,0.7,2.6
		C104.3,14.8,104,15.6,103.5,16.3z"/>
	<rect x="108.7" y="3.9" width="2.5" height="15.4"/>
	<path d="M121.1,8.6c0,0-0.1-0.1-0.1-0.1c-0.7-0.5-1.6-0.8-2.7-0.8c-1.1,0-2,0.3-2.8,0.8s-1.4,1.2-1.8,2.1c-0.4,0.9-0.6,1.9-0.6,3.1
		c0,1.1,0.2,2.2,0.6,3.1c0.4,0.9,1,1.6,1.8,2.1c0.8,0.5,1.7,0.8,2.7,0.8c1.1,0,2-0.3,2.8-0.8c0.2-0.1,0.3-0.2,0.5-0.4v0.8h2.2V4.3
		h-2.6V8.6z M121.2,15.6c-0.2,0.6-0.5,1-0.9,1.3c-0.4,0.3-1,0.5-1.6,0.5c-0.7,0-1.2-0.2-1.6-0.5s-0.7-0.8-1-1.3s-0.3-1.2-0.3-1.9
		c0-0.7,0.1-1.3,0.3-1.9c0.2-0.6,0.5-1,1-1.3c0.4-0.3,1-0.5,1.7-0.5c0.6,0,1.2,0.2,1.6,0.5c0.4,0.3,0.7,0.7,0.9,1.3s0.3,1.2,0.3,1.9
		C121.5,14.4,121.4,15.1,121.2,15.6z"/>
	<path d="M134,8.5c-0.8-0.5-1.8-0.8-3-0.8c-1.1,0-2.1,0.3-2.9,0.8c-0.8,0.5-1.5,1.2-2,2.1c-0.5,0.9-0.7,2-0.7,3.2
		c0,1.1,0.2,2.2,0.7,3c0.5,0.9,1.2,1.6,2,2.1s1.9,0.7,3,0.7c1.1,0,2.1-0.3,3-0.9c0.9-0.6,1.6-1.4,2-2.4l-2.5-0.8
		c-0.2,0.5-0.6,0.9-1,1.2c-0.5,0.3-1,0.4-1.6,0.4c-1,0-1.7-0.3-2.2-0.9c-0.4-0.5-0.6-1.2-0.7-2h5.7h1.3h1.2c0.1-1.4-0.1-2.5-0.5-3.5
		C135.4,9.9,134.8,9.1,134,8.5z M131.1,9.9c0.9,0,1.6,0.3,2,0.9c0.3,0.4,0.5,1,0.6,1.7h-5.6c0.1-0.6,0.3-1.2,0.6-1.6
		C129.3,10.3,130.1,9.9,131.1,9.9z"/>
	<path d="M143.3,8c-0.4,0-0.7,0.1-1,0.2c-0.3,0.1-0.6,0.3-0.9,0.4c-0.3,0.2-0.6,0.5-0.8,0.8c-0.1,0.1-0.2,0.3-0.3,0.4V8h-2.2v11.3
		h2.5v-5.8c0-0.4,0.1-0.8,0.2-1.2c0.1-0.4,0.3-0.7,0.5-1c0.2-0.3,0.5-0.5,0.9-0.7c0.3-0.2,0.7-0.3,1.2-0.4c0.4,0,0.8,0,1.2,0.1V8
		C144,8,143.7,8,143.3,8z"/>
</g>
</svg>
