<?xml version="1.0" encoding="utf-8"?>
<!-- Generator: Adobe Illustrator 26.2.1, SVG Export Plug-In . SVG Version: 6.00 Build 0)  -->
<svg version="1.1" id="Layer_1" xmlns="http://www.w3.org/2000/svg" xmlns:xlink="http://www.w3.org/1999/xlink" x="0px" y="0px"
	 viewBox="0 0 6347 1200" style="enable-background:new 0 0 6347 1200;" xml:space="preserve">
<polygon points="786.4,26.5 603.3,443.2 438.1,19.2 326.3,62.7 491.5,486.8 74.8,303.8 26.5,413.6 443,596.6 18.9,761.8 62.5,873.6 
	486.9,708.2 303.8,1125.2 413.6,1173.5 596.7,756.8 761.9,1180.8 873.7,1137.3 708.5,713.2 1125.2,896.2 1173.5,786.4 756.5,603.2 
	1180.6,438 1137,326.2 713.3,491.3 896.2,74.8 "/>
<g>
	<path d="M2015.8,325.1c-24.5-19.2-55.4-31.6-92.9-37.4c-8.4-1.5-17.5-2.5-27.5-2.9c-9.9-0.4-18-0.7-24.3-0.7h-267.8v648h108.5
		V705.8h159.3c6,0,14-0.3,24.1-0.9c10-0.6,19.3-1.5,27.7-2.7c37.2-5.7,68-18.1,92.5-37.3c24.4-19.2,42.7-43.4,54.7-72.7
		c12-29.2,18-61.6,18-97c0-35.7-5.9-68.2-17.8-97.4C2058.4,368.5,2040.3,344.3,2015.8,325.1z M1972.2,537.5
		c-4.4,14.4-11.7,27.3-22.1,38.7c-10.3,11.4-24.5,19.4-42.5,23.9c-6.3,1.8-13.2,3-20.7,3.6c-7.5,0.6-14.3,0.9-20.2,0.9h-154.8V385.8
		h154.8c6,0,12.7,0.2,20.2,0.7c7.5,0.5,14.4,1.6,20.7,3.4c18,4.5,32.2,12.5,42.5,23.9c10.4,11.4,17.7,24.4,22.1,38.9
		c4.3,14.6,6.5,28.7,6.5,42.5C1978.7,509,1976.5,523.1,1972.2,537.5z"/>
	<rect x="2129.1" y="270.6" width="108.5" height="661.5"/>
	<path d="M2707.8,523.1c-15.9-32.1-40.3-55.2-73.1-69.3c-32.9-14.1-70.9-21.1-114.1-21.1c-57.3,0-102.8,12.5-136.6,37.4
		c-33.8,24.9-56.6,57.9-68.6,99l99,31c8.1-24.9,22.3-42.4,42.8-52.6c20.4-10.2,41.5-15.3,63.5-15.3c36.3,0,62.1,8,77.4,23.8
		c12.7,13.2,20,32.6,22,58.1c-19.6,2.9-38.7,5.7-57.3,8.3c-30.8,4.4-59.3,9.1-85.5,14.2c-26.3,5.1-49.1,10.8-68.6,17.1
		c-25.8,8.7-46.8,19.9-63,33.5c-16.2,13.7-28.2,29.9-36,48.6c-7.8,18.8-11.7,39.8-11.7,63.2c0,26.7,6.2,51.2,18.7,73.4
		c12.4,22.2,30.8,40,55.1,53.3c24.3,13.3,54,20,89.1,20c43.8,0,80.3-8.2,109.6-24.5c22.5-12.6,42.8-30.7,61-54.4v65.4h95V633.8
		c0-21-0.9-40.4-2.7-58.3C2721.8,557.6,2716.5,540.2,2707.8,523.1z M2607.9,778.7c-3.6,11.1-10.6,23-20.9,35.5
		c-10.3,12.6-24.2,23.3-41.6,32c-17.4,8.7-38.4,13-63,13c-17.1,0-31.4-2.7-43-8.1c-11.6-5.4-20.3-12.7-26.3-21.8
		c-6-9.1-9-19.7-9-31.7c0-10.5,2.3-19.6,7-27.5c4.6-7.8,11.3-14.7,20-20.7c8.7-6,19.3-11.2,32-15.8c12.9-4.2,27.7-8,44.5-11.5
		c16.8-3.4,36.9-7.1,60.3-11c15-2.5,31.9-5.2,50.7-8.2c-0.2,8.2-0.5,17.6-0.9,28.3C2616.9,749,2613.6,764.9,2607.9,778.7z"/>
	<path d="M2945.8,554.3c18.3-13.3,41.5-20,69.8-20c24.9,0,47.1,7.3,66.6,21.8c19.5,14.6,33.4,34.9,41.8,61l108-29.2
		c-11.7-48-36.7-85.9-74.9-113.6c-38.2-27.7-85-41.6-140.2-41.6c-49.2,0-91.7,11-127.4,33.1c-35.7,22-63.2,52.4-82.6,90.9
		c-19.3,38.6-29.2,82.7-29.5,132.5c0.3,48.9,9.8,92.7,28.6,131.4c18.7,38.7,45.8,69.2,81.2,91.6c35.4,22.3,78.1,33.5,128.2,33.5
		c54.3,0,100.2-13.3,137.7-39.8c37.5-26.5,63.7-64.6,78.8-114.1L3121.3,767c-8.4,24.9-20.9,44-37.6,57.2
		c-16.6,13.2-39.4,19.8-68.2,19.8c-40.8,0-71.5-14.2-92.2-42.8c-20.7-28.5-31-65.8-31-112c0-29.7,4.3-56.2,13-79.7
		C2914,586.1,2927.5,567.7,2945.8,554.3z"/>
	<path d="M3618.1,467.9c-35.3-23.5-78.1-35.3-128.5-35.3c-47.7,0-89.7,10.8-126,32.4c-36.3,21.6-64.7,52-85.1,91.1
		c-20.4,39.1-30.6,85.3-30.6,138.4c0,49.2,10.4,92.7,31.3,130.5c20.8,37.8,49.9,67.4,87.1,88.6c37.2,21.3,80.4,32,129.6,32
		c46.8,0,89.6-12.2,128.5-36.5c38.8-24.3,67.6-58.3,86.2-102.1l-107.1-32.4c-10.5,22.5-25.4,39.7-44.8,51.5
		c-19.3,11.9-42.4,17.8-69.1,17.8c-41.4,0-72.9-13.5-94.5-40.5c-17-21.2-27.3-49.3-30.9-84.1h244.2h54.5h53.1
		c4.2-58.2-2.2-108.7-19.3-151.7C3679.5,524.7,3653.4,491.5,3618.1,467.9z M3494.1,527.6c39.3,0,68.1,12.1,86.4,36.4
		c13,17.3,21.4,41.7,25.4,73.4h-239c5-28.1,14.4-51,28.3-68.6C3416.7,541.3,3449.7,527.6,3494.1,527.6z"/>
	<path d="M4203.2,555.5c-6.6-21-16.8-40.8-30.6-59.4c-13.8-18.6-32.4-33.9-55.8-45.9c-23.4-12-53.1-18-89.1-18
		c-45.6,0-84,10-115.2,29.9c-16.7,10.7-31.3,23.4-43.7,38v-216h-96.8v648h109.8V682.4c0-29.7,3.3-54.1,9.9-73.1
		c6.6-19,15.4-34,26.3-45c10.9-10.9,23.2-18.7,36.7-23.2s27.1-6.8,41-6.8c25.8,0,46.3,5.6,61.4,16.6c15.1,11.1,26.5,25.3,34.2,42.5
		c7.7,17.3,12.5,35.2,14.6,53.8c2.1,18.6,3.2,35.5,3.2,50.8v234H4219V660.8c0-11.7-1-26.9-2.9-45.7
		C4214.1,596.3,4209.8,576.5,4203.2,555.5z"/>
	<path d="M4639.1,465.5c-36.3-21.9-78.9-32.9-127.8-32.9c-47.7,0-89.7,10.8-126,32.4c-36.3,21.6-64.7,51.6-85.1,90
		c-20.4,38.4-30.6,83.1-30.6,134.1c0,50.1,10,94.4,29.9,133c19.9,38.6,48.1,68.8,84.4,90.7c36.3,21.9,78.8,32.8,127.4,32.8
		c48.6,0,91-10.9,127.3-32.6c36.3-21.7,64.6-51.9,84.8-90.5c20.2-38.5,30.4-83,30.4-133.4c0-50.1-10.1-94.4-30.2-133
		C4703.6,517.6,4675.4,487.4,4639.1,465.5z M4607.6,800.7c-21,28.8-53.1,43.2-96.3,43.2c-41.7,0-73.3-14-94.7-42.1
		c-21.5-28-32.2-65.6-32.2-112.7c0-30.6,4.5-57.5,13.5-80.8c9-23.2,22.9-41.4,41.6-54.4c18.7-13,42.7-19.6,71.8-19.6
		c42.6,0,74.5,14,95.8,42.1c21.3,28.1,32,65.6,32,112.7C4639.1,734.7,4628.6,771.9,4607.6,800.7z"/>
	<rect x="4815.8" y="270.6" width="108.5" height="661.5"/>
	<path d="M5334.5,469.6c-1.6-1.2-3.1-2.4-4.7-3.5c-31.4-22.3-70.1-33.5-116.3-33.5c-45.9,0-85.8,11.2-119.7,33.5
		c-33.9,22.4-60.1,52.8-78.5,91.4c-18.5,38.6-27.7,82.4-27.7,131.6c0,48.6,9.1,92.2,27.5,131c18.3,38.7,44.1,69.3,77.4,91.8
		c33.3,22.5,72.3,33.8,117,33.8c47.4,0,87.1-11.2,119.2-33.8c6.8-4.8,13.3-9.9,19.4-15.5v35.7h95.8v-648h-109.3V469.6z
		 M5335.6,772.4c-8.3,24-21.3,42.7-39.2,56c-17.9,13.4-41.3,20-70.4,20c-28.2,0-51.5-7-69.8-21.1c-18.3-14.1-31.9-33.2-40.7-57.4
		c-8.9-24.1-13.3-51.1-13.3-80.8c0-29.4,4.5-56.2,13.5-80.3c9-24.1,23-43.3,41.8-57.6c18.9-14.2,42.9-21.4,72-21.4
		c27.6,0,50.1,6.7,67.5,20c17.4,13.4,30.2,31.9,38.5,55.8c8.2,23.8,12.4,51.7,12.4,83.5C5348,720.6,5343.9,748.4,5335.6,772.4z"/>
	<path d="M5872.4,467.9c-35.3-23.5-78.1-35.3-128.5-35.3c-47.7,0-89.7,10.8-126,32.4c-36.3,21.6-64.7,52-85.1,91.1
		c-20.4,39.1-30.6,85.3-30.6,138.4c0,49.2,10.4,92.7,31.3,130.5c20.8,37.8,49.9,67.4,87.1,88.6c37.2,21.3,80.4,32,129.6,32
		c46.8,0,89.6-12.2,128.5-36.5c38.8-24.3,67.6-58.3,86.2-102.1l-107.1-32.4c-10.5,22.5-25.4,39.7-44.8,51.5
		c-19.3,11.9-42.4,17.8-69.1,17.8c-41.4,0-72.9-13.5-94.5-40.5c-17-21.2-27.3-49.3-30.9-84.1h244.2h54.5h53.1
		c4.2-58.2-2.2-108.7-19.3-151.7C5933.8,524.7,5907.6,491.5,5872.4,467.9z M5748.4,527.6c39.3,0,68.1,12.1,86.4,36.4
		c13,17.3,21.4,41.7,25.4,73.4h-239c5-28.1,14.4-51,28.3-68.6C5671,541.3,5704,527.6,5748.4,527.6z"/>
	<path d="M6256.4,444.1c-15.3,1.1-30.2,3.9-44.8,8.5c-14.6,4.7-27.8,11-39.8,19.1c-14.1,8.7-26.2,19.7-36.2,33.1
		c-4.5,6-8.7,12.4-12.4,19v-77.7h-95.8v486h108.9v-247c0-18.6,2.2-35.9,6.8-52c4.5-16,11.5-30.4,20.9-43c9.5-12.6,21.7-23,36.7-31
		c15-9,31.9-14.2,50.6-15.8c18.7-1.5,35.3-0.1,49.7,4V446.1C6286.5,443.7,6271.7,443,6256.4,444.1z"/>
</g>
</svg>
