<?xml version="1.0" encoding="utf-8"?>
<!-- Generator: Adobe Illustrator 26.2.1, SVG Export Plug-In . SVG Version: 6.00 Build 0)  -->
<svg version="1.1" id="Layer_1" xmlns="http://www.w3.org/2000/svg" xmlns:xlink="http://www.w3.org/1999/xlink" x="0px" y="0px"
	 viewBox="0 0 7246.2 1296.9" style="enable-background:new 0 0 7246.2 1296.9;" xml:space="preserve">
<g>
	<path d="M588.2,312.8c10,79.9,20,159.9,29.9,239.8c2.3,18.4,4.7,36.8,7,55.2c0.7,0,1.3,0,2,0.1c0.4-1.8,1-3.5,1.2-5.3
		c5-40.3,9.9-80.6,14.9-121c16.1-128.7,32.4-257.4,48.3-386.1c3.5-28.3-6.6-51.3-30.8-66.7c-22.1-14.1-45.5-14.2-67.8-0.6
		c-24.4,14.9-35.3,37.7-31.9,66.1C569.8,167.1,579.2,239.9,588.2,312.8z"/>
	<path d="M511.6,632.4c34.8-4.3,69.6-8.7,104.5-13.1c0-0.8,0-1.7,0-2.5c-18.5-2.3-37-4.7-55.5-7c-73.8-9.2-147.7-18.4-221.6-27.6
		c-78.9-9.9-157.8-20-236.8-29.5c-28-3.4-50.5,7.4-65.5,31.3c-13.9,22.2-13.9,45.6-0.1,67.8c14.9,24,37.4,34.8,65.3,31.5
		c62.4-7.3,124.7-15.5,187-23.3C363.2,650.8,437.4,641.6,511.6,632.4z"/>
	<path d="M1216.3,584.6c-14.9-24.4-37.8-35.3-66.1-31.9c-72.9,8.7-145.7,18.1-218.5,27.2c-79.9,10-159.9,20-239.8,29.9
		c-18.4,2.3-36.8,4.7-55.2,7c0,0.7,0,1.3,0,2c1.8,0.4,3.5,0.9,5.3,1.2c40.3,5,80.6,9.9,121,14.9c128.7,16.1,257.4,32.4,386.1,48.3
		c28.3,3.5,51.3-6.6,66.7-30.8C1229.7,630.4,1229.9,606.9,1216.3,584.6z"/>
	<path d="M666.2,938.1c-9.2-73.8-18.4-147.7-27.6-221.6c-3.7-29.4-7.4-58.8-11-88.2c-0.8,0-1.7,0-2.5,0c-2.3,18.5-4.7,37-7,55.5
		c-9.2,73.8-18.4,147.7-27.6,221.5c-9.9,78.9-20,157.8-29.5,236.8c-3.4,28,7.4,50.5,31.3,65.5c22.2,13.9,45.6,13.9,67.8,0.1
		c24-14.9,34.8-37.4,31.5-65.3C683.6,1074.3,674.7,1006.2,666.2,938.1z"/>
	<path d="M618.9,624.2c-2.7,2-5.4,3.9-8,5.9C477.7,733.8,344.5,837.5,211.2,941.2c-23,17.9-32.2,41.2-25.8,69.6
		c5.8,25.6,22.3,42.1,47.8,48c28.3,6.5,51.8-2.5,69.7-25.5c76.2-97.9,152.4-195.7,228.6-293.6c29.6-38,59.1-76,88.7-114
		C619.8,625.3,619.4,624.7,618.9,624.2z"/>
	<path d="M1041.8,941.4C947.4,867.9,853,794.5,758.7,721c-41.5-32.3-83-64.6-124.6-96.9c-0.5,0.4-1,0.7-1.5,1.1
		c1.7,2.5,3.4,5.1,5.2,7.5c103.9,133.5,207.8,267,311.7,400.5c17.9,23,41.2,32.2,69.6,25.9c25.6-5.8,42.2-22.3,48.1-47.8
		C1073.8,982.9,1064.8,959.4,1041.8,941.4z"/>
	<path d="M211.2,294.8C317.9,378,424.7,461.1,531.5,544.2c29.1,22.6,58.1,45.2,87.2,67.8c0.5-0.5,1-1,1.5-1.5
		c-1.8-2.4-3.5-4.9-5.4-7.3C510.9,469.7,407,336.3,303.1,202.8c-17.9-23-41.3-32.2-69.7-25.6c-25.6,5.9-42.1,22.4-47.9,48
		C179,253.5,188.2,276.9,211.2,294.8z"/>
	<path d="M632.7,610.7c0.3,0.4,0.6,0.7,1,1.1c1.3-0.8,2.7-1.5,4-2.5c135.9-105.8,271.9-211.5,407.6-317.5c15.4-12,22.9-28.7,24-48.1
		c1.6-28.7-15.3-54.5-41.5-64.4c-27.9-10.5-58.4-1.8-77.1,22.2c-104.3,134-208.7,268-313,402.1C635.8,605.9,634.3,608.4,632.7,610.7
		z"/>
</g>
<g>
	<path d="M2115,270.5c-29.5-23.1-66.3-38.1-110.3-45.1c-10.3-1.8-21.1-3-32.5-3.6c-11.4-0.5-20.9-0.8-28.6-0.8h-320.1v792h115V728.6
		h205.1c7.3,0,16.8-0.4,28.3-1.1c11.5-0.7,22.5-1.8,32.7-3.3c44-7,80.8-22,110.3-45.1s51.6-52.2,66.3-87.5
		c14.7-35.2,22-74.2,22-117.2c0-42.5-7.3-81.4-22-116.6C2166.6,322.7,2144.5,293.6,2115,270.5z M2076.7,532.8
		c-6.2,19.4-16.5,36.6-30.8,51.4s-33.2,25-56.6,30.5c-8.1,1.8-16.6,3.1-25.6,3.9c-9,0.7-17.1,1.1-24.5,1.1h-200.8V329.3h200.8
		c7.3,0,15.5,0.4,24.5,1.1s17.5,2.2,25.6,4.4c23.5,5.5,42.3,15.7,56.6,30.5c14.3,14.9,24.6,31.9,30.8,51.2s9.4,38.6,9.4,58
		C2086.1,493.9,2083,513.4,2076.7,532.8z"/>
	<rect x="2253.4" y="203.5" width="115" height="808.5"/>
	<path d="M2937.7,514.7c-18.3-39.2-47.2-67.9-86.6-86.1c-39.4-18.2-85.7-27.2-138.9-27.2c-68.6,0-123.5,15-164.7,45.1
		c-41.2,30.1-69.2,70.6-83.9,121.5l107.2,33c10.2-33.4,28.4-57.3,54.4-71.8c26-14.5,54.6-21.7,85.8-21.7
		c49.5,0,84.4,11.3,104.8,33.8c17.8,19.7,27.5,48.5,29.2,86.5c-22.5,3.2-45,6.3-67.7,9.5c-36.8,5.1-72,10.6-105.3,16.5
		c-33.4,5.9-63.2,12.7-89.6,20.3c-30.4,9.9-56.1,22.8-77,38.8c-20.9,16-36.7,35.3-47.3,58c-10.6,22.7-16,49.1-16,79.2
		c0,32.3,7.6,61.9,22.8,88.8c15.2,27,37.7,48.6,67.4,64.9c29.7,16.3,66.5,24.5,110.5,24.5c55.4,0,102-11.1,140-33.3
		c28.4-16.6,53.1-39.7,74-69.4v86.2h101.8V646.2c0-24.9-1.1-48.2-3.3-69.8S2947.2,534.2,2937.7,514.7z M2832.1,816.7
		c-4.4,19.4-13.8,38.1-28.1,56.1s-33.2,32.7-56.6,44.3c-23.5,11.6-51.5,17.3-84.2,17.3c-24.6,0-44.7-3.8-60.5-11.5
		s-27.5-18.1-35.2-31.1s-11.5-27.2-11.5-42.6c0-15.8,3.6-29.2,10.7-40.2s16.9-20.3,29.2-28c12.3-7.7,26.3-14.3,42.1-19.8
		c18.7-5.9,40-10.9,64.1-15.1c24-4.2,50.9-8.5,80.6-12.9c19.1-2.8,39.5-5.9,61.3-9.2c-0.2,9.7-0.6,20.8-1.1,33.4
		C2841.9,779.3,2838.3,799.1,2832.1,816.7z"/>
	<path d="M3215.3,536.5c24.2-17.8,55.2-26.7,93-26.7c33.4,0,63,9.3,88.8,27.8c25.8,18.5,44.5,44.5,55.8,77.8l114.4-33
		c-14.7-56.1-45-100.3-91-132.5c-46-32.3-101.5-48.4-166.4-48.4c-60.1,0-111.7,13.4-154.6,40.2s-75.9,63.7-99,110.8
		s-34.8,101.3-35.2,162.5c0.4,60.1,11.8,113.9,34.4,161.2c22.5,47.3,55.1,84.5,97.6,111.6s94.2,40.7,155.1,40.7
		c63.8,0,118.1-15.5,162.8-46.5c44.7-31,76.8-75.4,96.3-133.4l-116.6-27.5c-12.1,31.9-29.6,56.4-52.5,73.4
		c-22.9,17.1-52.9,25.6-89.9,25.6c-54.3,0-95.2-18.9-122.9-56.7c-27.7-37.8-41.7-87.3-42.1-148.5c0.4-39.6,6.4-74.8,18.2-105.6
		C3173.2,578.6,3191.1,554.3,3215.3,536.5z"/>
	<path d="M4034.1,443.5c-42.5-28-94-42.1-154.5-42.1c-57.9,0-108.7,13-152.4,39s-77.6,62.9-102,110.5
		c-24.4,47.7-36.6,104-36.6,168.9c0,61.2,12.4,115,37.1,161.4c24.8,46.4,59.4,82.5,104,108.4c44.5,25.8,96.3,38.8,155.4,38.8
		c57.6,0,109.8-14.6,156.7-43.7c46.9-29.2,82-70.3,105.1-123.5l-112.7-35.8c-14.7,30.4-35.1,53.8-61.3,70.1s-57.3,24.5-93.2,24.5
		c-54.6,0-96.4-17.9-125.4-53.6c-24-29.6-38-69.3-42.1-119.1h327.6h57.7h57.2c4.4-71.1-4-132.5-25-184.3
		C4108.4,511.5,4076.6,471.6,4034.1,443.5z M3754.1,557.7c29-36.3,72.2-54.5,129.8-54.5c52.1,0,90.8,16.5,116.3,49.5
		c19.2,24.8,31.3,59.9,36.5,105h-322.2C3720.6,616.5,3733.8,583.1,3754.1,557.7z"/>
	<path d="M4734.1,544.9c-9.2-25.3-22.5-48.7-39.9-70.1c-17.4-21.4-40.1-38.8-67.9-52c-27.9-13.2-62.3-19.8-103.4-19.8
		c-53.5,0-99.2,11.6-137,34.7c-23.1,14.1-42.9,31.7-59.4,52.6V221h-102.8v792h116.6V703.9c0-35.2,3.9-65.1,11.8-89.7
		c7.9-24.6,18.7-44.4,32.5-59.4s29.8-26,48.1-32.7c18.3-6.8,37.8-10.2,58.3-10.2c31.5,0,57.1,6.4,76.7,19.2
		c19.6,12.8,34.8,29.7,45.7,50.6s18.1,43.5,22,67.9c3.8,24.4,5.8,48.1,5.8,71.2v292h116.6V683c0-18.3-1.7-39.6-5-63.8
		C4749.5,595,4743.2,570.2,4734.1,544.9z"/>
	<path d="M5265.2,441.6c-43.6-26.8-95.2-40.2-154.5-40.2c-58.3,0-109.3,13.1-152.9,39.3c-43.6,26.2-77.6,62.9-101.8,110
		c-24.2,47.1-36.3,101.7-36.3,163.6c0,61.6,11.8,116,35.5,163.1s57.3,84.1,100.9,110.8c43.6,26.8,95.2,40.1,154.6,40.1
		c59,0,110.4-13.3,154-39.9c43.6-26.6,77.5-63.4,101.5-110.5c24-47.1,36-101.7,36-163.6c0-61.2-11.9-115.3-35.8-162.3
		C5342.5,505.2,5308.8,468.4,5265.2,441.6z M5237.9,862.6c-28,38.3-70.5,57.5-127.3,57.5c-55.4,0-97.4-18.7-126-56.1
		c-28.6-37.4-42.9-87.3-42.9-149.6c0-40.3,6-75.8,18.2-106.4c12.1-30.6,30.6-54.6,55.5-72.1c24.9-17.4,56.7-26.1,95.2-26.1
		c56.1,0,98.3,18.6,126.8,55.8c28.4,37.2,42.6,86.8,42.6,148.8C5280,774.9,5266,824.3,5237.9,862.6z"/>
	<rect x="5477.8" y="203.5" width="115" height="808.5"/>
	<path d="M6103,459.4c-6.4-5.7-13.1-11-20.1-16c-38.3-27.3-85.5-41-141.6-41c-55.8,0-103.9,13.7-144.4,41s-71.8,64.5-93.8,111.6
		c-22,47.1-33,100.6-33,160.3c0,59.4,10.9,112.8,32.7,160.3s52.8,85,93,112.5s87.9,41.3,143.3,41.3c56.8,0,104.5-13.8,143-41.5
		c12.3-8.9,23.7-18.7,34.1-29.6v54.6h102.3V221H6103V459.4z M6099.7,824.3c-11,31.5-28.4,56.3-52.2,74.2
		c-23.8,18-54.6,26.9-92.4,26.9c-36.7,0-67-9.3-91-28c-24-18.7-42-43.9-53.9-75.6c-11.9-31.7-17.9-67.2-17.9-106.4
		c0-38.9,6-74.1,17.9-105.6c11.9-31.5,30.2-56.7,54.7-75.4c24.6-18.7,55.9-28,94.1-28c35.9,0,65.5,8.8,88.8,26.4
		s40.5,42.2,51.7,73.7c11.2,31.5,16.8,67.8,16.8,108.9S6110.7,792.8,6099.7,824.3z"/>
	<path d="M6735.4,443.5c-42.5-28-94-42.1-154.5-42.1c-57.9,0-108.7,13-152.4,39s-77.6,62.9-102,110.5
		c-24.4,47.7-36.6,104-36.6,168.9c0,61.2,12.4,115,37.1,161.4c24.8,46.4,59.4,82.5,104,108.4c44.5,25.8,96.3,38.8,155.4,38.8
		c57.6,0,109.8-14.6,156.7-43.7c46.9-29.2,82-70.3,105.1-123.5l-112.8-35.8c-14.7,30.4-35.1,53.8-61.3,70.1s-57.3,24.5-93.2,24.5
		c-54.6,0-96.4-17.9-125.4-53.6c-24-29.6-38-69.3-42.1-119.1h327.6h57.8h57.2c4.4-71.1-4-132.5-25-184.3
		C6809.7,511.5,6777.9,471.6,6735.4,443.5z M6455.5,557.7c29-36.3,72.2-54.5,129.8-54.5c52.1,0,90.8,16.5,116.3,49.5
		c19.2,24.8,31.3,59.9,36.5,105h-322.2C6422,616.5,6435.2,583.1,6455.5,557.7z"/>
	<path d="M7190.1,415.9c-19.4,1.3-38.4,5-56.9,11c-18.5,6-35.3,14.6-50.3,25.6c-15.4,10.3-29,23.4-40.7,39.3
		c-5.2,7.1-10,14.5-14.3,22.2V419h-102.3v594h116V713.2c0-23.5,2.4-45.7,7.1-66.8c4.8-21.1,12.6-40.2,23.4-57.5s25.6-31.9,44.3-44
		c19.8-12.8,41.5-20.3,65.2-22.5s45.2-0.7,64.6,4.4V419C7228.3,415.7,7209.6,414.7,7190.1,415.9z"/>
</g>
</svg>
